<svg width="231" height="90" viewBox="0 0 231 90" fill="none" xmlns="http://www.w3.org/2000/svg">
<path d="M8.48 90L0.672001 0.399994H18.208L21.792 71.056L53.152 0.399994H71.456L77.216 70.928L105.76 0.399994H123.552L83.36 90H63.904L57.888 23.696L27.808 90H8.48ZM120.447 90L136.319 0.399994H152.703L136.831 90H120.447ZM154.197 90L170.069 0.399994H206.165C214.357 0.399994 220.544 2.19199 224.725 5.77599C228.906 9.27466 230.997 13.968 230.997 19.856C230.997 25.744 229.162 30.864 225.493 35.216C221.909 39.4827 217.258 42.3413 211.541 43.792C215.808 44.7307 219.221 46.8213 221.781 50.064C224.341 53.3067 225.621 57.1467 225.621 61.584C225.621 67.3013 224.085 72.2933 221.013 76.56C217.941 80.8267 213.802 84.1547 208.597 86.544C203.477 88.848 197.76 90 191.445 90H154.197ZM179.797 38.16H196.821C202.026 38.16 206.122 36.8373 209.109 34.192C212.181 31.4613 213.717 27.792 213.717 23.184C213.717 20.112 212.65 17.68 210.517 15.888C208.469 14.096 205.312 13.2427 201.045 13.328H184.149L179.797 38.16ZM172.885 76.944H191.317C196.778 76.944 201.13 75.4507 204.373 72.464C207.616 69.4773 209.237 65.5947 209.237 60.816C209.237 57.5733 208.042 55.0133 205.653 53.136C203.264 51.2587 199.936 50.32 195.669 50.32H177.621L172.885 76.944Z" fill="#FFC107"/>
</svg>
