<svg width="33" height="24" viewBox="0 0 33 24" fill="none" xmlns="http://www.w3.org/2000/svg">
<path d="M31.5 13.5C32.3284 13.5 33 12.8284 33 12C33 11.1716 32.3284 10.5 31.5 10.5V13.5ZM0.43934 10.9393C-0.146447 11.5251 -0.146447 12.4749 0.43934 13.0607L9.98528 22.6066C10.5711 23.1924 11.5208 23.1924 12.1066 22.6066C12.6924 22.0208 12.6924 21.0711 12.1066 20.4853L3.62132 12L12.1066 3.51472C12.6924 2.92893 12.6924 1.97918 12.1066 1.3934C11.5208 0.807612 10.5711 0.807612 9.98528 1.3934L0.43934 10.9393ZM31.5 10.5L1.5 10.5V13.5L31.5 13.5V10.5Z" fill="white"/>
</svg>
