<svg width="360" height="134" viewBox="0 0 360 134" fill="none" xmlns="http://www.w3.org/2000/svg">
<g clip-path="url(#clip0_113_3)">
<path d="M0 20.8285C14 3.32849 33 3.32849 45.5 15.8285C57 7.82849 70 14.8285 70 26.3285C86.5 24.3285 96.5 35.3285 95 49.8285M1.5 122.328H13M13 133.828V92.8285H57.5V128.828H132V110.828H181.5M181.5 132.328V65.8285H224C224 85.1823 224 98.2933 224 114.328M224 133.328C224 126.322 224 120.134 224 114.328M224 114.328H247.5V133.328M176.5 60.8285C176.5 43.8285 187 37.3285 201.5 39.8285C208 18.8285 231.5 13.8285 247.5 28.3285C257.5 21.3285 268 25.3285 270.5 38.3285C284.5 36.3285 294 45.3285 293.5 60.8285M269.5 79.8285C286 40.3285 323 32.3285 355 58.8285C357.515 55.6574 359.5 54.8285 362 58.8285M197.5 28.3285C184.5 26.3285 178 19.3285 182.5 7.82849C159 18.8285 179 46.3285 197.5 28.3285Z" stroke="black"/>
</g>
<defs>
<clipPath id="clip0_113_3">
<rect width="360" height="134" fill="white"/>
</clipPath>
</defs>
</svg>
