<svg width="200" height="200" viewBox="0 0 200 200" fill="none" xmlns="http://www.w3.org/2000/svg">
<path d="M130.214 128.357H71.2143V131.643H130.214V128.357Z" fill="#374957" stroke="#374957"/>
<path d="M151.643 88.3571H48.3571V93.0714H151.643V88.3571Z" fill="#374957" stroke="#374957"/>
<path d="M151.643 79.7857H48.3571V83.0714H151.643V79.7857Z" fill="#374957" stroke="#374957"/>
<path d="M101.643 91.2143H98.3571V128.786H101.643V91.2143Z" fill="#374957" stroke="#374957"/>
<path d="M122.968 93.4816L119.766 92.7425L111.314 129.351L114.516 130.09L122.968 93.4816Z" fill="#374957" stroke="#374957"/>
<path d="M79.9092 92.7789L76.7077 93.518L85.1594 130.126L88.3609 129.387L79.9092 92.7789Z" fill="#374957" stroke="#374957"/>
<path d="M145.164 92.2242L142.107 91.02L127.077 129.177L130.134 130.381L145.164 92.2242Z" fill="#374957" stroke="#374957"/>
<path d="M58.7055 91.3628L55.6484 92.567L70.6788 130.724L73.7359 129.52L58.7055 91.3628Z" fill="#374957" stroke="#374957"/>
<path d="M89.0416 66.2726L86.4349 64.2724L74.2726 80.1226L76.8793 82.1229L89.0416 66.2726Z" fill="#374957" stroke="#374957"/>
<path d="M90.7143 65.9286C94.3831 65.9286 97.3572 62.9545 97.3572 59.2857C97.3572 55.617 94.3831 52.6429 90.7143 52.6429C87.0456 52.6429 84.0715 55.617 84.0715 59.2857C84.0715 62.9545 87.0456 65.9286 90.7143 65.9286Z" fill="#374957" stroke="#374957"/>
<path d="M112.594 64.2725L109.987 66.2727L122.149 82.123L124.756 80.1227L112.594 64.2725Z" fill="#374957" stroke="#374957"/>
<path d="M109.286 65.9286C112.955 65.9286 115.929 62.9545 115.929 59.2857C115.929 55.617 112.955 52.6429 109.286 52.6429C105.617 52.6429 102.643 55.617 102.643 59.2857C102.643 62.9545 105.617 65.9286 109.286 65.9286Z" fill="#374957" stroke="#374957"/>
<path d="M100.346 3.93933C99.7606 3.35354 98.8108 3.35354 98.2251 3.93933L88.6791 13.4853C88.0933 14.071 88.0933 15.0208 88.6791 15.6066C89.2649 16.1924 90.2146 16.1924 90.8004 15.6066L99.2857 7.12131L107.771 15.6066C108.357 16.1924 109.307 16.1924 109.892 15.6066C110.478 15.0208 110.478 14.071 109.892 13.4853L100.346 3.93933ZM100.786 26.4285V4.99999H97.7857V26.4285H100.786Z" fill="#374957"/>
<path d="M101.643 32.6428H98.3571V35.9285H101.643V32.6428Z" fill="#374957" stroke="#374957"/>
<path d="M101.643 41.2143H98.3571V44.5H101.643V41.2143Z" fill="#374957" stroke="#374957"/>
<path d="M169.123 33.1967C169.137 32.3684 168.478 31.6852 167.649 31.6707L154.151 31.4351C153.323 31.4207 152.64 32.0804 152.625 32.9087C152.611 33.737 153.271 34.4202 154.099 34.4347L166.097 34.6441L165.888 46.6423C165.873 47.4706 166.533 48.1538 167.361 48.1682C168.19 48.1827 168.873 47.5229 168.887 46.6946L169.123 33.1967ZM153.251 49.135L168.665 34.2495L166.581 32.0915L151.167 46.977L153.251 49.135Z" fill="#374957"/>
<path d="M149.375 54.0684L147.093 51.7049L144.73 53.9874L147.012 56.3509L149.375 54.0684Z" fill="#374957" stroke="#374957"/>
<path d="M143.21 60.0227L140.928 57.6591L138.564 59.9415L140.847 62.3051L143.21 60.0227Z" fill="#374957" stroke="#374957"/>
<path d="M196.061 100.346C196.647 99.7606 196.647 98.8108 196.061 98.2251L186.515 88.6791C185.929 88.0933 184.979 88.0933 184.394 88.6791C183.808 89.2649 183.808 90.2146 184.394 90.8004L192.879 99.2857L184.394 107.771C183.808 108.357 183.808 109.307 184.394 109.892C184.979 110.478 185.929 110.478 186.515 109.892L196.061 100.346ZM173.572 100.786H195V97.7857H173.572V100.786Z" fill="#374957"/>
<path d="M167.357 101.643V98.3571H164.071V101.643H167.357Z" fill="#374957" stroke="#374957"/>
<path d="M158.786 101.643V98.3571H155.5V101.643H158.786Z" fill="#374957" stroke="#374957"/>
<path d="M167.319 170.697C168.144 170.762 168.867 170.145 168.932 169.319L169.991 155.86C170.056 155.035 169.439 154.312 168.613 154.247C167.787 154.182 167.065 154.799 167 155.625L166.059 167.588L154.096 166.647C153.27 166.582 152.547 167.198 152.482 168.024C152.417 168.85 153.034 169.572 153.86 169.637L167.319 170.697ZM152.379 153.881L166.296 170.175L168.577 168.227L154.66 151.933L152.379 153.881Z" fill="#374957"/>
<path d="M147.692 149.712L150.19 147.578L148.056 145.08L145.558 147.213L147.692 149.712Z" fill="#374957" stroke="#374957"/>
<path d="M142.125 143.195L144.623 141.061L142.489 138.563L139.991 140.696L142.125 143.195Z" fill="#374957" stroke="#374957"/>
<path d="M99.6536 196.061C100.239 196.647 101.189 196.647 101.775 196.061L111.321 186.515C111.907 185.929 111.907 184.979 111.321 184.393C110.735 183.808 109.785 183.808 109.2 184.393L100.714 192.879L92.229 184.393C91.6432 183.808 90.6935 183.808 90.1077 184.393C89.5219 184.979 89.5219 185.929 90.1077 186.515L99.6536 196.061ZM99.2143 173.572V195H102.214V173.572H99.2143Z" fill="#374957"/>
<path d="M98.3573 167.357H101.643V164.071H98.3573V167.357Z" fill="#374957" stroke="#374957"/>
<path d="M98.3573 158.786H101.643V155.5H98.3573V158.786Z" fill="#374957" stroke="#374957"/>
<path d="M30.0683 167.543C30.0611 168.371 30.7268 169.049 31.5552 169.056L45.0547 169.174C45.8831 169.181 46.5605 168.515 46.5677 167.687C46.5749 166.859 45.9092 166.181 45.0808 166.174L33.0813 166.069L33.186 154.07C33.1932 153.241 32.5276 152.564 31.6992 152.557C30.8708 152.549 30.1934 153.215 30.1861 154.043L30.0683 167.543ZM45.8008 151.467L30.5169 166.486L32.6196 168.626L47.9035 153.606L45.8008 151.467Z" fill="#374957"/>
<path d="M49.6324 146.499L51.9354 148.843L54.2789 146.54L51.9759 144.196L49.6324 146.499Z" fill="#374957" stroke="#374957"/>
<path d="M55.7459 140.491L58.0489 142.835L60.3924 140.532L58.0894 138.188L55.7459 140.491Z" fill="#374957" stroke="#374957"/>
<path d="M3.9394 99.6536C3.35361 100.239 3.35361 101.189 3.9394 101.775L13.4853 111.321C14.0711 111.907 15.0208 111.907 15.6066 111.321C16.1924 110.735 16.1924 109.785 15.6066 109.2L7.12138 100.714L15.6066 92.229C16.1924 91.6432 16.1924 90.6935 15.6066 90.1077C15.0208 89.5219 14.0711 89.5219 13.4853 90.1077L3.9394 99.6536ZM26.4286 99.2143H5.00006V102.214H26.4286V99.2143Z" fill="#374957"/>
<path d="M32.6428 98.3573V101.643H35.9285V98.3573H32.6428Z" fill="#374957" stroke="#374957"/>
<path d="M41.2143 98.3573V101.643H44.5V98.3573H41.2143Z" fill="#374957" stroke="#374957"/>
<path d="M31.6805 31.2698C30.8522 31.2842 30.1925 31.9674 30.2069 32.7957L30.4425 46.2937C30.457 47.122 31.1402 47.7817 31.9685 47.7673C32.7968 47.7528 33.4565 47.0696 33.4421 46.2413L33.2326 34.2432L45.2308 34.0337C46.0591 34.0193 46.7189 33.3361 46.7044 32.5078C46.6899 31.6795 46.0068 31.0197 45.1785 31.0342L31.6805 31.2698ZM48.1631 46.5761L32.7487 31.6906L30.6647 33.8486L46.0791 48.7341L48.1631 46.5761Z" fill="#374957"/>
<path d="M53.2286 50.2764L50.9462 52.6399L53.3097 54.9223L55.5922 52.5588L53.2286 50.2764Z" fill="#374957" stroke="#374957"/>
<path d="M59.3944 56.2306L57.112 58.5941L59.4755 60.8765L61.758 58.513L59.3944 56.2306Z" fill="#374957" stroke="#374957"/>
</svg>
