<svg width="171" height="107" viewBox="0 0 171 107" fill="none" xmlns="http://www.w3.org/2000/svg">
<path d="M38.9264 106.8C31.4264 106.8 24.7764 105.2 18.9764 102C13.1764 98.8 8.62637 94.3 5.32637 88.5C2.02637 82.7 0.376368 76 0.376368 68.4C0.376368 60.7 1.97637 53.85 5.17637 47.85C8.47637 41.85 12.9764 37.2 18.6764 33.9C24.4764 30.5 31.2764 28.8 39.0764 28.8C46.3764 28.8 52.8264 30.4 58.4264 33.6C64.0264 36.8 68.3764 41.2 71.4764 46.8C74.6764 52.3 76.2764 58.45 76.2764 65.25C76.2764 66.35 76.2264 67.5 76.1264 68.7C76.1264 69.9 76.0764 71.15 75.9764 72.45H19.4264C19.8264 78.25 21.8264 82.8 25.4264 86.1C29.1264 89.4 33.5764 91.05 38.7764 91.05C42.6764 91.05 45.9264 90.2 48.5264 88.5C51.2264 86.7 53.2264 84.4 54.5264 81.6H74.0264C72.6264 86.3 70.2764 90.6 66.9764 94.5C63.7764 98.3 59.7764 101.3 54.9764 103.5C50.2764 105.7 44.9264 106.8 38.9264 106.8ZM39.0764 44.4C34.3764 44.4 30.2264 45.75 26.6264 48.45C23.0264 51.05 20.7264 55.05 19.7264 60.45H56.7764C56.4764 55.55 54.6764 51.65 51.3764 48.75C48.0764 45.85 43.9764 44.4 39.0764 44.4Z" fill="white"/>
<path d="M86.2748 105L104.875 -7.15256e-06H170.425L167.575 15.15H121.375L116.125 45H153.175L150.475 59.7H113.425L105.475 105H86.2748Z" fill="#FFC107"/>
<path d="M18.9764 102L19.4594 101.124L19.4594 101.124L18.9764 102ZM5.17637 47.85L4.30008 47.368L4.29401 47.3794L5.17637 47.85ZM18.6764 33.9L19.1774 34.7654L19.1821 34.7627L18.6764 33.9ZM58.4264 33.6L57.9302 34.4682L57.9302 34.4682L58.4264 33.6ZM71.4764 46.8L70.6015 47.2843L70.6066 47.2937L70.612 47.3029L71.4764 46.8ZM76.1264 68.7L75.1298 68.617L75.1264 68.6584V68.7H76.1264ZM75.9764 72.45V73.45H76.9024L76.9734 72.5267L75.9764 72.45ZM19.4264 72.45V71.45H18.355L18.4287 72.5188L19.4264 72.45ZM25.4264 86.1L24.7506 86.8372L24.7608 86.8463L25.4264 86.1ZM48.5264 88.5L49.0736 89.337L49.0811 89.332L48.5264 88.5ZM54.5264 81.6V80.6H53.8881L53.6194 81.1789L54.5264 81.6ZM74.0264 81.6L74.9848 81.8855L75.3677 80.6H74.0264V81.6ZM66.9764 94.5L66.213 93.8541L66.2115 93.8559L66.9764 94.5ZM54.9764 103.5L54.5597 102.591L54.5524 102.594L54.9764 103.5ZM26.6264 48.45L27.2119 49.2607L27.2192 49.2554L27.2264 49.25L26.6264 48.45ZM19.7264 60.45L18.7431 60.2679L18.5242 61.45H19.7264V60.45ZM56.7764 60.45V61.45H57.8395L57.7745 60.3889L56.7764 60.45ZM51.3764 48.75L52.0365 47.9988L52.0365 47.9988L51.3764 48.75ZM38.9264 105.8C31.5727 105.8 25.0929 104.233 19.4594 101.124L18.4933 102.876C24.4599 106.167 31.2801 107.8 38.9264 107.8V105.8ZM19.4594 101.124C13.822 98.0141 9.40511 93.6466 6.19553 88.0055L4.4572 88.9945C7.84762 94.9534 12.5307 99.5859 18.4933 102.876L19.4594 101.124ZM6.19553 88.0055C2.99262 82.3761 1.37637 75.8511 1.37637 68.4H-0.623632C-0.623632 76.1489 1.06012 83.0239 4.4572 88.9945L6.19553 88.0055ZM1.37637 68.4C1.37637 60.8422 2.94569 54.1575 6.05872 48.3206L4.29401 47.3794C1.00705 53.5425 -0.623632 60.5578 -0.623632 68.4H1.37637ZM6.05258 48.3319C9.26844 42.4849 13.6415 37.9704 19.1774 34.7654L18.1753 33.0346C12.3113 36.4296 7.6843 41.2151 4.30015 47.3681L6.05258 48.3319ZM19.1821 34.7627C24.8056 31.4661 31.4253 29.8 39.0764 29.8V27.8C31.1274 27.8 24.1471 29.5338 18.1706 33.0373L19.1821 34.7627ZM39.0764 29.8C46.2257 29.8 52.5004 31.3655 57.9302 34.4682L58.9225 32.7318C53.1524 29.4345 46.527 27.8 39.0764 27.8V29.8ZM57.9302 34.4682C63.3725 37.5781 67.5909 41.8459 70.6015 47.2843L72.3513 46.3157C69.1618 40.5541 64.6803 36.0219 58.9225 32.7318L57.9302 34.4682ZM70.612 47.3029C73.7171 52.6397 75.2764 58.6141 75.2764 65.25H77.2764C77.2764 58.2859 75.6357 51.9603 72.3407 46.2971L70.612 47.3029ZM75.2764 65.25C75.2764 66.3198 75.2277 67.442 75.1298 68.617L77.1229 68.783C77.225 67.558 77.2764 66.3802 77.2764 65.25H75.2764ZM75.1264 68.7C75.1264 69.8723 75.0775 71.0967 74.9793 72.3733L76.9734 72.5267C77.0752 71.2033 77.1264 69.9277 77.1264 68.7H75.1264ZM75.9764 71.45H19.4264V73.45H75.9764V71.45ZM18.4287 72.5188C18.8428 78.5227 20.9265 83.3317 24.7506 86.8372L26.1021 85.3628C22.7263 82.2683 20.8099 77.9773 20.424 72.3812L18.4287 72.5188ZM24.7608 86.8463C28.6535 90.3182 33.344 92.05 38.7764 92.05V90.05C33.8087 90.05 29.5992 88.4818 26.092 85.3537L24.7608 86.8463ZM38.7764 92.05C42.8212 92.05 46.2739 91.1676 49.0736 89.337L47.9791 87.663C45.5789 89.2324 42.5316 90.05 38.7764 90.05V92.05ZM49.0811 89.332C51.9259 87.4355 54.0519 84.9966 55.4334 82.0211L53.6194 81.1789C52.4008 83.8034 50.5269 85.9645 47.9717 87.6679L49.0811 89.332ZM54.5264 82.6H74.0264V80.6H54.5264V82.6ZM73.068 81.3145C71.709 85.8767 69.4276 90.055 66.213 93.8541L67.7398 95.1459C71.1251 91.145 73.5437 86.7233 74.9848 81.8855L73.068 81.3145ZM66.2115 93.8559C63.1125 97.5359 59.2341 100.449 54.5597 102.591L55.393 104.409C60.3186 102.151 64.4403 99.0641 67.7413 95.1441L66.2115 93.8559ZM54.5524 102.594C50.0043 104.723 44.8027 105.8 38.9264 105.8V107.8C45.0501 107.8 50.5484 106.677 55.4003 104.406L54.5524 102.594ZM39.0764 43.4C34.1703 43.4 29.8075 44.8141 26.0264 47.65L27.2264 49.25C30.6452 46.6859 34.5824 45.4 39.0764 45.4V43.4ZM26.0409 47.6393C22.1857 50.4236 19.7783 54.678 18.7431 60.2679L20.7096 60.6321C21.6745 55.422 23.8671 51.6764 27.2119 49.2607L26.0409 47.6393ZM19.7264 61.45H56.7764V59.45H19.7264V61.45ZM57.7745 60.3889C57.4603 55.2572 55.5609 51.096 52.0365 47.9988L50.7163 49.5012C53.7918 52.2039 55.4924 55.8428 55.7782 60.5111L57.7745 60.3889ZM52.0365 47.9988C48.5326 44.9196 44.1892 43.4 39.0764 43.4V45.4C43.7635 45.4 47.6202 46.7803 50.7163 49.5012L52.0365 47.9988ZM86.2748 105L85.2901 104.826L85.0821 106H86.2748V105ZM104.875 -7.15256e-06V-1.00001H104.036L103.89 -0.174434L104.875 -7.15256e-06ZM170.425 -7.15256e-06L171.408 0.184869L171.63 -1.00001H170.425V-7.15256e-06ZM167.575 15.15V16.15H168.404L168.558 15.3349L167.575 15.15ZM121.375 15.15V14.15H120.535L120.39 14.9768L121.375 15.15ZM116.125 45L115.14 44.8268L114.934 46H116.125V45ZM153.175 45L154.158 45.1807L154.375 44H153.175V45ZM150.475 59.7V60.7H151.308L151.458 59.8806L150.475 59.7ZM113.425 59.7V58.7H112.585L112.44 59.5271L113.425 59.7ZM105.475 105V106H106.315L106.46 105.173L105.475 105ZM87.2595 105.174L105.859 0.17442L103.89 -0.174434L85.2901 104.826L87.2595 105.174ZM104.875 0.999993H170.425V-1.00001H104.875V0.999993ZM169.442 -0.184883L166.592 14.9651L168.558 15.3349L171.408 0.184869L169.442 -0.184883ZM167.575 14.15H121.375V16.15H167.575V14.15ZM120.39 14.9768L115.14 44.8268L117.11 45.1732L122.36 15.3232L120.39 14.9768ZM116.125 46H153.175V44H116.125V46ZM152.191 44.8193L149.491 59.5193L151.458 59.8806L154.158 45.1807L152.191 44.8193ZM150.475 58.7H113.425V60.7H150.475V58.7ZM112.44 59.5271L104.49 104.827L106.46 105.173L114.41 59.8729L112.44 59.5271ZM105.475 104H86.2748V106H105.475V104Z" fill="black"/>
</svg>
