<svg width="258" height="256" viewBox="0 0 258 256" fill="none" xmlns="http://www.w3.org/2000/svg">
<path d="M187.909 33.0149L171.459 21.4998C172.721 19.991 173.877 18.6387 174.984 17.3873C179.013 12.8352 182.399 9.61727 187.909 5.04971C191.611 3.48022 191.586 4.80136 191.199 7.51722C196.957 1.75969 200.247 4.22717 194.489 10.8072C198.602 7.51719 200.247 9.9847 197.779 14.0973C201.069 11.6297 202.714 14.9197 201.069 17.3873L187.909 33.0149Z" fill="white"/>
<path d="M197.779 14.0973C201.069 11.6297 202.714 14.9197 201.069 17.3873L187.909 33.0149L171.459 21.4998C172.721 19.991 173.877 18.6387 174.984 17.3873M197.779 14.0973L192.022 19.8548M197.779 14.0973C200.247 9.9847 198.602 7.51719 194.489 10.8072M194.489 10.8072L190.377 14.9198M194.489 10.8072C200.247 4.22717 196.957 1.75969 191.199 7.51722M191.199 7.51722L187.909 10.8072M191.199 7.51722C191.586 4.80136 191.611 3.48022 187.909 5.04971C182.399 9.61727 179.013 12.8352 174.984 17.3873M174.984 17.3873L182.974 12.4522C186.664 9.69426 187.512 13.0018 185.442 14.9197L180.507 19.8548C182.659 21.434 183.048 22.7814 182.974 25.6123" stroke="black"/>
<path d="M3.6683 139.181V132.601H32.456V139.181H3.6683Z" fill="#FFC107"/>
<path d="M169.814 19.0951L166.524 23.2076L187.087 38.8352L190.377 34.7227L169.814 19.0951Z" fill="#FFC107"/>
<path d="M42.326 212.384L71.1137 199.224L86.7413 226.366C79.9354 225.827 76.4781 226.936 71.1137 232.124C76.0531 242.625 75.7118 247.489 64.5336 252.686L42.326 212.384Z" fill="#FFC107"/>
<path d="M213.407 246.929L193.667 219.786L219.164 201.691C225.412 209.518 228.356 213.048 230.68 214.851C242.145 208.51 247.302 209.027 253.71 218.964L213.407 246.929Z" fill="#FFC107"/>
<path d="M3.6683 139.181V132.601H32.456V139.181H3.6683Z" stroke="black"/>
<path d="M169.814 19.0951L166.524 23.2076L187.087 38.8352L190.377 34.7227L169.814 19.0951Z" stroke="black"/>
<path d="M42.326 212.384L71.1137 199.224L86.7413 226.366C79.9354 225.827 76.4781 226.936 71.1137 232.124C76.0531 242.625 75.7118 247.489 64.5336 252.686L42.326 212.384Z" stroke="black"/>
<path d="M213.407 246.929L193.667 219.786L219.164 201.691C225.412 209.518 228.356 213.048 230.68 214.851C242.145 208.51 247.302 209.027 253.71 218.964L213.407 246.929Z" stroke="black"/>
<path d="M231.502 194.289C197.314 147.037 185.527 103.26 131.979 101.346H101.546C132.822 135.146 155.028 170.869 191.199 222.254L231.502 194.289Z" fill="#D9D9D9" stroke="black"/>
<path d="M186.9 38.8352L166.338 23.2076L147.42 46.2377H111.23C123.568 26.4976 109.585 0.99995 87.3773 1C61.057 1 50.365 27.3201 64.3471 46.2377H47.075L9.23971 81.6054C-0.322709 86.6498 1.79229 104.678 3.48218 132.601H32.2705V99.7005L54.4781 79.1379V101.345H132.616L129.325 73.3804C144.693 74.5412 154.114 76.2053 163.048 69.2679L186.9 38.8352Z" fill="#0D47A1" stroke="black"/>
<path d="M106.481 46.2376H67.8232C62.7325 19.7993 66.1787 5.11248 87.5633 3.46732C107.165 4.98028 121.14 26.3596 106.481 46.2376Z" fill="#FFC107" stroke="black"/>
<path d="M55.4856 130.956C55.485 107.103 55.4856 101.346 55.4856 101.346H105.659C104.977 114.663 138.427 126.426 165.702 143.293C196.134 155.631 201.892 175.371 182.974 190.176L90.0314 237.059L67.0013 195.934L112.238 172.904C86.0296 159.068 55.4862 154.808 55.4856 130.956Z" fill="white"/>
<path d="M6.13588 148.228V139.181H25.876V153.163L14.3609 164.678C10.7835 165.384 9.7203 164.829 10.2484 161.388C6.45674 161.649 5.41349 160.874 6.13588 157.276C1.78923 157.378 0.439956 156.522 1.20085 152.341L6.13588 148.228Z" fill="white"/>
<path d="M6.13588 157.276C1.78923 157.378 0.439956 156.522 1.20085 152.341L6.13588 148.228V139.181H25.876V153.163L14.3609 164.678C10.7835 165.384 9.7203 164.829 10.2484 161.388C6.45674 161.649 5.41349 160.874 6.13588 157.276ZM6.13588 157.276L11.0709 153.163M11.8934 159.743L16.0059 156.453M55.4856 101.346C55.4856 101.346 55.485 107.103 55.4856 130.956C55.4862 154.808 86.0296 159.068 112.238 172.904L67.0013 195.934L90.0314 237.059L182.974 190.176C201.892 175.371 196.134 155.631 165.702 143.293C138.427 126.426 104.977 114.663 105.659 101.346H55.4856Z" stroke="black"/>
<path d="M37.391 214.851L42.326 212.384L64.5337 252.687L59.5986 255.154L37.391 214.851Z" fill="#0D47A1"/>
<path d="M217.52 252.687L213.407 246.929L253.71 218.964L257 223.076L217.52 252.687Z" fill="#0D47A1"/>
<path d="M37.391 214.851L42.326 212.384L64.5337 252.687L59.5986 255.154L37.391 214.851Z" stroke="black"/>
<path d="M217.52 252.687L213.407 246.929L253.71 218.964L257 223.076L217.52 252.687Z" stroke="black"/>
<path d="M99.0789 22.3851C97.4339 21.5627 94.1439 14.16 92.4989 13.3375C90.8538 12.515 92.6327 11.6395 95.7889 12.515C98.9451 13.3906 102.369 18.2726 102.369 20.7401C102.369 23.2075 100.724 23.2075 99.0789 22.3851Z" fill="white"/>
</svg>
