<svg width="230" height="40" viewBox="0 0 230 40" fill="none" xmlns="http://www.w3.org/2000/svg">
<g filter="url(#filter0_d_1_25)">
<path d="M0.521813 35V1.4H22.4578V6.344H6.66581V15.56H21.0178V20.36H6.66581V30.056H22.4578V35H0.521813ZM36.3358 35.576C34.2878 35.576 32.6078 35.256 31.2958 34.616C29.9838 33.944 29.0078 33.064 28.3678 31.976C27.7278 30.888 27.4078 29.688 27.4078 28.376C27.4078 26.168 28.2718 24.376 29.9998 23C31.7278 21.624 34.3198 20.936 37.7758 20.936H43.8238V20.36C43.8238 18.728 43.3598 17.528 42.4318 16.76C41.5038 15.992 40.3518 15.608 38.9758 15.608C37.7278 15.608 36.6398 15.912 35.7118 16.52C34.7838 17.096 34.2078 17.96 33.9838 19.112H27.9838C28.1438 17.384 28.7198 15.88 29.7118 14.6C30.7358 13.32 32.0478 12.344 33.6478 11.672C35.2478 10.968 37.0398 10.616 39.0238 10.616C42.4158 10.616 45.0878 11.464 47.0398 13.16C48.9918 14.856 49.9678 17.256 49.9678 20.36V35H44.7358L44.1598 31.16C43.4558 32.44 42.4638 33.496 41.1838 34.328C39.9358 35.16 38.3198 35.576 36.3358 35.576ZM37.7278 30.776C39.4878 30.776 40.8478 30.2 41.8078 29.048C42.7998 27.896 43.4238 26.472 43.6798 24.776H38.4478C36.8158 24.776 35.6478 25.08 34.9438 25.688C34.2398 26.264 33.8878 26.984 33.8878 27.848C33.8878 28.776 34.2398 29.496 34.9438 30.008C35.6478 30.52 36.5758 30.776 37.7278 30.776ZM65.6709 35.576C63.5589 35.576 61.7029 35.24 60.1029 34.568C58.5029 33.864 57.2229 32.904 56.2629 31.688C55.3029 30.472 54.7269 29.064 54.5349 27.464H60.7269C60.9189 28.392 61.4309 29.192 62.2629 29.864C63.1269 30.504 64.2309 30.824 65.5749 30.824C66.9189 30.824 67.8949 30.552 68.5029 30.008C69.1429 29.464 69.4629 28.84 69.4629 28.136C69.4629 27.112 69.0149 26.424 68.1189 26.072C67.2229 25.688 65.9749 25.32 64.3749 24.968C63.3509 24.744 62.3109 24.472 61.2549 24.152C60.1989 23.832 59.2229 23.432 58.3269 22.952C57.4629 22.44 56.7589 21.8 56.2149 21.032C55.6709 20.232 55.3989 19.256 55.3989 18.104C55.3989 15.992 56.2309 14.216 57.8949 12.776C59.5909 11.336 61.9589 10.616 64.9989 10.616C67.8149 10.616 70.0549 11.272 71.7189 12.584C73.4149 13.896 74.4229 15.704 74.7429 18.008H68.9349C68.5829 16.248 67.2549 15.368 64.9509 15.368C63.7989 15.368 62.9029 15.592 62.2629 16.04C61.6549 16.488 61.3509 17.048 61.3509 17.72C61.3509 18.424 61.8149 18.984 62.7429 19.4C63.6709 19.816 64.9029 20.2 66.4389 20.552C68.1029 20.936 69.6229 21.368 70.9989 21.848C72.4069 22.296 73.5269 22.984 74.3589 23.912C75.1909 24.808 75.6069 26.104 75.6069 27.8C75.6389 29.272 75.2549 30.6 74.4549 31.784C73.6549 32.968 72.5029 33.896 70.9989 34.568C69.4949 35.24 67.7189 35.576 65.6709 35.576ZM92.6177 35.576C90.2177 35.576 88.0897 35.064 86.2337 34.04C84.3777 33.016 82.9217 31.576 81.8657 29.72C80.8097 27.864 80.2817 25.72 80.2817 23.288C80.2817 20.824 80.7937 18.632 81.8177 16.712C82.8737 14.792 84.3137 13.304 86.1377 12.248C87.9937 11.16 90.1697 10.616 92.6657 10.616C95.0017 10.616 97.0657 11.128 98.8577 12.152C100.65 13.176 102.042 14.584 103.034 16.376C104.058 18.136 104.57 20.104 104.57 22.28C104.57 22.632 104.554 23 104.522 23.384C104.522 23.768 104.506 24.168 104.474 24.584H86.3777C86.5057 26.44 87.1457 27.896 88.2977 28.952C89.4817 30.008 90.9057 30.536 92.5697 30.536C93.8177 30.536 94.8577 30.264 95.6897 29.72C96.5537 29.144 97.1937 28.408 97.6097 27.512H103.85C103.402 29.016 102.65 30.392 101.594 31.64C100.57 32.856 99.2897 33.816 97.7537 34.52C96.2497 35.224 94.5377 35.576 92.6177 35.576ZM92.6657 15.608C91.1617 15.608 89.8337 16.04 88.6817 16.904C87.5297 17.736 86.7937 19.016 86.4737 20.744H98.3297C98.2337 19.176 97.6577 17.928 96.6017 17C95.5457 16.072 94.2337 15.608 92.6657 15.608ZM143.961 35.576C141.913 35.576 140.233 35.256 138.921 34.616C137.609 33.944 136.633 33.064 135.993 31.976C135.353 30.888 135.033 29.688 135.033 28.376C135.033 26.168 135.897 24.376 137.625 23C139.353 21.624 141.945 20.936 145.401 20.936H151.449V20.36C151.449 18.728 150.985 17.528 150.057 16.76C149.129 15.992 147.977 15.608 146.601 15.608C145.353 15.608 144.265 15.912 143.337 16.52C142.409 17.096 141.833 17.96 141.609 19.112H135.609C135.769 17.384 136.345 15.88 137.337 14.6C138.361 13.32 139.673 12.344 141.273 11.672C142.873 10.968 144.665 10.616 146.649 10.616C150.041 10.616 152.713 11.464 154.665 13.16C156.617 14.856 157.593 17.256 157.593 20.36V35H152.361L151.785 31.16C151.081 32.44 150.089 33.496 148.809 34.328C147.561 35.16 145.945 35.576 143.961 35.576ZM145.353 30.776C147.113 30.776 148.473 30.2 149.433 29.048C150.425 27.896 151.049 26.472 151.305 24.776H146.073C144.441 24.776 143.273 25.08 142.569 25.688C141.865 26.264 141.513 26.984 141.513 27.848C141.513 28.776 141.865 29.496 142.569 30.008C143.273 30.52 144.201 30.776 145.353 30.776ZM163.456 35V0.439999H169.6V35H163.456ZM184.086 35.576C182.038 35.576 180.358 35.256 179.046 34.616C177.734 33.944 176.758 33.064 176.118 31.976C175.478 30.888 175.158 29.688 175.158 28.376C175.158 26.168 176.022 24.376 177.75 23C179.478 21.624 182.07 20.936 185.526 20.936H191.574V20.36C191.574 18.728 191.11 17.528 190.182 16.76C189.254 15.992 188.102 15.608 186.726 15.608C185.478 15.608 184.39 15.912 183.462 16.52C182.534 17.096 181.958 17.96 181.734 19.112H175.734C175.894 17.384 176.47 15.88 177.462 14.6C178.486 13.32 179.798 12.344 181.398 11.672C182.998 10.968 184.79 10.616 186.774 10.616C190.166 10.616 192.838 11.464 194.79 13.16C196.742 14.856 197.718 17.256 197.718 20.36V35H192.486L191.91 31.16C191.206 32.44 190.214 33.496 188.934 34.328C187.686 35.16 186.07 35.576 184.086 35.576ZM185.478 30.776C187.238 30.776 188.598 30.2 189.558 29.048C190.55 27.896 191.174 26.472 191.43 24.776H186.198C184.566 24.776 183.398 25.08 182.694 25.688C181.99 26.264 181.638 26.984 181.638 27.848C181.638 28.776 181.99 29.496 182.694 30.008C183.398 30.52 184.326 30.776 185.478 30.776ZM203.581 35V0.439999H209.725V20.84L218.173 11.192H225.469L215.725 22.04L227.053 35H219.373L209.725 23.048V35H203.581Z" fill="white"/>
<path d="M107.769 35L113.721 1.4H134.697L133.785 6.248H119.001L117.321 15.8H129.177L128.313 20.504H116.457L113.913 35H107.769Z" fill="#FFC107"/>
<path d="M0.521813 35H-0.478187V36H0.521813V35ZM0.521813 1.4V0.399998H-0.478187V1.4H0.521813ZM22.4578 1.4H23.4578V0.399998H22.4578V1.4ZM22.4578 6.344V7.344H23.4578V6.344H22.4578ZM6.66581 6.344V5.344H5.66581V6.344H6.66581ZM6.66581 15.56H5.66581V16.56H6.66581V15.56ZM21.0178 15.56H22.0178V14.56H21.0178V15.56ZM21.0178 20.36V21.36H22.0178V20.36H21.0178ZM6.66581 20.36V19.36H5.66581V20.36H6.66581ZM6.66581 30.056H5.66581V31.056H6.66581V30.056ZM22.4578 30.056H23.4578V29.056H22.4578V30.056ZM22.4578 35V36H23.4578V35H22.4578ZM1.52181 35V1.4H-0.478187V35H1.52181ZM0.521813 2.4H22.4578V0.399998H0.521813V2.4ZM21.4578 1.4V6.344H23.4578V1.4H21.4578ZM22.4578 5.344H6.66581V7.344H22.4578V5.344ZM5.66581 6.344V15.56H7.66581V6.344H5.66581ZM6.66581 16.56H21.0178V14.56H6.66581V16.56ZM20.0178 15.56V20.36H22.0178V15.56H20.0178ZM21.0178 19.36H6.66581V21.36H21.0178V19.36ZM5.66581 20.36V30.056H7.66581V20.36H5.66581ZM6.66581 31.056H22.4578V29.056H6.66581V31.056ZM21.4578 30.056V35H23.4578V30.056H21.4578ZM22.4578 34H0.521813V36H22.4578V34ZM31.2958 34.616L30.8399 35.506L30.8486 35.5105L30.8574 35.5148L31.2958 34.616ZM28.3678 31.976L27.5059 32.483L28.3678 31.976ZM29.9998 23L30.6227 23.7823L29.9998 23ZM43.8238 20.936V21.936H44.8238V20.936H43.8238ZM42.4318 16.76L43.0694 15.9896L42.4318 16.76ZM35.7118 16.52L36.2392 17.3696L36.2496 17.3632L36.2598 17.3565L35.7118 16.52ZM33.9838 19.112V20.112H34.8081L34.9654 19.3029L33.9838 19.112ZM27.9838 19.112L26.9881 19.0198L26.8869 20.112H27.9838V19.112ZM29.7118 14.6L28.9309 13.9753L28.9261 13.9813L28.9214 13.9874L29.7118 14.6ZM33.6478 11.672L34.035 12.594L34.0428 12.5907L34.0506 12.5873L33.6478 11.672ZM47.0398 13.16L46.3839 13.9149L47.0398 13.16ZM49.9678 35V36H50.9678V35H49.9678ZM44.7358 35L43.7469 35.1483L43.8746 36H44.7358V35ZM44.1598 31.16L45.1488 31.0117L44.7098 28.0851L43.2836 30.6781L44.1598 31.16ZM41.1838 34.328L40.6388 33.4895L40.6291 33.4959L41.1838 34.328ZM41.8078 29.048L41.05 28.3955L41.0448 28.4016L41.0396 28.4078L41.8078 29.048ZM43.6798 24.776L44.6686 24.9253L44.8421 23.776H43.6798V24.776ZM34.9438 25.688L35.577 26.462L35.5874 26.4535L35.5974 26.4448L34.9438 25.688ZM34.9438 30.008L35.532 29.1993L34.9438 30.008ZM36.3358 34.576C34.3824 34.576 32.8661 34.2694 31.7342 33.7172L30.8574 35.5148C32.3495 36.2426 34.1933 36.576 36.3358 36.576V34.576ZM31.7517 33.726C30.5798 33.1257 29.7583 32.3675 29.2297 31.469L27.5059 32.483C28.2574 33.7605 29.3878 34.7623 30.8399 35.506L31.7517 33.726ZM29.2297 31.469C28.6838 30.5409 28.4078 29.517 28.4078 28.376H26.4078C26.4078 29.859 26.7718 31.2351 27.5059 32.483L29.2297 31.469ZM28.4078 28.376C28.4078 26.4727 29.1329 24.9686 30.6227 23.7823L29.3769 22.2177C27.4107 23.7834 26.4078 25.8633 26.4078 28.376H28.4078ZM30.6227 23.7823C32.0983 22.6073 34.4258 21.936 37.7758 21.936V19.936C34.2138 19.936 31.3574 20.6407 29.3769 22.2177L30.6227 23.7823ZM37.7758 21.936H43.8238V19.936H37.7758V21.936ZM44.8238 20.936V20.36H42.8238V20.936H44.8238ZM44.8238 20.36C44.8238 18.5421 44.3012 17.009 43.0694 15.9896L41.7942 17.5304C42.4185 18.047 42.8238 18.9139 42.8238 20.36H44.8238ZM43.0694 15.9896C41.9368 15.0523 40.5496 14.608 38.9758 14.608V16.608C40.1541 16.608 41.0708 16.9317 41.7942 17.5304L43.0694 15.9896ZM38.9758 14.608C37.5582 14.608 36.2745 14.9559 35.1638 15.6835L36.2598 17.3565C37.0052 16.8681 37.8974 16.608 38.9758 16.608V14.608ZM35.1844 15.6704C34.0009 16.405 33.2749 17.5187 33.0022 18.9211L34.9654 19.3029C35.1407 18.4013 35.5667 17.787 36.2392 17.3696L35.1844 15.6704ZM33.9838 18.112H27.9838V20.112H33.9838V18.112ZM28.9796 19.2042C29.1233 17.6515 29.6352 16.3313 30.5022 15.2126L28.9214 13.9874C27.8044 15.4287 27.1643 17.1165 26.9881 19.0198L28.9796 19.2042ZM30.4927 15.2247C31.4062 14.0828 32.5797 13.2052 34.035 12.594L33.2606 10.75C31.5159 11.4828 30.0654 12.5572 28.9309 13.9753L30.4927 15.2247ZM34.0506 12.5873C35.5076 11.9462 37.1598 11.616 39.0238 11.616V9.616C36.9198 9.616 34.9881 9.98977 33.2451 10.7567L34.0506 12.5873ZM39.0238 11.616C42.2513 11.616 44.6643 12.4208 46.3839 13.9149L47.6957 12.4051C45.5113 10.5072 42.5804 9.616 39.0238 9.616V11.616ZM46.3839 13.9149C48.0736 15.3829 48.9678 17.482 48.9678 20.36H50.9678C50.9678 17.03 49.9101 14.3291 47.6957 12.4051L46.3839 13.9149ZM48.9678 20.36V35H50.9678V20.36H48.9678ZM49.9678 34H44.7358V36H49.9678V34ZM45.7248 34.8517L45.1488 31.0117L43.1709 31.3083L43.7469 35.1483L45.7248 34.8517ZM43.2836 30.6781C42.6626 31.8072 41.7872 32.7431 40.6388 33.4896L41.7288 35.1664C43.1404 34.2489 44.249 33.0728 45.036 31.6419L43.2836 30.6781ZM40.6291 33.4959C39.5907 34.1882 38.185 34.576 36.3358 34.576V36.576C38.4546 36.576 40.2809 36.1318 41.7385 35.16L40.6291 33.4959ZM37.7278 31.776C39.7273 31.776 41.3922 31.1088 42.576 29.6882L41.0396 28.4078C40.3034 29.2912 39.2483 29.776 37.7278 29.776V31.776ZM42.5656 29.7005C43.6957 28.3882 44.3882 26.7829 44.6686 24.9253L42.691 24.6267C42.4594 26.1611 41.9039 27.4038 41.05 28.3955L42.5656 29.7005ZM43.6798 23.776H38.4478V25.776H43.6798V23.776ZM38.4478 23.776C36.7397 23.776 35.2701 24.0849 34.2902 24.9312L35.5974 26.4448C36.0256 26.0751 36.8919 25.776 38.4478 25.776V23.776ZM34.3106 24.914C33.3885 25.6684 32.8878 26.6663 32.8878 27.848H34.8878C34.8878 27.3017 35.0911 26.8596 35.577 26.462L34.3106 24.914ZM32.8878 27.848C32.8878 29.0712 33.3735 30.1025 34.3556 30.8167L35.532 29.1993C35.1061 28.8895 34.8878 28.4808 34.8878 27.848H32.8878ZM34.3556 30.8167C35.2783 31.4877 36.4323 31.776 37.7278 31.776V29.776C36.7194 29.776 36.0174 29.5523 35.532 29.1993L34.3556 30.8167ZM60.1029 34.568L59.7002 35.4833L59.7079 35.4867L59.7157 35.49L60.1029 34.568ZM56.2629 31.688L55.4781 32.3076L56.2629 31.688ZM54.5349 27.464V26.464H53.4078L53.5421 27.5831L54.5349 27.464ZM60.7269 27.464L61.7062 27.2614L61.5412 26.464H60.7269V27.464ZM62.2629 29.864L61.6346 30.6419L61.6509 30.6551L61.6677 30.6676L62.2629 29.864ZM68.5029 30.008L67.8553 29.2461L67.8456 29.2543L67.8361 29.2628L68.5029 30.008ZM68.1189 26.072L67.725 26.9911L67.7391 26.9972L67.7533 27.0028L68.1189 26.072ZM64.3749 24.968L64.5898 23.9914L64.5886 23.9911L64.3749 24.968ZM61.2549 24.152L60.9649 25.109L61.2549 24.152ZM58.3269 22.952L57.8171 23.8123L57.8357 23.8233L57.8547 23.8335L58.3269 22.952ZM56.2149 21.032L55.388 21.5943L55.3934 21.6022L55.3989 21.61L56.2149 21.032ZM57.8949 12.776L57.2477 12.0137L57.2406 12.0198L57.8949 12.776ZM71.7189 12.584L71.0998 13.3693L71.1071 13.375L71.7189 12.584ZM74.7429 18.008V19.008H75.8914L75.7334 17.8704L74.7429 18.008ZM68.9349 18.008L67.9544 18.2041L68.1151 19.008H68.9349V18.008ZM62.2629 16.04L61.6895 15.2208L61.6795 15.2277L61.6697 15.2349L62.2629 16.04ZM66.4389 20.552L66.6638 19.5776L66.6623 19.5773L66.4389 20.552ZM70.9989 21.848L70.6696 22.7922L70.6826 22.7967L70.6957 22.8009L70.9989 21.848ZM74.3589 23.912L73.6144 24.5795L73.6202 24.586L73.6261 24.5924L74.3589 23.912ZM75.6069 27.8H74.6069V27.8109L74.6072 27.8217L75.6069 27.8ZM74.4549 31.784L73.6264 31.2241L74.4549 31.784ZM70.9989 34.568L70.591 33.655L70.9989 34.568ZM65.6709 34.576C63.6638 34.576 61.944 34.2566 60.4902 33.646L59.7157 35.49C61.4618 36.2234 63.4541 36.576 65.6709 36.576V34.576ZM60.5057 33.6527C59.0359 33.006 57.8941 32.1404 57.0478 31.0684L55.4781 32.3076C56.5517 33.6677 57.97 34.722 59.7002 35.4833L60.5057 33.6527ZM57.0478 31.0684C56.2066 30.0028 55.6988 28.7697 55.5278 27.3449L53.5421 27.5831C53.7551 29.3582 54.3993 30.9412 55.4781 32.3076L57.0478 31.0684ZM54.5349 28.464H60.7269V26.464H54.5349V28.464ZM59.7477 27.6666C59.9926 28.8503 60.6471 29.8444 61.6346 30.6419L62.8913 29.0861C62.2148 28.5396 61.8453 27.9337 61.7062 27.2614L59.7477 27.6666ZM61.6677 30.6676C62.743 31.4641 64.0709 31.824 65.5749 31.824V29.824C64.391 29.824 63.5109 29.5439 62.8582 29.0604L61.6677 30.6676ZM65.5749 31.824C67.016 31.824 68.2915 31.539 69.1697 30.7532L67.8361 29.2628C67.4984 29.565 66.8219 29.824 65.5749 29.824V31.824ZM69.1506 30.7699C69.9666 30.0764 70.4629 29.1905 70.4629 28.136H68.4629C68.4629 28.4895 68.3193 28.8516 67.8553 29.2461L69.1506 30.7699ZM70.4629 28.136C70.4629 27.4782 70.3181 26.8486 69.9649 26.3063C69.6088 25.7593 69.0919 25.3798 68.4846 25.1412L67.7533 27.0028C68.042 27.1162 68.1971 27.2567 68.2889 27.3977C68.3838 27.5434 68.4629 27.7698 68.4629 28.136H70.4629ZM68.5129 25.1529C67.5333 24.7331 66.2158 24.3491 64.5898 23.9914L64.1601 25.9446C65.7341 26.2909 66.9125 26.6429 67.725 26.9911L68.5129 25.1529ZM64.5886 23.9911C63.5916 23.773 62.5771 23.5077 61.5449 23.195L60.9649 25.109C62.0448 25.4363 63.1103 25.715 64.1612 25.9449L64.5886 23.9911ZM61.5449 23.195C60.5467 22.8925 59.6324 22.5169 58.7992 22.0705L57.8547 23.8335C58.8135 24.3471 59.8512 24.7715 60.9649 25.109L61.5449 23.195ZM58.8367 22.0917C58.0853 21.6464 57.4885 21.0999 57.031 20.454L55.3989 21.61C56.0294 22.5001 56.8406 23.2336 57.8171 23.8123L58.8367 22.0917ZM57.0419 20.4697C56.6307 19.8651 56.3989 19.0945 56.3989 18.104H54.3989C54.3989 19.4175 54.7111 20.5989 55.388 21.5943L57.0419 20.4697ZM56.3989 18.104C56.3989 16.2959 57.0943 14.7913 58.5493 13.5322L57.2406 12.0198C55.3676 13.6407 54.3989 15.6881 54.3989 18.104H56.3989ZM58.5422 13.5383C60.0007 12.2999 62.1092 11.616 64.9989 11.616V9.616C61.8087 9.616 59.1812 10.3721 57.2477 12.0137L58.5422 13.5383ZM64.9989 11.616C67.6642 11.616 69.6626 12.2361 71.0998 13.3693L72.3381 11.7987C70.4473 10.3079 67.9657 9.616 64.9989 9.616V11.616ZM71.1071 13.375C72.5778 14.5127 73.465 16.0763 73.7524 18.1456L75.7334 17.8704C75.3808 15.3317 74.2521 13.2793 72.3308 11.793L71.1071 13.375ZM74.7429 17.008H68.9349V19.008H74.7429V17.008ZM69.9155 17.8119C69.6945 16.707 69.1421 15.8006 68.2273 15.1944C67.3417 14.6075 66.216 14.368 64.9509 14.368V16.368C65.9898 16.368 66.6802 16.5685 67.1226 16.8616C67.5358 17.1354 67.8233 17.549 67.9544 18.2041L69.9155 17.8119ZM64.9509 14.368C63.6862 14.368 62.5601 14.6114 61.6895 15.2208L62.8364 16.8592C63.2458 16.5726 63.9117 16.368 64.9509 16.368V14.368ZM61.6697 15.2349C60.8424 15.8446 60.3509 16.6875 60.3509 17.72H62.3509C62.3509 17.4085 62.4675 17.1314 62.8561 16.8451L61.6697 15.2349ZM60.3509 17.72C60.3509 18.987 61.2312 19.8182 62.3339 20.3125L63.152 18.4875C62.3986 18.1498 62.3509 17.861 62.3509 17.72H60.3509ZM62.3339 20.3125C63.3447 20.7656 64.6465 21.1671 66.2156 21.5267L66.6623 19.5773C65.1594 19.2329 63.9972 18.8664 63.152 18.4875L62.3339 20.3125ZM66.2141 21.5264C67.8485 21.9036 69.333 22.326 70.6696 22.7922L71.3283 20.9038C69.9128 20.41 68.3573 19.9684 66.6638 19.5776L66.2141 21.5264ZM70.6957 22.8009C71.9655 23.2049 72.9218 23.8071 73.6144 24.5795L75.1035 23.2445C74.132 22.1609 72.8484 21.3871 71.3021 20.8951L70.6957 22.8009ZM73.6261 24.5924C74.2295 25.2422 74.6069 26.258 74.6069 27.8H76.6069C76.6069 25.95 76.1524 24.3738 75.0917 23.2315L73.6261 24.5924ZM74.6072 27.8217C74.6348 29.0935 74.3068 30.2171 73.6264 31.2241L75.2835 32.3439C76.2031 30.9829 76.6431 29.4505 76.6067 27.7783L74.6072 27.8217ZM73.6264 31.2241C72.946 32.231 71.9511 33.0473 70.591 33.655L71.4069 35.481C73.0547 34.7447 74.3638 33.705 75.2835 32.3439L73.6264 31.2241ZM70.591 33.655C69.2426 34.2575 67.6116 34.576 65.6709 34.576V36.576C67.8263 36.576 69.7473 36.2225 71.4069 35.481L70.591 33.655ZM86.2337 34.04L86.7168 33.1644L86.2337 34.04ZM81.8177 16.712L80.9414 16.23L80.9353 16.2414L81.8177 16.712ZM86.1377 12.248L86.6387 13.1134L86.6434 13.1107L86.1377 12.248ZM98.8577 12.152L98.3615 13.0202L98.8577 12.152ZM103.034 16.376L102.159 16.8603L102.164 16.8697L102.169 16.8789L103.034 16.376ZM104.522 23.384L103.525 23.301L103.522 23.3424V23.384H104.522ZM104.474 24.584V25.584H105.4L105.471 24.6607L104.474 24.584ZM86.3777 24.584V23.584H85.3064L85.3801 24.6528L86.3777 24.584ZM88.2977 28.952L87.6219 29.6892L87.6321 29.6983L88.2977 28.952ZM95.6897 29.72L96.237 30.557L96.2444 30.5521L95.6897 29.72ZM97.6097 27.512V26.512H96.9715L96.7027 27.0909L97.6097 27.512ZM103.85 27.512L104.808 27.7975L105.191 26.512H103.85V27.512ZM101.594 31.64L100.83 30.9941L100.829 30.9959L101.594 31.64ZM97.7537 34.52L97.337 33.6109L97.3298 33.6143L97.7537 34.52ZM88.6817 16.904L89.2672 17.7147L89.2745 17.7094L89.2817 17.704L88.6817 16.904ZM86.4737 20.744L85.4904 20.5619L85.2715 21.744H86.4737V20.744ZM98.3297 20.744V21.744H99.3928L99.3278 20.6829L98.3297 20.744ZM96.6017 17L97.2618 16.2488V16.2488L96.6017 17ZM92.6177 34.576C90.364 34.576 88.4062 34.0965 86.7168 33.1644L85.7506 34.9156C87.7732 36.0315 90.0714 36.576 92.6177 36.576V34.576ZM86.7168 33.1644C85.0234 32.2301 83.7004 30.9226 82.7348 29.2255L80.9965 30.2145C82.1429 32.2294 83.732 33.8019 85.7506 34.9156L86.7168 33.1644ZM82.7348 29.2255C81.7759 27.5401 81.2817 25.5711 81.2817 23.288H79.2817C79.2817 25.8689 79.8434 28.1879 80.9965 30.2145L82.7348 29.2255ZM81.2817 23.288C81.2817 20.9662 81.763 18.9395 82.7 17.1826L80.9353 16.2414C79.8244 18.3245 79.2817 20.6818 79.2817 23.288H81.2817ZM82.6939 17.1939C83.6658 15.4269 84.9788 14.0744 86.6387 13.1134L85.6367 11.3826C83.6486 12.5336 82.0816 14.1571 80.9415 16.2301L82.6939 17.1939ZM86.6434 13.1107C88.3229 12.1261 90.3186 11.616 92.6657 11.616V9.616C90.0207 9.616 87.6644 10.1939 85.632 11.3853L86.6434 13.1107ZM92.6657 11.616C94.851 11.616 96.7397 12.0935 98.3615 13.0202L99.3538 11.2838C97.3917 10.1625 95.1524 9.616 92.6657 9.616V11.616ZM98.3615 13.0202C99.9958 13.9541 101.256 15.2299 102.159 16.8603L103.909 15.8917C102.827 13.9381 101.304 12.3979 99.3538 11.2838L98.3615 13.0202ZM102.169 16.8789C103.098 18.4757 103.57 20.2681 103.57 22.28H105.57C105.57 19.9399 105.017 17.7963 103.898 15.8731L102.169 16.8789ZM103.57 22.28C103.57 22.6018 103.555 22.942 103.525 23.301L105.518 23.467C105.552 23.058 105.57 22.6622 105.57 22.28H103.57ZM103.522 23.384C103.522 23.7403 103.507 24.1147 103.477 24.5073L105.471 24.6607C105.505 24.2213 105.522 23.7957 105.522 23.384H103.522ZM104.474 23.584H86.3777V25.584H104.474V23.584ZM85.3801 24.6528C85.5221 26.7127 86.2458 28.4277 87.622 29.6892L88.9734 28.2148C88.0456 27.3643 87.4893 26.1673 87.3753 24.5152L85.3801 24.6528ZM87.6321 29.6983C89.0088 30.9262 90.6733 31.536 92.5697 31.536V29.536C91.1381 29.536 89.9545 29.0898 88.9633 28.2057L87.6321 29.6983ZM92.5697 31.536C93.9625 31.536 95.2052 31.2316 96.2369 30.557L95.1424 28.883C94.5102 29.2964 93.6729 29.536 92.5697 29.536V31.536ZM96.2444 30.5521C97.2532 29.8795 98.0192 29.0046 98.5167 27.9331L96.7027 27.0909C96.3681 27.8114 95.8542 28.4085 95.135 28.888L96.2444 30.5521ZM97.6097 28.512H103.85V26.512H97.6097V28.512ZM102.891 27.2265C102.484 28.5927 101.801 29.847 100.83 30.9941L102.357 32.2859C103.498 30.937 104.319 29.4393 104.808 27.7975L102.891 27.2265ZM100.829 30.9959C99.9058 32.0919 98.7474 32.9645 97.337 33.6109L98.1703 35.4291C99.8319 34.6675 101.234 33.6201 102.359 32.2841L100.829 30.9959ZM97.3298 33.6143C95.9777 34.2472 94.414 34.576 92.6177 34.576V36.576C94.6614 36.576 96.5217 36.2008 98.1776 35.4257L97.3298 33.6143ZM92.6657 14.608C90.9556 14.608 89.4148 15.1041 88.0817 16.104L89.2817 17.704C90.2525 16.9759 91.3678 16.608 92.6657 16.608V14.608ZM88.0962 16.0933C86.689 17.1096 85.8456 18.644 85.4904 20.5619L87.457 20.9261C87.7418 19.388 88.3704 18.3624 89.2672 17.7147L88.0962 16.0933ZM86.4737 21.744H98.3297V19.744H86.4737V21.744ZM99.3278 20.6829C99.2176 18.8832 98.5422 17.374 97.2618 16.2488L95.9416 17.7512C96.7732 18.482 97.2497 19.4688 97.3316 20.8051L99.3278 20.6829ZM97.2618 16.2488C96.0019 15.1416 94.4466 14.608 92.6657 14.608V16.608C94.0208 16.608 95.0895 17.0024 95.9416 17.7512L97.2618 16.2488ZM107.769 35L106.785 34.8256L106.576 36H107.769V35ZM113.721 1.4V0.399998H112.883L112.737 1.22557L113.721 1.4ZM134.697 1.4L135.68 1.58487L135.903 0.399998H134.697V1.4ZM133.785 6.248V7.248H134.615L134.768 6.43287L133.785 6.248ZM119.001 6.248V5.248H118.162L118.016 6.07478L119.001 6.248ZM117.321 15.8L116.336 15.6268L116.13 16.8H117.321V15.8ZM129.177 15.8L130.161 15.9807L130.378 14.8H129.177V15.8ZM128.313 20.504V21.504H129.146L129.297 20.6847L128.313 20.504ZM116.457 20.504V19.504H115.617L115.472 20.3311L116.457 20.504ZM113.913 35V36H114.753L114.898 35.1729L113.913 35ZM108.754 35.1744L114.706 1.57442L112.737 1.22557L106.785 34.8256L108.754 35.1744ZM113.721 2.4H134.697V0.399998H113.721V2.4ZM133.714 1.21512L132.802 6.06312L134.768 6.43287L135.68 1.58487L133.714 1.21512ZM133.785 5.248H119.001V7.248H133.785V5.248ZM118.016 6.07478L116.336 15.6268L118.306 15.9732L119.986 6.42122L118.016 6.07478ZM117.321 16.8H129.177V14.8H117.321V16.8ZM128.194 15.6193L127.33 20.3233L129.297 20.6847L130.161 15.9807L128.194 15.6193ZM128.313 19.504H116.457V21.504H128.313V19.504ZM115.472 20.3311L112.928 34.8271L114.898 35.1729L117.442 20.6769L115.472 20.3311ZM113.913 34H107.769V36H113.913V34ZM138.921 34.616L138.465 35.506L138.474 35.5105L138.482 35.5148L138.921 34.616ZM135.993 31.976L135.131 32.483L135.993 31.976ZM137.625 23L138.248 23.7823L137.625 23ZM151.449 20.936V21.936H152.449V20.936H151.449ZM150.057 16.76L150.694 15.9896L150.057 16.76ZM143.337 16.52L143.864 17.3696L143.875 17.3632L143.885 17.3565L143.337 16.52ZM141.609 19.112V20.112H142.433L142.59 19.3029L141.609 19.112ZM135.609 19.112L134.613 19.0198L134.512 20.112H135.609V19.112ZM137.337 14.6L136.556 13.9753L136.551 13.9813L136.546 13.9874L137.337 14.6ZM141.273 11.672L141.66 12.594L141.668 12.5907L141.676 12.5873L141.273 11.672ZM154.665 13.16L154.009 13.9149L154.665 13.16ZM157.593 35V36H158.593V35H157.593ZM152.361 35L151.372 35.1483L151.5 36H152.361V35ZM151.785 31.16L152.774 31.0117L152.335 28.0851L150.909 30.6781L151.785 31.16ZM148.809 34.328L148.264 33.4895L148.254 33.4959L148.809 34.328ZM149.433 29.048L148.675 28.3955L148.67 28.4016L148.665 28.4078L149.433 29.048ZM151.305 24.776L152.294 24.9253L152.467 23.776H151.305V24.776ZM142.569 25.688L143.202 26.462L143.212 26.4535L143.222 26.4448L142.569 25.688ZM142.569 30.008L143.157 29.1993L142.569 30.008ZM143.961 34.576C142.007 34.576 140.491 34.2694 139.359 33.7172L138.482 35.5148C139.975 36.2426 141.818 36.576 143.961 36.576V34.576ZM139.377 33.726C138.205 33.1257 137.383 32.3675 136.855 31.469L135.131 32.483C135.882 33.7605 137.013 34.7623 138.465 35.506L139.377 33.726ZM136.855 31.469C136.309 30.5409 136.033 29.517 136.033 28.376H134.033C134.033 29.859 134.397 31.2351 135.131 32.483L136.855 31.469ZM136.033 28.376C136.033 26.4727 136.758 24.9686 138.248 23.7823L137.002 22.2177C135.036 23.7834 134.033 25.8633 134.033 28.376H136.033ZM138.248 23.7823C139.723 22.6073 142.051 21.936 145.401 21.936V19.936C141.839 19.936 138.982 20.6407 137.002 22.2177L138.248 23.7823ZM145.401 21.936H151.449V19.936H145.401V21.936ZM152.449 20.936V20.36H150.449V20.936H152.449ZM152.449 20.36C152.449 18.5421 151.926 17.009 150.694 15.9896L149.419 17.5304C150.043 18.047 150.449 18.9139 150.449 20.36H152.449ZM150.694 15.9896C149.562 15.0523 148.175 14.608 146.601 14.608V16.608C147.779 16.608 148.696 16.9317 149.419 17.5304L150.694 15.9896ZM146.601 14.608C145.183 14.608 143.899 14.9559 142.789 15.6835L143.885 17.3565C144.63 16.8681 145.522 16.608 146.601 16.608V14.608ZM142.809 15.6704C141.626 16.405 140.9 17.5187 140.627 18.9211L142.59 19.3029C142.766 18.4013 143.192 17.787 143.864 17.3696L142.809 15.6704ZM141.609 18.112H135.609V20.112H141.609V18.112ZM136.605 19.2042C136.748 17.6515 137.26 16.3313 138.127 15.2126L136.546 13.9874C135.429 15.4287 134.789 17.1165 134.613 19.0198L136.605 19.2042ZM138.118 15.2247C139.031 14.0828 140.205 13.2052 141.66 12.594L140.886 10.75C139.141 11.4828 137.69 12.5572 136.556 13.9753L138.118 15.2247ZM141.676 12.5873C143.133 11.9462 144.785 11.616 146.649 11.616V9.616C144.545 9.616 142.613 9.98977 140.87 10.7567L141.676 12.5873ZM146.649 11.616C149.876 11.616 152.289 12.4208 154.009 13.9149L155.321 12.4051C153.136 10.5072 150.205 9.616 146.649 9.616V11.616ZM154.009 13.9149C155.699 15.3829 156.593 17.482 156.593 20.36H158.593C158.593 17.03 157.535 14.3291 155.321 12.4051L154.009 13.9149ZM156.593 20.36V35H158.593V20.36H156.593ZM157.593 34H152.361V36H157.593V34ZM153.35 34.8517L152.774 31.0117L150.796 31.3083L151.372 35.1483L153.35 34.8517ZM150.909 30.6781C150.288 31.8072 149.412 32.7431 148.264 33.4896L149.354 35.1664C150.765 34.2489 151.874 33.0728 152.661 31.6419L150.909 30.6781ZM148.254 33.4959C147.216 34.1882 145.81 34.576 143.961 34.576V36.576C146.08 36.576 147.906 36.1318 149.364 35.16L148.254 33.4959ZM145.353 31.776C147.352 31.776 149.017 31.1088 150.201 29.6882L148.665 28.4078C147.928 29.2912 146.873 29.776 145.353 29.776V31.776ZM150.191 29.7005C151.321 28.3882 152.013 26.7829 152.294 24.9253L150.316 24.6267C150.084 26.1611 149.529 27.4038 148.675 28.3955L150.191 29.7005ZM151.305 23.776H146.073V25.776H151.305V23.776ZM146.073 23.776C144.365 23.776 142.895 24.0849 141.915 24.9312L143.222 26.4448C143.651 26.0751 144.517 25.776 146.073 25.776V23.776ZM141.936 24.914C141.014 25.6684 140.513 26.6663 140.513 27.848H142.513C142.513 27.3017 142.716 26.8596 143.202 26.462L141.936 24.914ZM140.513 27.848C140.513 29.0712 140.999 30.1025 141.981 30.8167L143.157 29.1993C142.731 28.8895 142.513 28.4808 142.513 27.848H140.513ZM141.981 30.8167C142.903 31.4877 144.057 31.776 145.353 31.776V29.776C144.344 29.776 143.642 29.5523 143.157 29.1993L141.981 30.8167ZM163.456 35H162.456V36H163.456V35ZM163.456 0.439999V-0.560001H162.456V0.439999H163.456ZM169.6 0.439999H170.6V-0.560001H169.6V0.439999ZM169.6 35V36H170.6V35H169.6ZM164.456 35V0.439999H162.456V35H164.456ZM163.456 1.44H169.6V-0.560001H163.456V1.44ZM168.6 0.439999V35H170.6V0.439999H168.6ZM169.6 34H163.456V36H169.6V34ZM179.046 34.616L178.59 35.506L178.599 35.5105L178.607 35.5148L179.046 34.616ZM176.118 31.976L175.256 32.483L176.118 31.976ZM177.75 23L178.373 23.7823L177.75 23ZM191.574 20.936V21.936H192.574V20.936H191.574ZM190.182 16.76L190.819 15.9896L190.182 16.76ZM183.462 16.52L183.989 17.3696L184 17.3632L184.01 17.3565L183.462 16.52ZM181.734 19.112V20.112H182.558L182.715 19.3029L181.734 19.112ZM175.734 19.112L174.738 19.0198L174.637 20.112H175.734V19.112ZM177.462 14.6L176.681 13.9753L176.676 13.9813L176.671 13.9874L177.462 14.6ZM181.398 11.672L181.785 12.594L181.793 12.5907L181.801 12.5873L181.398 11.672ZM194.79 13.16L194.134 13.9149L194.79 13.16ZM197.718 35V36H198.718V35H197.718ZM192.486 35L191.497 35.1483L191.625 36H192.486V35ZM191.91 31.16L192.899 31.0117L192.46 28.0851L191.034 30.6781L191.91 31.16ZM188.934 34.328L188.389 33.4895L188.379 33.4959L188.934 34.328ZM189.558 29.048L188.8 28.3955L188.795 28.4016L188.79 28.4078L189.558 29.048ZM191.43 24.776L192.419 24.9253L192.592 23.776H191.43V24.776ZM182.694 25.688L183.327 26.462L183.337 26.4535L183.347 26.4448L182.694 25.688ZM182.694 30.008L183.282 29.1993L182.694 30.008ZM184.086 34.576C182.132 34.576 180.616 34.2694 179.484 33.7172L178.607 35.5148C180.1 36.2426 181.943 36.576 184.086 36.576V34.576ZM179.502 33.726C178.33 33.1257 177.508 32.3675 176.98 31.469L175.256 32.483C176.007 33.7605 177.138 34.7623 178.59 35.506L179.502 33.726ZM176.98 31.469C176.434 30.5409 176.158 29.517 176.158 28.376H174.158C174.158 29.859 174.522 31.2351 175.256 32.483L176.98 31.469ZM176.158 28.376C176.158 26.4727 176.883 24.9686 178.373 23.7823L177.127 22.2177C175.161 23.7834 174.158 25.8633 174.158 28.376H176.158ZM178.373 23.7823C179.848 22.6073 182.176 21.936 185.526 21.936V19.936C181.964 19.936 179.107 20.6407 177.127 22.2177L178.373 23.7823ZM185.526 21.936H191.574V19.936H185.526V21.936ZM192.574 20.936V20.36H190.574V20.936H192.574ZM192.574 20.36C192.574 18.5421 192.051 17.009 190.819 15.9896L189.544 17.5304C190.168 18.047 190.574 18.9139 190.574 20.36H192.574ZM190.819 15.9896C189.687 15.0523 188.3 14.608 186.726 14.608V16.608C187.904 16.608 188.821 16.9317 189.544 17.5304L190.819 15.9896ZM186.726 14.608C185.308 14.608 184.024 14.9559 182.914 15.6835L184.01 17.3565C184.755 16.8681 185.647 16.608 186.726 16.608V14.608ZM182.934 15.6704C181.751 16.405 181.025 17.5187 180.752 18.9211L182.715 19.3029C182.891 18.4013 183.317 17.787 183.989 17.3696L182.934 15.6704ZM181.734 18.112H175.734V20.112H181.734V18.112ZM176.73 19.2042C176.873 17.6515 177.385 16.3313 178.252 15.2126L176.671 13.9874C175.554 15.4287 174.914 17.1165 174.738 19.0198L176.73 19.2042ZM178.243 15.2247C179.156 14.0828 180.33 13.2052 181.785 12.594L181.011 10.75C179.266 11.4828 177.815 12.5572 176.681 13.9753L178.243 15.2247ZM181.801 12.5873C183.258 11.9462 184.91 11.616 186.774 11.616V9.616C184.67 9.616 182.738 9.98977 180.995 10.7567L181.801 12.5873ZM186.774 11.616C190.001 11.616 192.414 12.4208 194.134 13.9149L195.446 12.4051C193.261 10.5072 190.33 9.616 186.774 9.616V11.616ZM194.134 13.9149C195.824 15.3829 196.718 17.482 196.718 20.36H198.718C198.718 17.03 197.66 14.3291 195.446 12.4051L194.134 13.9149ZM196.718 20.36V35H198.718V20.36H196.718ZM197.718 34H192.486V36H197.718V34ZM193.475 34.8517L192.899 31.0117L190.921 31.3083L191.497 35.1483L193.475 34.8517ZM191.034 30.6781C190.413 31.8072 189.537 32.7431 188.389 33.4896L189.479 35.1664C190.89 34.2489 191.999 33.0728 192.786 31.6419L191.034 30.6781ZM188.379 33.4959C187.341 34.1882 185.935 34.576 184.086 34.576V36.576C186.205 36.576 188.031 36.1318 189.489 35.16L188.379 33.4959ZM185.478 31.776C187.477 31.776 189.142 31.1088 190.326 29.6882L188.79 28.4078C188.053 29.2912 186.998 29.776 185.478 29.776V31.776ZM190.316 29.7005C191.446 28.3882 192.138 26.7829 192.419 24.9253L190.441 24.6267C190.209 26.1611 189.654 27.4038 188.8 28.3955L190.316 29.7005ZM191.43 23.776H186.198V25.776H191.43V23.776ZM186.198 23.776C184.49 23.776 183.02 24.0849 182.04 24.9312L183.347 26.4448C183.776 26.0751 184.642 25.776 186.198 25.776V23.776ZM182.061 24.914C181.139 25.6684 180.638 26.6663 180.638 27.848H182.638C182.638 27.3017 182.841 26.8596 183.327 26.462L182.061 24.914ZM180.638 27.848C180.638 29.0712 181.124 30.1025 182.106 30.8167L183.282 29.1993C182.856 28.8895 182.638 28.4808 182.638 27.848H180.638ZM182.106 30.8167C183.028 31.4877 184.182 31.776 185.478 31.776V29.776C184.469 29.776 183.767 29.5523 183.282 29.1993L182.106 30.8167ZM203.581 35H202.581V36H203.581V35ZM203.581 0.439999V-0.560001H202.581V0.439999H203.581ZM209.725 0.439999H210.725V-0.560001H209.725V0.439999ZM209.725 20.84H208.725V23.5L210.477 21.4988L209.725 20.84ZM218.173 11.192V10.192H217.719L217.421 10.5332L218.173 11.192ZM225.469 11.192L226.213 11.8602L227.711 10.192H225.469V11.192ZM215.725 22.04L214.981 21.3718L214.389 22.031L214.972 22.6981L215.725 22.04ZM227.053 35V36H229.255L227.806 34.3419L227.053 35ZM219.373 35L218.595 35.6281L218.895 36H219.373V35ZM209.725 23.048L210.503 22.4199L208.725 20.2171V23.048H209.725ZM209.725 35V36H210.725V35H209.725ZM204.581 35V0.439999H202.581V35H204.581ZM203.581 1.44H209.725V-0.560001H203.581V1.44ZM208.725 0.439999V20.84H210.725V0.439999H208.725ZM210.477 21.4988L218.925 11.8508L217.421 10.5332L208.973 20.1812L210.477 21.4988ZM218.173 12.192H225.469V10.192H218.173V12.192ZM224.725 10.5238L214.981 21.3718L216.469 22.7082L226.213 11.8602L224.725 10.5238ZM214.972 22.6981L226.3 35.6581L227.806 34.3419L216.478 21.3819L214.972 22.6981ZM227.053 34H219.373V36H227.053V34ZM220.151 34.3719L210.503 22.4199L208.947 23.6761L218.595 35.6281L220.151 34.3719ZM208.725 23.048V35H210.725V23.048H208.725ZM209.725 34H203.581V36H209.725V34Z" fill="black"/>
</g>
<defs>
<filter id="filter0_d_1_25" x="0.52182" y="0.440002" width="228.531" height="39.136" filterUnits="userSpaceOnUse" color-interpolation-filters="sRGB">
<feFlood flood-opacity="0" result="BackgroundImageFix"/>
<feColorMatrix in="SourceAlpha" type="matrix" values="0 0 0 0 0 0 0 0 0 0 0 0 0 0 0 0 0 0 127 0" result="hardAlpha"/>
<feOffset dx="2" dy="4"/>
<feComposite in2="hardAlpha" operator="out"/>
<feColorMatrix type="matrix" values="0 0 0 0 0 0 0 0 0 0 0 0 0 0 0 0 0 0 1 0"/>
<feBlend mode="normal" in2="BackgroundImageFix" result="effect1_dropShadow_1_25"/>
<feBlend mode="normal" in="SourceGraphic" in2="effect1_dropShadow_1_25" result="shape"/>
</filter>
</defs>
</svg>
