<svg width="620" height="142" viewBox="0 0 620 142" fill="none" xmlns="http://www.w3.org/2000/svg">
<g clip-path="url(#clip0_30_76)">
<g filter="url(#filter0_d_30_76)">
<path d="M11.8915 127V37.4H70.3875V50.584H28.2755V75.16H66.5475V87.96H28.2755V113.816H70.3875V127H11.8915ZM107.396 128.536C101.934 128.536 97.4542 127.683 93.9555 125.976C90.4568 124.184 87.8542 121.837 86.1475 118.936C84.4408 116.035 83.5875 112.835 83.5875 109.336C83.5875 103.448 85.8915 98.6693 90.4995 95C95.1075 91.3307 102.02 89.496 111.236 89.496H127.364V87.96C127.364 83.608 126.126 80.408 123.652 78.36C121.177 76.312 118.105 75.288 114.436 75.288C111.108 75.288 108.206 76.0987 105.732 77.72C103.257 79.256 101.721 81.56 101.124 84.632H85.1235C85.5502 80.024 87.0862 76.0133 89.7315 72.6C92.4622 69.1867 95.9608 66.584 100.228 64.792C104.494 62.9147 109.273 61.976 114.564 61.976C123.609 61.976 130.734 64.2373 135.94 68.76C141.145 73.2827 143.748 79.6827 143.748 87.96V127H129.796L128.26 116.76C126.382 120.173 123.737 122.989 120.324 125.208C116.996 127.427 112.686 128.536 107.396 128.536ZM111.108 115.736C115.801 115.736 119.428 114.2 121.988 111.128C124.633 108.056 126.297 104.259 126.98 99.736H113.028C108.676 99.736 105.561 100.547 103.684 102.168C101.806 103.704 100.868 105.624 100.868 107.928C100.868 110.403 101.806 112.323 103.684 113.688C105.561 115.053 108.036 115.736 111.108 115.736ZM185.623 128.536C179.991 128.536 175.041 127.64 170.775 125.848C166.508 123.971 163.095 121.411 160.535 118.168C157.975 114.925 156.439 111.171 155.927 106.904H172.439C172.951 109.379 174.316 111.512 176.535 113.304C178.839 115.011 181.783 115.864 185.367 115.864C188.951 115.864 191.553 115.139 193.175 113.688C194.881 112.237 195.735 110.573 195.735 108.696C195.735 105.965 194.54 104.131 192.151 103.192C189.761 102.168 186.433 101.187 182.167 100.248C179.436 99.6507 176.663 98.9253 173.847 98.072C171.031 97.2187 168.428 96.152 166.039 94.872C163.735 93.5067 161.857 91.8 160.407 89.752C158.956 87.6187 158.231 85.016 158.231 81.944C158.231 76.312 160.449 71.576 164.887 67.736C169.409 63.896 175.724 61.976 183.831 61.976C191.34 61.976 197.313 63.7253 201.751 67.224C206.273 70.7227 208.961 75.544 209.815 81.688H194.327C193.388 76.9947 189.847 74.648 183.703 74.648C180.631 74.648 178.241 75.2453 176.535 76.44C174.913 77.6347 174.103 79.128 174.103 80.92C174.103 82.7973 175.34 84.2907 177.815 85.4C180.289 86.5093 183.575 87.5333 187.671 88.472C192.108 89.496 196.161 90.648 199.831 91.928C203.585 93.1227 206.572 94.9573 208.791 97.432C211.009 99.8213 212.119 103.277 212.119 107.8C212.204 111.725 211.18 115.267 209.047 118.424C206.913 121.581 203.841 124.056 199.831 125.848C195.82 127.64 191.084 128.536 185.623 128.536ZM257.481 128.536C251.081 128.536 245.406 127.171 240.457 124.44C235.507 121.709 231.625 117.869 228.809 112.92C225.993 107.971 224.585 102.253 224.585 95.768C224.585 89.1973 225.95 83.352 228.681 78.232C231.497 73.112 235.337 69.144 240.201 66.328C245.15 63.4267 250.953 61.976 257.609 61.976C263.838 61.976 269.342 63.3413 274.121 66.072C278.899 68.8027 282.611 72.5573 285.257 77.336C287.987 82.0293 289.353 87.2773 289.353 93.08C289.353 94.0187 289.31 95 289.225 96.024C289.225 97.048 289.182 98.1147 289.097 99.224H240.841C241.182 104.173 242.889 108.056 245.961 110.872C249.118 113.688 252.915 115.096 257.353 115.096C260.681 115.096 263.454 114.371 265.673 112.92C267.977 111.384 269.683 109.421 270.793 107.032H287.433C286.238 111.043 284.233 114.712 281.417 118.04C278.686 121.283 275.273 123.843 271.177 125.72C267.166 127.597 262.601 128.536 257.481 128.536ZM257.609 75.288C253.598 75.288 250.057 76.44 246.985 78.744C243.913 80.9627 241.95 84.376 241.097 88.984H272.713C272.457 84.8027 270.921 81.4747 268.105 79C265.289 76.5253 261.79 75.288 257.609 75.288ZM394.396 128.536C388.934 128.536 384.454 127.683 380.956 125.976C377.457 124.184 374.854 121.837 373.148 118.936C371.441 116.035 370.588 112.835 370.588 109.336C370.588 103.448 372.892 98.6693 377.5 95C382.108 91.3307 389.02 89.496 398.236 89.496H414.364V87.96C414.364 83.608 413.126 80.408 410.652 78.36C408.177 76.312 405.105 75.288 401.436 75.288C398.108 75.288 395.206 76.0987 392.732 77.72C390.257 79.256 388.721 81.56 388.124 84.632H372.124C372.55 80.024 374.086 76.0133 376.732 72.6C379.462 69.1867 382.961 66.584 387.228 64.792C391.494 62.9147 396.273 61.976 401.564 61.976C410.609 61.976 417.734 64.2373 422.94 68.76C428.145 73.2827 430.748 79.6827 430.748 87.96V127H416.796L415.26 116.76C413.382 120.173 410.737 122.989 407.324 125.208C403.996 127.427 399.686 128.536 394.396 128.536ZM398.108 115.736C402.801 115.736 406.428 114.2 408.988 111.128C411.633 108.056 413.297 104.259 413.98 99.736H400.028C395.676 99.736 392.561 100.547 390.684 102.168C388.806 103.704 387.868 105.624 387.868 107.928C387.868 110.403 388.806 112.323 390.684 113.688C392.561 115.053 395.036 115.736 398.108 115.736ZM446.383 127V34.84H462.767V127H446.383ZM501.396 128.536C495.934 128.536 491.454 127.683 487.956 125.976C484.457 124.184 481.854 121.837 480.148 118.936C478.441 116.035 477.588 112.835 477.588 109.336C477.588 103.448 479.892 98.6693 484.5 95C489.108 91.3307 496.02 89.496 505.236 89.496H521.364V87.96C521.364 83.608 520.126 80.408 517.652 78.36C515.177 76.312 512.105 75.288 508.436 75.288C505.108 75.288 502.206 76.0987 499.732 77.72C497.257 79.256 495.721 81.56 495.124 84.632H479.124C479.55 80.024 481.086 76.0133 483.732 72.6C486.462 69.1867 489.961 66.584 494.228 64.792C498.494 62.9147 503.273 61.976 508.564 61.976C517.609 61.976 524.734 64.2373 529.94 68.76C535.145 73.2827 537.748 79.6827 537.748 87.96V127H523.796L522.26 116.76C520.382 120.173 517.737 122.989 514.324 125.208C510.996 127.427 506.686 128.536 501.396 128.536ZM505.108 115.736C509.801 115.736 513.428 114.2 515.988 111.128C518.633 108.056 520.297 104.259 520.98 99.736H507.028C502.676 99.736 499.561 100.547 497.684 102.168C495.806 103.704 494.868 105.624 494.868 107.928C494.868 110.403 495.806 112.323 497.684 113.688C499.561 115.053 502.036 115.736 505.108 115.736ZM553.383 127V34.84H569.767V89.24L592.295 63.512H611.751L585.767 92.44L615.975 127H595.495L569.767 95.128V127H553.383Z" fill="white"/>
<path d="M297.885 127L313.757 37.4H369.693L367.261 50.328H327.837L323.357 75.8H354.973L352.669 88.344H321.053L314.269 127H297.885Z" fill="#FFC107"/>
<path d="M11.8915 127H10.8915V128H11.8915V127ZM11.8915 37.4V36.4H10.8915V37.4H11.8915ZM70.3875 37.4H71.3875V36.4H70.3875V37.4ZM70.3875 50.584V51.584H71.3875V50.584H70.3875ZM28.2755 50.584V49.584H27.2755V50.584H28.2755ZM28.2755 75.16H27.2755V76.16H28.2755V75.16ZM66.5475 75.16H67.5475V74.16H66.5475V75.16ZM66.5475 87.96V88.96H67.5475V87.96H66.5475ZM28.2755 87.96V86.96H27.2755V87.96H28.2755ZM28.2755 113.816H27.2755V114.816H28.2755V113.816ZM70.3875 113.816H71.3875V112.816H70.3875V113.816ZM70.3875 127V128H71.3875V127H70.3875ZM12.8915 127V37.4H10.8915V127H12.8915ZM11.8915 38.4H70.3875V36.4H11.8915V38.4ZM69.3875 37.4V50.584H71.3875V37.4H69.3875ZM70.3875 49.584H28.2755V51.584H70.3875V49.584ZM27.2755 50.584V75.16H29.2755V50.584H27.2755ZM28.2755 76.16H66.5475V74.16H28.2755V76.16ZM65.5475 75.16V87.96H67.5475V75.16H65.5475ZM66.5475 86.96H28.2755V88.96H66.5475V86.96ZM27.2755 87.96V113.816H29.2755V87.96H27.2755ZM28.2755 114.816H70.3875V112.816H28.2755V114.816ZM69.3875 113.816V127H71.3875V113.816H69.3875ZM70.3875 126H11.8915V128H70.3875V126ZM93.9555 125.976L93.4996 126.866L93.5083 126.87L93.5171 126.875L93.9555 125.976ZM86.1475 118.936L85.2856 119.443L85.2856 119.443L86.1475 118.936ZM90.4995 95L91.1224 95.7823L91.1224 95.7823L90.4995 95ZM127.364 89.496V90.496H128.364V89.496H127.364ZM123.652 78.36L124.289 77.5896L124.289 77.5896L123.652 78.36ZM105.732 77.72L106.259 78.5696L106.269 78.5632L106.28 78.5565L105.732 77.72ZM101.124 84.632V85.632H101.948L102.105 84.8229L101.124 84.632ZM85.1235 84.632L84.1278 84.5398L84.0266 85.632H85.1235V84.632ZM89.7315 72.6L88.9506 71.9753L88.9458 71.9813L88.9411 71.9874L89.7315 72.6ZM100.228 64.792L100.615 65.714L100.623 65.7107L100.63 65.7073L100.228 64.792ZM135.94 68.76L135.284 69.5149L135.284 69.5149L135.94 68.76ZM143.748 127V128H144.748V127H143.748ZM129.796 127L128.807 127.148L128.934 128H129.796V127ZM128.26 116.76L129.248 116.612L128.809 113.685L127.383 116.278L128.26 116.76ZM120.324 125.208L119.778 124.369L119.769 124.376L120.324 125.208ZM121.988 111.128L121.23 110.475L121.224 110.482L121.219 110.488L121.988 111.128ZM126.98 99.736L127.968 99.8853L128.142 98.736H126.98V99.736ZM103.684 102.168L104.317 102.942L104.327 102.934L104.337 102.925L103.684 102.168ZM103.684 113.688L104.272 112.879L104.272 112.879L103.684 113.688ZM107.396 127.536C102.029 127.536 97.7124 126.696 94.3939 125.077L93.5171 126.875C97.1959 128.669 101.84 129.536 107.396 129.536V127.536ZM94.4114 125.086C91.0528 123.366 88.6046 121.141 87.0094 118.429L85.2856 119.443C87.1037 122.534 89.8609 125.002 93.4996 126.866L94.4114 125.086ZM87.0094 118.429C85.3968 115.688 84.5875 112.664 84.5875 109.336H82.5875C82.5875 113.006 83.4849 116.382 85.2856 119.443L87.0094 118.429ZM84.5875 109.336C84.5875 103.753 86.7526 99.262 91.1224 95.7823L89.8766 94.2177C85.0304 98.0767 82.5875 103.143 82.5875 109.336H84.5875ZM91.1224 95.7823C95.478 92.314 102.126 90.496 111.236 90.496V88.496C101.913 88.496 94.737 90.3473 89.8766 94.2177L91.1224 95.7823ZM111.236 90.496H127.364V88.496H111.236V90.496ZM128.364 89.496V87.96H126.364V89.496H128.364ZM128.364 87.96C128.364 83.4221 127.068 79.889 124.289 77.5896L123.014 79.1304C125.185 80.927 126.364 83.7939 126.364 87.96H128.364ZM124.289 77.5896C121.61 75.3723 118.303 74.288 114.436 74.288V76.288C117.907 76.288 120.744 77.2517 123.014 79.1304L124.289 77.5896ZM114.436 74.288C110.938 74.288 107.841 75.1425 105.183 76.8835L106.28 78.5565C108.572 77.0548 111.277 76.288 114.436 76.288V74.288ZM105.204 76.8704C102.474 78.565 100.788 81.1187 100.142 84.4411L102.105 84.8229C102.654 82.0013 104.04 79.947 106.259 78.5696L105.204 76.8704ZM101.124 83.632H85.1235V85.632H101.124V83.632ZM86.1192 84.7242C86.5297 80.2915 88.0016 76.4646 90.5219 73.2126L88.9411 71.9874C86.1708 75.562 84.5707 79.7565 84.1278 84.5398L86.1192 84.7242ZM90.5124 73.2247C93.1326 69.9495 96.4927 67.4452 100.615 65.714L99.8403 63.87C95.429 65.7228 91.7918 68.4239 88.9506 71.9753L90.5124 73.2247ZM100.63 65.7073C104.754 63.8929 109.393 62.976 114.564 62.976V60.976C109.153 60.976 104.234 61.9364 99.8248 63.8767L100.63 65.7073ZM114.564 62.976C123.444 62.976 130.311 65.1941 135.284 69.5149L136.595 68.0051C131.158 63.2806 123.773 60.976 114.564 60.976V62.976ZM135.284 69.5149C140.227 73.8096 142.748 79.9087 142.748 87.96H144.748C144.748 79.4566 142.063 72.7558 136.595 68.0051L135.284 69.5149ZM142.748 87.96V127H144.748V87.96H142.748ZM143.748 126H129.796V128H143.748V126ZM130.784 126.852L129.248 116.612L127.271 116.908L128.807 127.148L130.784 126.852ZM127.383 116.278C125.589 119.541 123.06 122.236 119.779 124.37L120.868 126.046C124.413 123.742 127.175 120.806 129.136 117.242L127.383 116.278ZM119.769 124.376C116.65 126.455 112.551 127.536 107.396 127.536V129.536C112.821 129.536 117.341 128.398 120.878 126.04L119.769 124.376ZM111.108 116.736C116.04 116.736 119.972 115.109 122.756 111.768L121.219 110.488C118.883 113.291 115.561 114.736 111.108 114.736V116.736ZM122.745 111.781C125.529 108.548 127.261 104.57 127.968 99.8853L125.991 99.5867C125.332 103.948 123.737 107.564 121.23 110.475L122.745 111.781ZM126.98 98.736H113.028V100.736H126.98V98.736ZM113.028 98.736C108.599 98.736 105.183 99.5516 103.03 101.411L104.337 102.925C105.939 101.542 108.752 100.736 113.028 100.736V98.736ZM103.05 101.394C100.955 103.108 99.8675 105.306 99.8675 107.928H101.868C101.868 105.942 102.657 104.3 104.317 102.942L103.05 101.394ZM99.8675 107.928C99.8675 110.698 100.94 112.929 103.095 114.497L104.272 112.879C102.672 111.716 101.868 110.107 101.868 107.928H99.8675ZM103.095 114.497C105.191 116.021 107.892 116.736 111.108 116.736V114.736C108.179 114.736 105.93 114.086 104.272 112.879L103.095 114.497ZM170.775 125.848L170.372 126.763L170.379 126.767L170.387 126.77L170.775 125.848ZM160.535 118.168L159.75 118.788L159.75 118.788L160.535 118.168ZM155.927 106.904V105.904H154.799L154.934 107.023L155.927 106.904ZM172.439 106.904L173.418 106.701L173.253 105.904H172.439V106.904ZM176.535 113.304L175.906 114.082L175.922 114.095L175.939 114.108L176.535 113.304ZM193.175 113.688L192.527 112.926L192.517 112.934L192.508 112.943L193.175 113.688ZM192.151 103.192L191.757 104.111L191.771 104.117L191.785 104.123L192.151 103.192ZM182.167 100.248L182.381 99.2714L182.38 99.2711L182.167 100.248ZM173.847 98.072L173.556 99.029L173.556 99.029L173.847 98.072ZM166.039 94.872L165.529 95.7323L165.547 95.7433L165.566 95.7535L166.039 94.872ZM160.407 89.752L159.58 90.3143L159.585 90.3222L159.59 90.33L160.407 89.752ZM164.887 67.736L164.239 66.9737L164.232 66.9798L164.887 67.736ZM201.751 67.224L201.131 68.0093L201.139 68.015L201.751 67.224ZM209.815 81.688V82.688H210.963L210.805 81.5504L209.815 81.688ZM194.327 81.688L193.346 81.8841L193.507 82.688H194.327V81.688ZM176.535 76.44L175.961 75.6208L175.951 75.6277L175.941 75.6349L176.535 76.44ZM187.671 88.472L187.895 87.4976L187.894 87.4973L187.671 88.472ZM199.831 91.928L199.501 92.8722L199.514 92.8767L199.527 92.8809L199.831 91.928ZM208.791 97.432L208.046 98.0995L208.052 98.106L208.058 98.1125L208.791 97.432ZM212.119 107.8H211.119V107.811L211.119 107.822L212.119 107.8ZM209.047 118.424L208.218 117.864L208.218 117.864L209.047 118.424ZM199.831 125.848L199.423 124.935L199.423 124.935L199.831 125.848ZM185.623 127.536C180.095 127.536 175.282 126.657 171.162 124.926L170.387 126.77C174.8 128.623 179.886 129.536 185.623 129.536V127.536ZM171.177 124.933C167.041 123.113 163.766 120.647 161.319 117.548L159.75 118.788C162.423 122.174 165.975 124.829 170.372 126.763L171.177 124.933ZM161.319 117.548C158.878 114.456 157.41 110.876 156.919 106.785L154.934 107.023C155.467 111.465 157.071 115.395 159.75 118.788L161.319 117.548ZM155.927 107.904H172.439V105.904H155.927V107.904ZM171.459 107.107C172.024 109.837 173.532 112.164 175.906 114.082L177.163 112.526C175.1 110.86 173.877 108.92 173.418 106.701L171.459 107.107ZM175.939 114.108C178.455 115.971 181.622 116.864 185.367 116.864V114.864C181.943 114.864 179.222 114.051 177.13 112.5L175.939 114.108ZM185.367 116.864C189.048 116.864 191.95 116.126 193.841 114.433L192.508 112.943C191.157 114.152 188.853 114.864 185.367 114.864V116.864ZM193.822 114.45C195.705 112.85 196.735 110.924 196.735 108.696H194.735C194.735 110.223 194.058 111.625 192.527 112.926L193.822 114.45ZM196.735 108.696C196.735 107.185 196.403 105.842 195.676 104.726C194.947 103.606 193.87 102.793 192.516 102.261L191.785 104.123C192.82 104.53 193.535 105.103 194.001 105.818C194.469 106.537 194.735 107.477 194.735 108.696H196.735ZM192.544 102.273C190.072 101.213 186.674 100.216 182.381 99.2714L181.952 101.225C186.192 102.158 189.451 103.123 191.757 104.111L192.544 102.273ZM182.38 99.2711C179.677 98.6797 176.929 97.9611 174.137 97.115L173.556 99.029C176.396 99.8896 179.195 100.622 181.953 101.225L182.38 99.2711ZM174.137 97.115C171.378 96.2791 168.837 95.2369 166.511 93.9905L165.566 95.7535C168.018 97.0671 170.683 98.1582 173.556 99.029L174.137 97.115ZM166.548 94.0117C164.357 92.713 162.587 91.0999 161.223 89.174L159.59 90.33C161.128 92.5001 163.112 94.3003 165.529 95.7323L166.548 94.0117ZM161.233 89.1897C159.916 87.2518 159.231 84.8545 159.231 81.944H157.231C157.231 85.1775 157.996 87.9856 159.58 90.3143L161.233 89.1897ZM159.231 81.944C159.231 76.6159 161.313 72.1513 165.541 68.4922L164.232 66.9798C159.586 71.0007 157.231 76.0081 157.231 81.944H159.231ZM165.534 68.4983C169.819 64.8599 175.874 62.976 183.831 62.976V60.976C175.574 60.976 168.999 62.9321 164.239 66.9737L165.534 68.4983ZM183.831 62.976C191.189 62.976 196.921 64.6894 201.131 68.0093L202.37 66.4387C197.706 62.7612 191.491 60.976 183.831 60.976V62.976ZM201.139 68.015C205.436 71.3394 208.003 75.9163 208.824 81.8256L210.805 81.5504C209.919 75.1717 207.11 70.106 202.362 66.433L201.139 68.015ZM209.815 80.688H194.327V82.688H209.815V80.688ZM195.307 81.4919C194.793 78.9203 193.54 76.9139 191.519 75.5744C189.527 74.2542 186.888 73.648 183.703 73.648V75.648C186.661 75.648 188.865 76.2151 190.414 77.2416C191.934 78.2487 192.922 79.7624 193.346 81.8841L195.307 81.4919ZM183.703 73.648C180.518 73.648 177.898 74.2647 175.961 75.6208L177.108 77.2592C178.584 76.226 180.743 75.648 183.703 75.648V73.648ZM175.941 75.6349C174.101 76.9912 173.103 78.7675 173.103 80.92H175.103C175.103 79.4885 175.726 78.2781 177.128 77.2451L175.941 75.6349ZM173.103 80.92C173.103 83.3603 174.756 85.1249 177.405 86.3125L178.224 84.4875C175.924 83.4564 175.103 82.2343 175.103 80.92H173.103ZM177.405 86.3125C179.963 87.459 183.318 88.5005 187.447 89.4467L187.894 87.4973C183.831 86.5662 180.615 85.5597 178.224 84.4875L177.405 86.3125ZM187.446 89.4464C191.853 90.4636 195.871 91.606 199.501 92.8722L200.16 90.9838C196.451 89.69 192.362 88.5284 187.895 87.4976L187.446 89.4464ZM199.527 92.8809C203.144 94.0316 205.967 95.7804 208.046 98.0995L209.535 96.7645C207.177 94.1342 204.027 92.2137 200.134 90.9751L199.527 92.8809ZM208.058 98.1125C210.048 100.256 211.119 103.431 211.119 107.8H213.119C213.119 103.123 211.971 99.3871 209.523 96.7515L208.058 98.1125ZM211.119 107.822C211.2 111.547 210.232 114.884 208.218 117.864L209.875 118.984C212.128 115.65 213.208 111.904 213.118 107.778L211.119 107.822ZM208.218 117.864C206.204 120.844 203.289 123.207 199.423 124.935L200.238 126.761C204.393 124.905 207.622 122.318 209.875 118.984L208.218 117.864ZM199.423 124.935C195.567 126.657 190.976 127.536 185.623 127.536V129.536C191.191 129.536 196.072 128.623 200.238 126.761L199.423 124.935ZM240.457 124.44L240.94 123.564L240.94 123.564L240.457 124.44ZM228.681 78.232L227.804 77.75L227.798 77.7614L228.681 78.232ZM240.201 66.328L240.702 67.1934L240.706 67.1907L240.201 66.328ZM274.121 66.072L273.624 66.9402L273.624 66.9402L274.121 66.072ZM285.257 77.336L284.382 77.8203L284.387 77.8297L284.392 77.8389L285.257 77.336ZM289.225 96.024L288.228 95.941L288.225 95.9824V96.024H289.225ZM289.097 99.224V100.224H290.023L290.094 99.3007L289.097 99.224ZM240.841 99.224V98.224H239.769L239.843 99.2928L240.841 99.224ZM245.961 110.872L245.285 111.609L245.295 111.618L245.961 110.872ZM265.673 112.92L266.22 113.757L266.227 113.752L265.673 112.92ZM270.793 107.032V106.032H270.154L269.885 106.611L270.793 107.032ZM287.433 107.032L288.391 107.317L288.774 106.032H287.433V107.032ZM281.417 118.04L280.653 117.394L280.652 117.396L281.417 118.04ZM271.177 125.72L270.76 124.811L270.753 124.814L271.177 125.72ZM246.985 78.744L247.57 79.5547L247.577 79.5494L247.585 79.544L246.985 78.744ZM241.097 88.984L240.113 88.8019L239.894 89.984H241.097V88.984ZM272.713 88.984V89.984H273.776L273.711 88.9229L272.713 88.984ZM268.105 79L268.765 78.2488L268.765 78.2488L268.105 79ZM257.481 127.536C251.227 127.536 245.722 126.203 240.94 123.564L239.973 125.316C245.089 128.138 250.934 129.536 257.481 129.536V127.536ZM240.94 123.564C236.153 120.923 232.403 117.216 229.678 112.425L227.939 113.415C230.846 118.523 234.861 122.495 239.973 125.316L240.94 123.564ZM229.678 112.425C226.959 107.647 225.585 102.104 225.585 95.768H223.585C223.585 102.402 225.026 108.295 227.939 113.415L229.678 112.425ZM225.585 95.768C225.585 89.3395 226.919 83.6595 229.563 78.7026L227.798 77.7614C224.981 83.0445 223.585 89.0552 223.585 95.768H225.585ZM229.557 78.7139C232.289 73.7469 236.002 69.9144 240.702 67.1934L239.699 65.4626C234.671 68.3736 230.704 72.4771 227.804 77.7501L229.557 78.7139ZM240.706 67.1907C245.479 64.3928 251.101 62.976 257.609 62.976V60.976C250.804 60.976 244.821 62.4605 239.695 65.4653L240.706 67.1907ZM257.609 62.976C263.687 62.976 269.016 64.3068 273.624 66.9402L274.617 65.2038C269.668 62.3759 263.989 60.976 257.609 60.976V62.976ZM273.624 66.9402C278.245 69.5808 281.826 73.2032 284.382 77.8203L286.131 76.8517C283.397 71.9115 279.553 68.0246 274.617 65.2038L273.624 66.9402ZM284.392 77.8389C287.028 82.369 288.353 87.4414 288.353 93.08H290.353C290.353 87.1132 288.946 81.6897 286.121 76.8331L284.392 77.8389ZM288.353 93.08C288.353 93.9885 288.311 94.942 288.228 95.941L290.221 96.107C290.308 95.058 290.353 94.0488 290.353 93.08H288.353ZM288.225 96.024C288.225 97.0203 288.183 98.0613 288.099 99.1473L290.094 99.3007C290.181 98.168 290.225 97.0757 290.225 96.024H288.225ZM289.097 98.224H240.841V100.224H289.097V98.224ZM239.843 99.2928C240.198 104.446 241.989 108.588 245.285 111.609L246.636 110.135C243.788 107.524 242.165 103.901 241.838 99.1552L239.843 99.2928ZM245.295 111.618C248.645 114.606 252.683 116.096 257.353 116.096V114.096C253.148 114.096 249.591 112.77 246.626 110.126L245.295 111.618ZM257.353 116.096C260.825 116.096 263.801 115.338 266.22 113.757L265.125 112.083C263.106 113.403 260.536 114.096 257.353 114.096V116.096ZM266.227 113.752C268.676 112.12 270.509 110.018 271.7 107.453L269.885 106.611C268.858 108.825 267.277 110.648 265.118 112.088L266.227 113.752ZM270.793 108.032H287.433V106.032H270.793V108.032ZM286.474 106.747C285.321 110.619 283.384 114.167 280.653 117.394L282.18 118.686C285.081 115.257 287.155 111.466 288.391 107.317L286.474 106.747ZM280.652 117.396C278.022 120.519 274.73 122.991 270.76 124.811L271.593 126.629C275.815 124.694 279.35 122.047 282.181 118.684L280.652 117.396ZM270.753 124.814C266.894 126.621 262.477 127.536 257.481 127.536V129.536C262.724 129.536 267.438 128.574 271.6 126.626L270.753 124.814ZM257.609 74.288C253.392 74.288 249.638 75.5041 246.385 77.944L247.585 79.544C250.475 77.3759 253.804 76.288 257.609 76.288V74.288ZM246.399 77.9333C243.072 80.3363 241.002 84.004 240.113 88.8019L242.08 89.1661C242.898 84.748 244.753 81.589 247.57 79.5547L246.399 77.9333ZM241.097 89.984H272.713V87.984H241.097V89.984ZM273.711 88.9229C273.44 84.5099 271.805 80.9207 268.765 78.2488L267.444 79.7512C270.036 82.0286 271.473 85.0954 271.714 89.0451L273.711 88.9229ZM268.765 78.2488C265.745 75.595 262.003 74.288 257.609 74.288V76.288C261.577 76.288 264.832 77.4557 267.444 79.7512L268.765 78.2488ZM297.885 127L296.9 126.826L296.692 128H297.885V127ZM313.757 37.4V36.4H312.918L312.772 37.2256L313.757 37.4ZM369.693 37.4L370.675 37.5849L370.898 36.4H369.693V37.4ZM367.261 50.328V51.328H368.09L368.243 50.5129L367.261 50.328ZM327.837 50.328V49.328H326.997L326.852 50.1548L327.837 50.328ZM323.357 75.8L322.372 75.6268L322.165 76.8H323.357V75.8ZM354.973 75.8L355.956 75.9807L356.173 74.8H354.973V75.8ZM352.669 88.344V89.344H353.502L353.652 88.5246L352.669 88.344ZM321.053 88.344V87.344H320.213L320.068 88.1711L321.053 88.344ZM314.269 127V128H315.108L315.253 127.173L314.269 127ZM298.869 127.174L314.741 37.5744L312.772 37.2256L296.9 126.826L298.869 127.174ZM313.757 38.4H369.693V36.4H313.757V38.4ZM368.71 37.2151L366.278 50.1431L368.243 50.5129L370.675 37.5849L368.71 37.2151ZM367.261 49.328H327.837V51.328H367.261V49.328ZM326.852 50.1548L322.372 75.6268L324.341 75.9732L328.821 50.5012L326.852 50.1548ZM323.357 76.8H354.973V74.8H323.357V76.8ZM353.989 75.6193L351.685 88.1633L353.652 88.5246L355.956 75.9807L353.989 75.6193ZM352.669 87.344H321.053V89.344H352.669V87.344ZM320.068 88.1711L313.284 126.827L315.253 127.173L322.037 88.5169L320.068 88.1711ZM314.269 126H297.885V128H314.269V126ZM380.956 125.976L380.5 126.866L380.508 126.87L380.517 126.875L380.956 125.976ZM373.148 118.936L372.286 119.443L372.286 119.443L373.148 118.936ZM377.5 95L378.122 95.7823L378.122 95.7823L377.5 95ZM414.364 89.496V90.496H415.364V89.496H414.364ZM410.652 78.36L411.289 77.5896L411.289 77.5896L410.652 78.36ZM392.732 77.72L393.259 78.5696L393.269 78.5632L393.28 78.5565L392.732 77.72ZM388.124 84.632V85.632H388.948L389.105 84.8229L388.124 84.632ZM372.124 84.632L371.128 84.5398L371.027 85.632H372.124V84.632ZM376.732 72.6L375.951 71.9753L375.946 71.9813L375.941 71.9874L376.732 72.6ZM387.228 64.792L387.615 65.714L387.623 65.7107L387.63 65.7073L387.228 64.792ZM422.94 68.76L422.284 69.5149L422.284 69.5149L422.94 68.76ZM430.748 127V128H431.748V127H430.748ZM416.796 127L415.807 127.148L415.934 128H416.796V127ZM415.26 116.76L416.248 116.612L415.809 113.685L414.383 116.278L415.26 116.76ZM407.324 125.208L406.778 124.369L406.769 124.376L407.324 125.208ZM408.988 111.128L408.23 110.475L408.224 110.482L408.219 110.488L408.988 111.128ZM413.98 99.736L414.968 99.8853L415.142 98.736H413.98V99.736ZM390.684 102.168L391.317 102.942L391.327 102.934L391.337 102.925L390.684 102.168ZM390.684 113.688L391.272 112.879L391.272 112.879L390.684 113.688ZM394.396 127.536C389.029 127.536 384.712 126.696 381.394 125.077L380.517 126.875C384.196 128.669 388.84 129.536 394.396 129.536V127.536ZM381.411 125.086C378.053 123.366 375.605 121.141 374.009 118.429L372.286 119.443C374.104 122.534 376.861 125.002 380.5 126.866L381.411 125.086ZM374.009 118.429C372.397 115.688 371.588 112.664 371.588 109.336H369.588C369.588 113.006 370.485 116.382 372.286 119.443L374.009 118.429ZM371.588 109.336C371.588 103.753 373.753 99.262 378.122 95.7823L376.877 94.2177C372.03 98.0767 369.588 103.143 369.588 109.336H371.588ZM378.122 95.7823C382.478 92.314 389.126 90.496 398.236 90.496V88.496C388.913 88.496 381.737 90.3473 376.877 94.2177L378.122 95.7823ZM398.236 90.496H414.364V88.496H398.236V90.496ZM415.364 89.496V87.96H413.364V89.496H415.364ZM415.364 87.96C415.364 83.4221 414.068 79.889 411.289 77.5896L410.014 79.1304C412.185 80.927 413.364 83.7939 413.364 87.96H415.364ZM411.289 77.5896C408.61 75.3723 405.303 74.288 401.436 74.288V76.288C404.907 76.288 407.744 77.2517 410.014 79.1304L411.289 77.5896ZM401.436 74.288C397.938 74.288 394.841 75.1425 392.183 76.8835L393.28 78.5565C395.572 77.0548 398.277 76.288 401.436 76.288V74.288ZM392.204 76.8704C389.474 78.565 387.788 81.1187 387.142 84.4411L389.105 84.8229C389.654 82.0013 391.04 79.947 393.259 78.5696L392.204 76.8704ZM388.124 83.632H372.124V85.632H388.124V83.632ZM373.119 84.7242C373.53 80.2915 375.002 76.4646 377.522 73.2126L375.941 71.9874C373.171 75.562 371.571 79.7565 371.128 84.5398L373.119 84.7242ZM377.512 73.2247C380.133 69.9495 383.493 67.4452 387.615 65.714L386.84 63.87C382.429 65.7228 378.792 68.4239 375.951 71.9753L377.512 73.2247ZM387.63 65.7073C391.754 63.8929 396.393 62.976 401.564 62.976V60.976C396.153 60.976 391.234 61.9364 386.825 63.8767L387.63 65.7073ZM401.564 62.976C410.444 62.976 417.311 65.1941 422.284 69.5149L423.595 68.0051C418.158 63.2806 410.773 60.976 401.564 60.976V62.976ZM422.284 69.5149C427.227 73.8096 429.748 79.9087 429.748 87.96H431.748C431.748 79.4566 429.063 72.7558 423.595 68.0051L422.284 69.5149ZM429.748 87.96V127H431.748V87.96H429.748ZM430.748 126H416.796V128H430.748V126ZM417.784 126.852L416.248 116.612L414.271 116.908L415.807 127.148L417.784 126.852ZM414.383 116.278C412.589 119.541 410.06 122.236 406.779 124.37L407.868 126.046C411.413 123.742 414.175 120.806 416.136 117.242L414.383 116.278ZM406.769 124.376C403.65 126.455 399.551 127.536 394.396 127.536V129.536C399.821 129.536 404.341 128.398 407.878 126.04L406.769 124.376ZM398.108 116.736C403.04 116.736 406.972 115.109 409.756 111.768L408.219 110.488C405.883 113.291 402.561 114.736 398.108 114.736V116.736ZM409.745 111.781C412.529 108.548 414.261 104.57 414.968 99.8853L412.991 99.5867C412.332 103.948 410.737 107.564 408.23 110.475L409.745 111.781ZM413.98 98.736H400.028V100.736H413.98V98.736ZM400.028 98.736C395.599 98.736 392.183 99.5516 390.03 101.411L391.337 102.925C392.939 101.542 395.752 100.736 400.028 100.736V98.736ZM390.05 101.394C387.955 103.108 386.868 105.306 386.868 107.928H388.868C388.868 105.942 389.657 104.3 391.317 102.942L390.05 101.394ZM386.868 107.928C386.868 110.698 387.94 112.929 390.095 114.497L391.272 112.879C389.672 111.716 388.868 110.107 388.868 107.928H386.868ZM390.095 114.497C392.191 116.021 394.892 116.736 398.108 116.736V114.736C395.179 114.736 392.93 114.086 391.272 112.879L390.095 114.497ZM446.383 127H445.383V128H446.383V127ZM446.383 34.84V33.84H445.383V34.84H446.383ZM462.767 34.84H463.767V33.84H462.767V34.84ZM462.767 127V128H463.767V127H462.767ZM447.383 127V34.84H445.383V127H447.383ZM446.383 35.84H462.767V33.84H446.383V35.84ZM461.767 34.84V127H463.767V34.84H461.767ZM462.767 126H446.383V128H462.767V126ZM487.956 125.976L487.5 126.866L487.508 126.87L487.517 126.875L487.956 125.976ZM480.148 118.936L479.286 119.443L479.286 119.443L480.148 118.936ZM484.5 95L485.122 95.7823L485.122 95.7823L484.5 95ZM521.364 89.496V90.496H522.364V89.496H521.364ZM517.652 78.36L518.289 77.5896L518.289 77.5896L517.652 78.36ZM499.732 77.72L500.259 78.5696L500.269 78.5632L500.28 78.5565L499.732 77.72ZM495.124 84.632V85.632H495.948L496.105 84.8229L495.124 84.632ZM479.124 84.632L478.128 84.5398L478.027 85.632H479.124V84.632ZM483.732 72.6L482.951 71.9753L482.946 71.9813L482.941 71.9874L483.732 72.6ZM494.228 64.792L494.615 65.714L494.623 65.7107L494.63 65.7073L494.228 64.792ZM529.94 68.76L529.284 69.5149L529.284 69.5149L529.94 68.76ZM537.748 127V128H538.748V127H537.748ZM523.796 127L522.807 127.148L522.934 128H523.796V127ZM522.26 116.76L523.248 116.612L522.809 113.685L521.383 116.278L522.26 116.76ZM514.324 125.208L513.778 124.369L513.769 124.376L514.324 125.208ZM515.988 111.128L515.23 110.475L515.224 110.482L515.219 110.488L515.988 111.128ZM520.98 99.736L521.968 99.8853L522.142 98.736H520.98V99.736ZM497.684 102.168L498.317 102.942L498.327 102.934L498.337 102.925L497.684 102.168ZM497.684 113.688L498.272 112.879L498.272 112.879L497.684 113.688ZM501.396 127.536C496.029 127.536 491.712 126.696 488.394 125.077L487.517 126.875C491.196 128.669 495.84 129.536 501.396 129.536V127.536ZM488.411 125.086C485.053 123.366 482.605 121.141 481.009 118.429L479.286 119.443C481.104 122.534 483.861 125.002 487.5 126.866L488.411 125.086ZM481.009 118.429C479.397 115.688 478.588 112.664 478.588 109.336H476.588C476.588 113.006 477.485 116.382 479.286 119.443L481.009 118.429ZM478.588 109.336C478.588 103.753 480.753 99.262 485.122 95.7823L483.877 94.2177C479.03 98.0767 476.588 103.143 476.588 109.336H478.588ZM485.122 95.7823C489.478 92.314 496.126 90.496 505.236 90.496V88.496C495.913 88.496 488.737 90.3473 483.877 94.2177L485.122 95.7823ZM505.236 90.496H521.364V88.496H505.236V90.496ZM522.364 89.496V87.96H520.364V89.496H522.364ZM522.364 87.96C522.364 83.4221 521.068 79.889 518.289 77.5896L517.014 79.1304C519.185 80.927 520.364 83.7939 520.364 87.96H522.364ZM518.289 77.5896C515.61 75.3723 512.303 74.288 508.436 74.288V76.288C511.907 76.288 514.744 77.2517 517.014 79.1304L518.289 77.5896ZM508.436 74.288C504.938 74.288 501.841 75.1425 499.183 76.8835L500.28 78.5565C502.572 77.0548 505.277 76.288 508.436 76.288V74.288ZM499.204 76.8704C496.474 78.565 494.788 81.1187 494.142 84.4411L496.105 84.8229C496.654 82.0013 498.04 79.947 500.259 78.5696L499.204 76.8704ZM495.124 83.632H479.124V85.632H495.124V83.632ZM480.119 84.7242C480.53 80.2915 482.002 76.4646 484.522 73.2126L482.941 71.9874C480.171 75.562 478.571 79.7565 478.128 84.5398L480.119 84.7242ZM484.512 73.2247C487.133 69.9495 490.493 67.4452 494.615 65.714L493.84 63.87C489.429 65.7228 485.792 68.4239 482.951 71.9753L484.512 73.2247ZM494.63 65.7073C498.754 63.8929 503.393 62.976 508.564 62.976V60.976C503.153 60.976 498.234 61.9364 493.825 63.8767L494.63 65.7073ZM508.564 62.976C517.444 62.976 524.311 65.1941 529.284 69.5149L530.595 68.0051C525.158 63.2806 517.773 60.976 508.564 60.976V62.976ZM529.284 69.5149C534.227 73.8096 536.748 79.9087 536.748 87.96H538.748C538.748 79.4566 536.063 72.7558 530.595 68.0051L529.284 69.5149ZM536.748 87.96V127H538.748V87.96H536.748ZM537.748 126H523.796V128H537.748V126ZM524.784 126.852L523.248 116.612L521.271 116.908L522.807 127.148L524.784 126.852ZM521.383 116.278C519.589 119.541 517.06 122.236 513.779 124.37L514.868 126.046C518.413 123.742 521.175 120.806 523.136 117.242L521.383 116.278ZM513.769 124.376C510.65 126.455 506.551 127.536 501.396 127.536V129.536C506.821 129.536 511.341 128.398 514.878 126.04L513.769 124.376ZM505.108 116.736C510.04 116.736 513.972 115.109 516.756 111.768L515.219 110.488C512.883 113.291 509.561 114.736 505.108 114.736V116.736ZM516.745 111.781C519.529 108.548 521.261 104.57 521.968 99.8853L519.991 99.5867C519.332 103.948 517.737 107.564 515.23 110.475L516.745 111.781ZM520.98 98.736H507.028V100.736H520.98V98.736ZM507.028 98.736C502.599 98.736 499.183 99.5516 497.03 101.411L498.337 102.925C499.939 101.542 502.752 100.736 507.028 100.736V98.736ZM497.05 101.394C494.955 103.108 493.868 105.306 493.868 107.928H495.868C495.868 105.942 496.657 104.3 498.317 102.942L497.05 101.394ZM493.868 107.928C493.868 110.698 494.94 112.929 497.095 114.497L498.272 112.879C496.672 111.716 495.868 110.107 495.868 107.928H493.868ZM497.095 114.497C499.191 116.021 501.892 116.736 505.108 116.736V114.736C502.179 114.736 499.93 114.086 498.272 112.879L497.095 114.497ZM553.383 127H552.383V128H553.383V127ZM553.383 34.84V33.84H552.383V34.84H553.383ZM569.767 34.84H570.767V33.84H569.767V34.84ZM569.767 89.24H568.767V91.9L570.519 89.8988L569.767 89.24ZM592.295 63.512V62.512H591.841L591.542 62.8532L592.295 63.512ZM611.751 63.512L612.494 64.1802L613.993 62.512H611.751V63.512ZM585.767 92.44L585.023 91.7718L584.43 92.431L585.014 93.0981L585.767 92.44ZM615.975 127V128H618.177L616.727 126.342L615.975 127ZM595.495 127L594.716 127.628L595.017 128H595.495V127ZM569.767 95.128L570.545 94.4999L568.767 92.2971V95.128H569.767ZM569.767 127V128H570.767V127H569.767ZM554.383 127V34.84H552.383V127H554.383ZM553.383 35.84H569.767V33.84H553.383V35.84ZM568.767 34.84V89.24H570.767V34.84H568.767ZM570.519 89.8988L593.047 64.1708L591.542 62.8532L569.014 88.5812L570.519 89.8988ZM592.295 64.512H611.751V62.512H592.295V64.512ZM611.007 62.8438L585.023 91.7718L586.51 93.1082L612.494 64.1802L611.007 62.8438ZM585.014 93.0981L615.222 127.658L616.727 126.342L586.519 91.7819L585.014 93.0981ZM615.975 126H595.495V128H615.975V126ZM596.273 126.372L570.545 94.4999L568.988 95.7561L594.716 127.628L596.273 126.372ZM568.767 95.128V127H570.767V95.128H568.767ZM569.767 126H553.383V128H569.767V126Z" fill="black"/>
</g>
</g>
<defs>
<filter id="filter0_d_30_76" x="11.8915" y="34.84" width="606.083" height="97.696" filterUnits="userSpaceOnUse" color-interpolation-filters="sRGB">
<feFlood flood-opacity="0" result="BackgroundImageFix"/>
<feColorMatrix in="SourceAlpha" type="matrix" values="0 0 0 0 0 0 0 0 0 0 0 0 0 0 0 0 0 0 127 0" result="hardAlpha"/>
<feOffset dx="2" dy="4"/>
<feComposite in2="hardAlpha" operator="out"/>
<feColorMatrix type="matrix" values="0 0 0 0 0 0 0 0 0 0 0 0 0 0 0 0 0 0 1 0"/>
<feBlend mode="normal" in2="BackgroundImageFix" result="effect1_dropShadow_30_76"/>
<feBlend mode="normal" in="SourceGraphic" in2="effect1_dropShadow_30_76" result="shape"/>
</filter>
<clipPath id="clip0_30_76">
<rect width="620" height="142" fill="white"/>
</clipPath>
</defs>
</svg>
