<svg width="69" height="64" viewBox="0 0 69 64" fill="none" xmlns="http://www.w3.org/2000/svg">
<path d="M31.5883 20.7861C33.3776 18.1388 29.5884 15.2861 27.5883 16.7861C25.5881 18.2861 4.08827 38.7861 4.08827 38.7861C-5.41157 52.2861 8.58833 67.7861 24.5883 60.7861L64.5883 25.2861C67.0882 22.2861 63.0884 18.2861 60.0883 20.7861L48.0883 31.2861C44.5884 33.2861 41.5884 30.7861 43.5883 27.2861L67.0882 6.28608C69.0884 3.28605 66.0884 -0.713959 62.5883 1.78607L36.5883 25.2861C28.0884 34.2861 23.5884 26.7861 31.5883 20.7861Z" fill="#FFC107"/>
<path d="M39.0884 14.786C36.0884 16.286 33.0884 13.786 34.5884 10.786L43.0884 2.78604C47.5884 1.28604 49.5884 4.28604 47.5884 7.28604L39.0884 14.786Z" fill="#FFC107"/>
<path d="M31.5883 20.7861C33.3776 18.1388 29.5884 15.2861 27.5883 16.7861C25.5881 18.2861 4.08827 38.7861 4.08827 38.7861C-5.41157 52.2861 8.58833 67.7861 24.5883 60.7861L64.5883 25.2861C67.0882 22.2861 63.0884 18.2861 60.0883 20.7861L48.0883 31.2861C44.5884 33.2861 41.5884 30.7861 43.5883 27.2861L67.0882 6.28608C69.0884 3.28605 66.0884 -0.713959 62.5883 1.78607L36.5883 25.2861C28.0884 34.2861 23.5884 26.7861 31.5883 20.7861Z" stroke="black"/>
<path d="M39.0884 14.786C36.0884 16.286 33.0884 13.786 34.5884 10.786L43.0884 2.78604C47.5884 1.28604 49.5884 4.28604 47.5884 7.28604L39.0884 14.786Z" stroke="black"/>
<circle cx="17.0884" cy="47.786" r="9.5" fill="#B9D6F2" stroke="black"/>
</svg>
