<svg width="500" height="298" viewBox="0 0 500 298" fill="none" xmlns="http://www.w3.org/2000/svg">
<rect x="0.5" y="80.8352" width="499" height="215.667" rx="107.833" fill="#FFC107" stroke="black"/>
<path d="M99.2943 242.774V221.778C99.2943 215.756 102.875 210.263 110.037 205.299L142.507 182.228L110.037 159.278C102.875 154.314 99.2943 148.821 99.2943 142.799V121.803C99.2943 118.792 100.393 116.716 102.59 115.577C103.404 115.17 104.381 114.967 105.52 114.967C106.741 114.967 108.246 115.577 110.037 116.798L179.495 165.992C184.296 169.492 186.737 173.927 186.819 179.298V185.279C186.819 190.65 184.377 195.045 179.495 198.463L110.037 247.779C108.246 248.919 106.741 249.488 105.52 249.488C104.299 249.488 103.323 249.285 102.59 248.878C100.393 247.82 99.2943 245.785 99.2943 242.774Z" fill="white"/>
</svg>
