<svg width="644" height="95" viewBox="0 0 644 95" fill="none" xmlns="http://www.w3.org/2000/svg">
<path d="M23.9425 93L0.2625 3.39999H17.7985L33.9265 74.696L52.8705 3.39999H70.9185L89.3505 74.696L105.479 3.39999H123.143L98.8225 93H79.3665L61.5745 26.568L43.2705 93H23.9425ZM134.633 93V0.839996H151.017V39.24C153.15 35.7413 156.009 33.0107 159.593 31.048C163.262 29 167.443 27.976 172.137 27.976C179.987 27.976 186.046 30.4507 190.312 35.4C194.664 40.3493 196.84 47.6027 196.84 57.16V93H180.585V58.696C180.585 53.2347 179.475 49.0533 177.257 46.152C175.123 43.2507 171.71 41.8 167.017 41.8C162.409 41.8 158.569 43.4213 155.497 46.664C152.51 49.9067 151.017 54.4293 151.017 60.232V93H134.633ZM234.396 94.536C228.934 94.536 224.454 93.6827 220.956 91.976C217.457 90.184 214.854 87.8373 213.148 84.936C211.441 82.0347 210.588 78.8347 210.588 75.336C210.588 69.448 212.892 64.6693 217.5 61C222.108 57.3307 229.02 55.496 238.236 55.496H254.364V53.96C254.364 49.608 253.126 46.408 250.652 44.36C248.177 42.312 245.105 41.288 241.436 41.288C238.108 41.288 235.206 42.0987 232.732 43.72C230.257 45.256 228.721 47.56 228.124 50.632H212.124C212.55 46.024 214.086 42.0133 216.732 38.6C219.462 35.1867 222.961 32.584 227.228 30.792C231.494 28.9147 236.273 27.976 241.564 27.976C250.609 27.976 257.734 30.2373 262.94 34.76C268.145 39.2827 270.748 45.6827 270.748 53.96V93H256.796L255.26 82.76C253.382 86.1733 250.737 88.9893 247.324 91.208C243.996 93.4267 239.686 94.536 234.396 94.536ZM238.108 81.736C242.801 81.736 246.428 80.2 248.988 77.128C251.633 74.056 253.297 70.2587 253.98 65.736H240.028C235.676 65.736 232.561 66.5467 230.684 68.168C228.806 69.704 227.868 71.624 227.868 73.928C227.868 76.4027 228.806 78.3227 230.684 79.688C232.561 81.0533 235.036 81.736 238.108 81.736ZM313.796 93C307.14 93 301.806 91.3787 297.796 88.136C293.785 84.8933 291.78 79.1333 291.78 70.856V43.208H280.9V29.512H291.78L293.7 12.488H308.164V29.512H325.316V43.208H308.164V70.984C308.164 74.056 308.804 76.1893 310.083 77.384C311.449 78.4933 313.753 79.048 316.996 79.048H324.932V93H313.796ZM378.715 19.656C375.728 19.656 373.253 18.76 371.291 16.968C369.413 15.176 368.475 12.9147 368.475 10.184C368.475 7.45333 369.413 5.23466 371.291 3.52799C373.253 1.73599 375.728 0.839996 378.715 0.839996C381.701 0.839996 384.133 1.73599 386.011 3.52799C387.973 5.23466 388.955 7.45333 388.955 10.184C388.955 12.9147 387.973 15.176 386.011 16.968C384.133 18.76 381.701 19.656 378.715 19.656ZM370.523 93V29.512H386.907V93H370.523ZM430.248 94.536C424.616 94.536 419.666 93.64 415.4 91.848C411.133 89.9707 407.72 87.4107 405.16 84.168C402.6 80.9253 401.064 77.1707 400.552 72.904H417.064C417.576 75.3787 418.941 77.512 421.16 79.304C423.464 81.0107 426.408 81.864 429.992 81.864C433.576 81.864 436.178 81.1387 437.8 79.688C439.506 78.2373 440.36 76.5733 440.36 74.696C440.36 71.9653 439.165 70.1307 436.776 69.192C434.386 68.168 431.058 67.1867 426.792 66.248C424.061 65.6507 421.288 64.9253 418.472 64.072C415.656 63.2187 413.053 62.152 410.664 60.872C408.36 59.5067 406.482 57.8 405.032 55.752C403.581 53.6187 402.856 51.016 402.856 47.944C402.856 42.312 405.074 37.576 409.512 33.736C414.034 29.896 420.349 27.976 428.456 27.976C435.965 27.976 441.938 29.7253 446.376 33.224C450.898 36.7227 453.586 41.544 454.44 47.688H438.952C438.013 42.9947 434.472 40.648 428.328 40.648C425.256 40.648 422.866 41.2453 421.16 42.44C419.538 43.6347 418.728 45.128 418.728 46.92C418.728 48.7973 419.965 50.2907 422.44 51.4C424.914 52.5093 428.2 53.5333 432.296 54.472C436.733 55.496 440.786 56.648 444.456 57.928C448.21 59.1227 451.197 60.9573 453.416 63.432C455.634 65.8213 456.744 69.2773 456.744 73.8C456.829 77.7253 455.805 81.2667 453.672 84.424C451.538 87.5813 448.466 90.056 444.456 91.848C440.445 93.64 435.709 94.536 430.248 94.536ZM510.59 19.656C507.603 19.656 505.128 18.76 503.166 16.968C501.288 15.176 500.35 12.9147 500.35 10.184C500.35 7.45333 501.288 5.23466 503.166 3.52799C505.128 1.73599 507.603 0.839996 510.59 0.839996C513.576 0.839996 516.008 1.73599 517.886 3.52799C519.848 5.23466 520.83 7.45333 520.83 10.184C520.83 12.9147 519.848 15.176 517.886 16.968C516.008 18.76 513.576 19.656 510.59 19.656ZM502.398 93V29.512H518.782V93H502.398ZM564.171 93C557.515 93 552.181 91.3787 548.171 88.136C544.16 84.8933 542.155 79.1333 542.155 70.856V43.208H531.275V29.512H542.155L544.075 12.488H558.539V29.512H575.691V43.208H558.539V70.984C558.539 74.056 559.179 76.1893 560.458 77.384C561.824 78.4933 564.128 79.048 567.371 79.048H575.307V93H564.171ZM598.974 65.096L598.462 43.976H604.35C608.702 43.976 612.67 43.592 616.254 42.824C619.838 42.056 622.696 40.5627 624.83 38.344C626.963 36.1253 628.03 32.8827 628.03 28.616C628.03 24.52 626.792 21.32 624.318 19.016C621.843 16.6267 618.558 15.432 614.462 15.432C610.195 15.432 606.867 16.6267 604.478 19.016C602.088 21.32 600.894 24.4773 600.894 28.488H585.406C585.32 23.368 586.43 18.8027 588.734 14.792C591.038 10.7813 594.366 7.62399 598.718 5.31999C603.155 3.016 608.446 1.864 614.59 1.864C620.307 1.864 625.342 2.93066 629.694 5.064C634.131 7.19733 637.587 10.2693 640.062 14.28C642.622 18.2053 643.902 23.0267 643.902 28.744C643.902 34.632 642.579 39.496 639.934 43.336C637.374 47.176 633.832 50.0347 629.31 51.912C624.872 53.7893 619.71 54.7707 613.822 54.856L613.438 65.096H598.974ZM606.27 93.896C603.283 93.896 600.808 92.9573 598.846 91.08C596.968 89.2027 596.03 86.9413 596.03 84.296C596.03 81.5653 596.968 79.2613 598.846 77.384C600.808 75.5067 603.283 74.568 606.27 74.568C609.256 74.568 611.688 75.5067 613.566 77.384C615.443 79.2613 616.382 81.5653 616.382 84.296C616.382 86.9413 615.443 89.2027 613.566 91.08C611.688 92.9573 609.256 93.896 606.27 93.896Z" fill="white"/>
<path d="M23.9425 93L22.9757 93.2555L23.1725 94H23.9425V93ZM0.2625 3.39999V2.39999H-1.03612L-0.704306 3.65551L0.2625 3.39999ZM17.7985 3.39999L18.7739 3.17936L18.5976 2.39999H17.7985V3.39999ZM33.9265 74.696L32.9511 74.9166L34.893 74.9528L33.9265 74.696ZM52.8705 3.39999V2.39999H52.1015L51.904 3.1432L52.8705 3.39999ZM70.9185 3.39999L71.8867 3.1497L71.6929 2.39999H70.9185V3.39999ZM89.3505 74.696L88.3823 74.9463L90.3259 74.9166L89.3505 74.696ZM105.479 3.39999V2.39999H104.679L104.503 3.17936L105.479 3.39999ZM123.143 3.39999L124.108 3.66194L124.45 2.39999H123.143V3.39999ZM98.8225 93V94H99.5873L99.7876 93.262L98.8225 93ZM79.3665 93L78.4005 93.2587L78.5991 94H79.3665V93ZM61.5745 26.568L62.5405 26.3093L61.5882 22.7537L60.6104 26.3024L61.5745 26.568ZM43.2705 93V94H44.0322L44.2346 93.2656L43.2705 93ZM24.9093 92.7445L1.22931 3.14448L-0.704306 3.65551L22.9757 93.2555L24.9093 92.7445ZM0.2625 4.39999H17.7985V2.39999H0.2625V4.39999ZM16.8231 3.62063L32.9511 74.9166L34.9019 74.4754L18.7739 3.17936L16.8231 3.62063ZM34.893 74.9528L53.837 3.65679L51.904 3.1432L32.96 74.4392L34.893 74.9528ZM52.8705 4.39999H70.9185V2.39999H52.8705V4.39999ZM69.9503 3.65029L88.3823 74.9463L90.3187 74.4457L71.8867 3.1497L69.9503 3.65029ZM90.3259 74.9166L106.454 3.62063L104.503 3.17936L88.3751 74.4754L90.3259 74.9166ZM105.479 4.39999H123.143V2.39999H105.479V4.39999ZM122.177 3.13804L97.8574 92.738L99.7876 93.262L124.108 3.66194L122.177 3.13804ZM98.8225 92H79.3665V94H98.8225V92ZM80.3325 92.7413L62.5405 26.3093L60.6085 26.8267L78.4005 93.2587L80.3325 92.7413ZM60.6104 26.3024L42.3064 92.7344L44.2346 93.2656L62.5386 26.8336L60.6104 26.3024ZM43.2705 92H23.9425V94H43.2705V92ZM134.633 93H133.633V94H134.633V93ZM134.633 0.839996V-0.160004H133.633V0.839996H134.633ZM151.017 0.839996H152.017V-0.160004H151.017V0.839996ZM151.017 39.24H150.017V42.8008L151.87 39.7606L151.017 39.24ZM159.593 31.048L160.073 31.9251L160.08 31.9212L159.593 31.048ZM190.312 35.4L189.555 36.053L189.562 36.0603L190.312 35.4ZM196.84 93V94H197.84V93H196.84ZM180.585 93H179.585V94H180.585V93ZM177.257 46.152L176.451 46.7444L176.456 46.752L176.462 46.7594L177.257 46.152ZM155.497 46.664L154.77 45.9762L154.761 45.9865L155.497 46.664ZM151.017 93V94H152.017V93H151.017ZM135.633 93V0.839996H133.633V93H135.633ZM134.633 1.84H151.017V-0.160004H134.633V1.84ZM150.017 0.839996V39.24H152.017V0.839996H150.017ZM151.87 39.7606C153.913 36.411 156.643 33.8034 160.073 31.9251L159.112 30.1709C155.374 32.2179 152.387 35.0717 150.163 38.7194L151.87 39.7606ZM160.08 31.9212C163.583 29.9657 167.593 28.976 172.137 28.976V26.976C167.293 26.976 162.94 28.0343 159.105 30.1748L160.08 31.9212ZM172.137 28.976C179.76 28.976 185.517 31.3684 189.555 36.0529L191.07 34.7471C186.575 29.533 180.214 26.976 172.137 26.976V28.976ZM189.562 36.0603C193.694 40.76 195.84 47.7382 195.84 57.16H197.84C197.84 47.4671 195.635 39.9387 191.063 34.7397L189.562 36.0603ZM195.84 57.16V93H197.84V57.16H195.84ZM196.84 92H180.585V94H196.84V92ZM181.585 93V58.696H179.585V93H181.585ZM181.585 58.696C181.585 53.1188 180.455 48.6878 178.051 45.5445L176.462 46.7594C178.496 49.4188 179.585 53.3505 179.585 58.696H181.585ZM178.062 45.5596C175.685 42.3272 171.922 40.8 167.017 40.8V42.8C171.498 42.8 174.561 44.1741 176.451 46.7444L178.062 45.5596ZM167.017 40.8C162.144 40.8 158.038 42.5272 154.771 45.9763L156.222 47.3517C159.099 44.3154 162.673 42.8 167.017 42.8V40.8ZM154.761 45.9865C151.556 49.466 150.017 54.2597 150.017 60.232H152.017C152.017 54.599 153.464 50.3473 156.232 47.3415L154.761 45.9865ZM150.017 60.232V93H152.017V60.232H150.017ZM151.017 92H134.633V94H151.017V92ZM220.956 91.976L220.5 92.866L220.508 92.8705L220.517 92.8748L220.956 91.976ZM213.148 84.936L212.286 85.443L212.286 85.443L213.148 84.936ZM217.5 61L218.122 61.7823L218.122 61.7823L217.5 61ZM254.364 55.496V56.496H255.364V55.496H254.364ZM250.652 44.36L251.289 43.5896L251.289 43.5896L250.652 44.36ZM232.732 43.72L233.259 44.5696L233.269 44.5632L233.28 44.5565L232.732 43.72ZM228.124 50.632V51.632H228.948L229.105 50.8229L228.124 50.632ZM212.124 50.632L211.128 50.5398L211.027 51.632H212.124V50.632ZM216.732 38.6L215.951 37.9753L215.946 37.9813L215.941 37.9874L216.732 38.6ZM227.228 30.792L227.615 31.714L227.623 31.7107L227.63 31.7073L227.228 30.792ZM262.94 34.76L262.284 35.5149L262.284 35.5149L262.94 34.76ZM270.748 93V94H271.748V93H270.748ZM256.796 93L255.807 93.1483L255.934 94H256.796V93ZM255.26 82.76L256.248 82.6117L255.809 79.6851L254.383 82.2781L255.26 82.76ZM247.324 91.208L246.778 90.3695L246.769 90.3759L247.324 91.208ZM248.988 77.128L248.23 76.4755L248.224 76.4816L248.219 76.4878L248.988 77.128ZM253.98 65.736L254.968 65.8853L255.142 64.736H253.98V65.736ZM230.684 68.168L231.317 68.942L231.327 68.9335L231.337 68.9248L230.684 68.168ZM230.684 79.688L231.272 78.8793L231.272 78.8793L230.684 79.688ZM234.396 93.536C229.029 93.536 224.712 92.696 221.394 91.0772L220.517 92.8748C224.196 94.6693 228.84 95.536 234.396 95.536V93.536ZM221.411 91.086C218.053 89.3657 215.605 87.1408 214.009 84.429L212.286 85.443C214.104 88.5339 216.861 91.0023 220.5 92.866L221.411 91.086ZM214.009 84.429C212.397 81.6875 211.588 78.6637 211.588 75.336H209.588C209.588 79.0056 210.485 82.3818 212.286 85.443L214.009 84.429ZM211.588 75.336C211.588 69.7527 213.753 65.262 218.122 61.7823L216.877 60.2177C212.03 64.0767 209.588 69.1433 209.588 75.336H211.588ZM218.122 61.7823C222.478 58.314 229.126 56.496 238.236 56.496V54.496C228.913 54.496 221.737 56.3473 216.877 60.2177L218.122 61.7823ZM238.236 56.496H254.364V54.496H238.236V56.496ZM255.364 55.496V53.96H253.364V55.496H255.364ZM255.364 53.96C255.364 49.4221 254.068 45.889 251.289 43.5896L250.014 45.1304C252.185 46.927 253.364 49.7939 253.364 53.96H255.364ZM251.289 43.5896C248.61 41.3723 245.303 40.288 241.436 40.288V42.288C244.907 42.288 247.744 43.2517 250.014 45.1304L251.289 43.5896ZM241.436 40.288C237.938 40.288 234.841 41.1425 232.183 42.8835L233.28 44.5565C235.572 43.0548 238.277 42.288 241.436 42.288V40.288ZM232.204 42.8704C229.474 44.565 227.788 47.1187 227.142 50.4411L229.105 50.8229C229.654 48.0013 231.04 45.947 233.259 44.5696L232.204 42.8704ZM228.124 49.632H212.124V51.632H228.124V49.632ZM213.119 50.7242C213.53 46.2915 215.002 42.4646 217.522 39.2126L215.941 37.9874C213.171 41.562 211.571 45.7565 211.128 50.5398L213.119 50.7242ZM217.512 39.2247C220.133 35.9495 223.493 33.4452 227.615 31.714L226.84 29.87C222.429 31.7228 218.792 34.4239 215.951 37.9753L217.512 39.2247ZM227.63 31.7073C231.754 29.8929 236.393 28.976 241.564 28.976V26.976C236.153 26.976 231.234 27.9364 226.825 29.8767L227.63 31.7073ZM241.564 28.976C250.444 28.976 257.311 31.1941 262.284 35.5149L263.595 34.0051C258.158 29.2806 250.773 26.976 241.564 26.976V28.976ZM262.284 35.5149C267.227 39.8096 269.748 45.9087 269.748 53.96H271.748C271.748 45.4566 269.063 38.7558 263.595 34.0051L262.284 35.5149ZM269.748 53.96V93H271.748V53.96H269.748ZM270.748 92H256.796V94H270.748V92ZM257.784 92.8517L256.248 82.6117L254.271 82.9083L255.807 93.1483L257.784 92.8517ZM254.383 82.2781C252.589 85.5405 250.06 88.2365 246.779 90.3696L247.868 92.0464C251.413 89.7422 254.175 86.8061 256.136 83.2419L254.383 82.2781ZM246.769 90.3759C243.65 92.4549 239.551 93.536 234.396 93.536V95.536C239.821 95.536 244.341 94.3985 247.878 92.0401L246.769 90.3759ZM238.108 82.736C243.04 82.736 246.972 81.1088 249.756 77.7682L248.219 76.4878C245.883 79.2912 242.561 80.736 238.108 80.736V82.736ZM249.745 77.7805C252.529 74.5482 254.261 70.5695 254.968 65.8853L252.991 65.5867C252.332 69.9478 250.737 73.5638 248.23 76.4755L249.745 77.7805ZM253.98 64.736H240.028V66.736H253.98V64.736ZM240.028 64.736C235.599 64.736 232.183 65.5516 230.03 67.4112L231.337 68.9248C232.939 67.5417 235.752 66.736 240.028 66.736V64.736ZM230.05 67.394C227.955 69.1084 226.868 71.3063 226.868 73.928H228.868C228.868 71.9417 229.657 70.2996 231.317 68.942L230.05 67.394ZM226.868 73.928C226.868 76.6979 227.94 78.9291 230.095 80.4967L231.272 78.8793C229.672 77.7162 228.868 76.1075 228.868 73.928H226.868ZM230.095 80.4967C232.191 82.0211 234.892 82.736 238.108 82.736V80.736C235.179 80.736 232.93 80.0856 231.272 78.8793L230.095 80.4967ZM297.796 88.136L298.424 87.3584L298.424 87.3584L297.796 88.136ZM291.78 43.208H292.78V42.208H291.78V43.208ZM280.9 43.208H279.9V44.208H280.9V43.208ZM280.9 29.512V28.512H279.9V29.512H280.9ZM291.78 29.512V30.512H292.673L292.773 29.6241L291.78 29.512ZM293.7 12.488V11.488H292.806L292.706 12.3759L293.7 12.488ZM308.164 12.488H309.164V11.488H308.164V12.488ZM308.164 29.512H307.164V30.512H308.164V29.512ZM325.316 29.512H326.316V28.512H325.316V29.512ZM325.316 43.208V44.208H326.316V43.208H325.316ZM308.164 43.208V42.208H307.164V43.208H308.164ZM310.083 77.384L309.401 78.1151L309.426 78.1385L309.453 78.1601L310.083 77.384ZM324.932 79.048H325.932V78.048H324.932V79.048ZM324.932 93V94H325.932V93H324.932ZM313.796 92C307.301 92 302.211 90.4198 298.424 87.3584L297.167 88.9136C301.402 92.3375 306.978 94 313.796 94V92ZM298.424 87.3584C294.76 84.3961 292.78 79.013 292.78 70.856H290.78C290.78 79.2536 292.809 85.3906 297.167 88.9136L298.424 87.3584ZM292.78 70.856V43.208H290.78V70.856H292.78ZM291.78 42.208H280.9V44.208H291.78V42.208ZM281.9 43.208V29.512H279.9V43.208H281.9ZM280.9 30.512H291.78V28.512H280.9V30.512ZM292.773 29.6241L294.693 12.6001L292.706 12.3759L290.786 29.3999L292.773 29.6241ZM293.7 13.488H308.164V11.488H293.7V13.488ZM307.164 12.488V29.512H309.164V12.488H307.164ZM308.164 30.512H325.316V28.512H308.164V30.512ZM324.316 29.512V43.208H326.316V29.512H324.316ZM325.316 42.208H308.164V44.208H325.316V42.208ZM307.164 43.208V70.984H309.164V43.208H307.164ZM307.164 70.984C307.164 74.1379 307.81 76.63 309.401 78.1151L310.766 76.6529C309.797 75.7486 309.164 73.9741 309.164 70.984H307.164ZM309.453 78.1601C311.094 79.4939 313.693 80.048 316.996 80.048V78.048C313.812 78.048 311.803 77.4928 310.714 76.6079L309.453 78.1601ZM316.996 80.048H324.932V78.048H316.996V80.048ZM323.932 79.048V93H325.932V79.048H323.932ZM324.932 92H313.796V94H324.932V92ZM371.291 16.968L370.6 17.6914L370.608 17.699L370.616 17.7065L371.291 16.968ZM371.291 3.52799L371.963 4.26793L371.965 4.26648L371.291 3.52799ZM386.011 3.52799L385.32 4.25135L385.337 4.26737L385.354 4.2826L386.011 3.52799ZM386.011 16.968L385.336 16.2295L385.328 16.237L385.32 16.2446L386.011 16.968ZM370.523 93H369.523V94H370.523V93ZM370.523 29.512V28.512H369.523V29.512H370.523ZM386.907 29.512H387.907V28.512H386.907V29.512ZM386.907 93V94H387.907V93H386.907ZM378.715 18.656C375.944 18.656 373.72 17.8321 371.965 16.2295L370.616 17.7065C372.786 19.6879 375.512 20.656 378.715 20.656V18.656ZM371.981 16.2446C370.313 14.6521 369.475 12.6574 369.475 10.184H367.475C367.475 13.172 368.514 15.6999 370.6 17.6914L371.981 16.2446ZM369.475 10.184C369.475 7.71095 370.312 5.76944 371.963 4.26793L370.618 2.78805C368.515 4.69989 367.475 7.19571 367.475 10.184H369.475ZM371.965 4.26648C373.72 2.66388 375.944 1.84 378.715 1.84V-0.160004C375.512 -0.160004 372.786 0.808114 370.616 2.78951L371.965 4.26648ZM378.715 1.84C381.486 1.84 383.657 2.66379 385.32 4.25135L386.701 2.80464C384.609 0.808198 381.917 -0.160004 378.715 -0.160004V1.84ZM385.354 4.2826C387.086 5.78881 387.955 7.72633 387.955 10.184H389.955C389.955 7.18033 388.86 4.68051 386.667 2.77339L385.354 4.2826ZM387.955 10.184C387.955 12.6424 387.085 14.6328 385.336 16.2295L386.685 17.7065C388.861 15.7192 389.955 13.1869 389.955 10.184H387.955ZM385.32 16.2446C383.657 17.8322 381.486 18.656 378.715 18.656V20.656C381.917 20.656 384.609 19.6878 386.701 17.6913L385.32 16.2446ZM371.523 93V29.512H369.523V93H371.523ZM370.523 30.512H386.907V28.512H370.523V30.512ZM385.907 29.512V93H387.907V29.512H385.907ZM386.907 92H370.523V94H386.907V92ZM415.4 91.848L414.997 92.7633L415.004 92.7667L415.012 92.77L415.4 91.848ZM405.16 84.168L404.375 84.7876L404.375 84.7876L405.16 84.168ZM400.552 72.904V71.904H399.424L399.559 73.0231L400.552 72.904ZM417.064 72.904L418.043 72.7014L417.878 71.904H417.064V72.904ZM421.16 79.304L420.531 80.0819L420.547 80.0951L420.564 80.1076L421.16 79.304ZM437.8 79.688L437.152 78.9261L437.142 78.9343L437.133 78.9428L437.8 79.688ZM436.776 69.192L436.382 70.1111L436.396 70.1172L436.41 70.1228L436.776 69.192ZM426.792 66.248L427.006 65.2714L427.005 65.2711L426.792 66.248ZM418.472 64.072L418.181 65.029L418.181 65.029L418.472 64.072ZM410.664 60.872L410.154 61.7323L410.172 61.7433L410.191 61.7535L410.664 60.872ZM405.032 55.752L404.205 56.3143L404.21 56.3222L404.215 56.33L405.032 55.752ZM409.512 33.736L408.864 32.9737L408.857 32.9798L409.512 33.736ZM446.376 33.224L445.756 34.0093L445.764 34.015L446.376 33.224ZM454.44 47.688V48.688H455.588L455.43 47.5504L454.44 47.688ZM438.952 47.688L437.971 47.8841L438.132 48.688H438.952V47.688ZM421.16 42.44L420.586 41.6208L420.576 41.6277L420.566 41.6349L421.16 42.44ZM432.296 54.472L432.52 53.4976L432.519 53.4973L432.296 54.472ZM444.456 57.928L444.126 58.8722L444.139 58.8767L444.152 58.8809L444.456 57.928ZM453.416 63.432L452.671 64.0995L452.677 64.106L452.683 64.1125L453.416 63.432ZM456.744 73.8H455.744V73.8109L455.744 73.8217L456.744 73.8ZM453.672 84.424L452.843 83.8641L452.843 83.8641L453.672 84.424ZM444.456 91.848L444.048 90.935L444.048 90.935L444.456 91.848ZM430.248 93.536C424.72 93.536 419.907 92.6566 415.787 90.926L415.012 92.77C419.425 94.6234 424.511 95.536 430.248 95.536V93.536ZM415.802 90.9327C411.666 89.1126 408.391 86.647 405.944 83.5484L404.375 84.7876C407.048 88.1743 410.6 90.8287 414.997 92.7633L415.802 90.9327ZM405.944 83.5484C403.503 80.4562 402.035 76.8764 401.544 72.7849L399.559 73.0231C400.092 77.4649 401.696 81.3945 404.375 84.7876L405.944 83.5484ZM400.552 73.904H417.064V71.904H400.552V73.904ZM416.084 73.1066C416.649 75.8369 418.157 78.1644 420.531 80.0819L421.788 78.5261C419.725 76.8596 418.502 74.9204 418.043 72.7014L416.084 73.1066ZM420.564 80.1076C423.08 81.9707 426.247 82.864 429.992 82.864V80.864C426.568 80.864 423.847 80.0506 421.755 78.5004L420.564 80.1076ZM429.992 82.864C433.673 82.864 436.575 82.1257 438.466 80.4332L437.133 78.9428C435.782 80.1516 433.478 80.864 429.992 80.864V82.864ZM438.447 80.4499C440.33 78.8497 441.36 76.9238 441.36 74.696H439.36C439.36 76.2228 438.683 77.625 437.152 78.9261L438.447 80.4499ZM441.36 74.696C441.36 73.1848 441.028 71.842 440.301 70.7263C439.572 69.606 438.495 68.7932 437.141 68.2612L436.41 70.1228C437.445 70.5295 438.16 71.1033 438.626 71.8177C439.094 72.5367 439.36 73.4765 439.36 74.696H441.36ZM437.169 68.2729C434.697 67.2131 431.299 66.2157 427.006 65.2714L426.577 67.2246C430.817 68.1576 434.076 69.1229 436.382 70.1111L437.169 68.2729ZM427.005 65.2711C424.302 64.6797 421.554 63.9611 418.762 63.115L418.181 65.029C421.021 65.8896 423.82 66.6217 426.578 67.2249L427.005 65.2711ZM418.762 63.115C416.003 62.2791 413.462 61.2369 411.136 59.9905L410.191 61.7535C412.643 63.0671 415.308 64.1582 418.181 65.029L418.762 63.115ZM411.173 60.0117C408.982 58.713 407.212 57.0999 405.848 55.174L404.215 56.33C405.753 58.5001 407.737 60.3003 410.154 61.7323L411.173 60.0117ZM405.858 55.1897C404.541 53.2518 403.856 50.8545 403.856 47.944H401.856C401.856 51.1775 402.621 53.9856 404.205 56.3143L405.858 55.1897ZM403.856 47.944C403.856 42.6159 405.938 38.1513 410.166 34.4922L408.857 32.9798C404.211 37.0007 401.856 42.0081 401.856 47.944H403.856ZM410.159 34.4983C414.444 30.8599 420.499 28.976 428.456 28.976V26.976C420.199 26.976 413.624 28.9321 408.864 32.9737L410.159 34.4983ZM428.456 28.976C435.814 28.976 441.546 30.6894 445.756 34.0093L446.995 32.4387C442.331 28.7612 436.116 26.976 428.456 26.976V28.976ZM445.764 34.015C450.061 37.3394 452.628 41.9163 453.449 47.8256L455.43 47.5504C454.544 41.1717 451.735 36.106 446.987 32.433L445.764 34.015ZM454.44 46.688H438.952V48.688H454.44V46.688ZM439.932 47.4919C439.418 44.9203 438.165 42.9139 436.144 41.5744C434.152 40.2542 431.513 39.648 428.328 39.648V41.648C431.286 41.648 433.49 42.2151 435.039 43.2416C436.559 44.2487 437.547 45.7624 437.971 47.8841L439.932 47.4919ZM428.328 39.648C425.143 39.648 422.523 40.2647 420.586 41.6208L421.733 43.2592C423.209 42.226 425.368 41.648 428.328 41.648V39.648ZM420.566 41.6349C418.726 42.9912 417.728 44.7675 417.728 46.92H419.728C419.728 45.4885 420.351 44.2781 421.753 43.2451L420.566 41.6349ZM417.728 46.92C417.728 49.3603 419.381 51.1249 422.03 52.3125L422.849 50.4875C420.549 49.4564 419.728 48.2343 419.728 46.92H417.728ZM422.03 52.3125C424.588 53.459 427.943 54.5005 432.072 55.4467L432.519 53.4973C428.456 52.5662 425.24 51.5597 422.849 50.4875L422.03 52.3125ZM432.071 55.4464C436.478 56.4636 440.496 57.606 444.126 58.8722L444.785 56.9838C441.076 55.69 436.987 54.5284 432.52 53.4976L432.071 55.4464ZM444.152 58.8809C447.769 60.0316 450.592 61.7804 452.671 64.0995L454.16 62.7645C451.802 60.1342 448.652 58.2137 444.759 56.9751L444.152 58.8809ZM452.683 64.1125C454.673 66.2555 455.744 69.4313 455.744 73.8H457.744C457.744 69.1233 456.596 65.3871 454.148 62.7515L452.683 64.1125ZM455.744 73.8217C455.825 77.5469 454.857 80.8838 452.843 83.8641L454.5 84.9839C456.753 81.6496 457.833 77.9038 457.743 73.7783L455.744 73.8217ZM452.843 83.8641C450.829 86.8443 447.914 89.2073 444.048 90.935L444.863 92.761C449.018 90.9047 452.247 88.3183 454.5 84.9839L452.843 83.8641ZM444.048 90.935C440.192 92.6575 435.601 93.536 430.248 93.536V95.536C435.816 95.536 440.697 94.6225 444.863 92.761L444.048 90.935ZM503.166 16.968L502.475 17.6914L502.483 17.699L502.491 17.7065L503.166 16.968ZM503.166 3.52799L503.838 4.26793L503.84 4.26648L503.166 3.52799ZM517.886 3.52799L517.195 4.25135L517.212 4.26737L517.229 4.2826L517.886 3.52799ZM517.886 16.968L517.211 16.2295L517.203 16.237L517.195 16.2446L517.886 16.968ZM502.398 93H501.398V94H502.398V93ZM502.398 29.512V28.512H501.398V29.512H502.398ZM518.782 29.512H519.782V28.512H518.782V29.512ZM518.782 93V94H519.782V93H518.782ZM510.59 18.656C507.819 18.656 505.595 17.8321 503.84 16.2295L502.491 17.7065C504.661 19.6879 507.387 20.656 510.59 20.656V18.656ZM503.856 16.2446C502.188 14.6521 501.35 12.6574 501.35 10.184H499.35C499.35 13.172 500.389 15.6999 502.475 17.6914L503.856 16.2446ZM501.35 10.184C501.35 7.71095 502.187 5.76944 503.838 4.26793L502.493 2.78805C500.39 4.69989 499.35 7.19571 499.35 10.184H501.35ZM503.84 4.26648C505.595 2.66388 507.819 1.84 510.59 1.84V-0.160004C507.387 -0.160004 504.661 0.808114 502.491 2.78951L503.84 4.26648ZM510.59 1.84C513.361 1.84 515.532 2.66379 517.195 4.25135L518.576 2.80464C516.484 0.808198 513.792 -0.160004 510.59 -0.160004V1.84ZM517.229 4.2826C518.961 5.78881 519.83 7.72633 519.83 10.184H521.83C521.83 7.18033 520.735 4.68051 518.542 2.77339L517.229 4.2826ZM519.83 10.184C519.83 12.6424 518.96 14.6328 517.211 16.2295L518.56 17.7065C520.736 15.7192 521.83 13.1869 521.83 10.184H519.83ZM517.195 16.2446C515.532 17.8322 513.361 18.656 510.59 18.656V20.656C513.792 20.656 516.484 19.6878 518.576 17.6913L517.195 16.2446ZM503.398 93V29.512H501.398V93H503.398ZM502.398 30.512H518.782V28.512H502.398V30.512ZM517.782 29.512V93H519.782V29.512H517.782ZM518.782 92H502.398V94H518.782V92ZM548.171 88.136L548.799 87.3584L548.799 87.3584L548.171 88.136ZM542.155 43.208H543.155V42.208H542.155V43.208ZM531.275 43.208H530.275V44.208H531.275V43.208ZM531.275 29.512V28.512H530.275V29.512H531.275ZM542.155 29.512V30.512H543.048L543.148 29.6241L542.155 29.512ZM544.075 12.488V11.488H543.181L543.081 12.3759L544.075 12.488ZM558.539 12.488H559.539V11.488H558.539V12.488ZM558.539 29.512H557.539V30.512H558.539V29.512ZM575.691 29.512H576.691V28.512H575.691V29.512ZM575.691 43.208V44.208H576.691V43.208H575.691ZM558.539 43.208V42.208H557.539V43.208H558.539ZM560.458 77.384L559.776 78.1151L559.801 78.1385L559.828 78.1601L560.458 77.384ZM575.307 79.048H576.307V78.048H575.307V79.048ZM575.307 93V94H576.307V93H575.307ZM564.171 92C557.676 92 552.586 90.4198 548.799 87.3584L547.542 88.9136C551.777 92.3375 557.353 94 564.171 94V92ZM548.799 87.3584C545.135 84.3961 543.155 79.013 543.155 70.856H541.155C541.155 79.2536 543.184 85.3906 547.542 88.9136L548.799 87.3584ZM543.155 70.856V43.208H541.155V70.856H543.155ZM542.155 42.208H531.275V44.208H542.155V42.208ZM532.275 43.208V29.512H530.275V43.208H532.275ZM531.275 30.512H542.155V28.512H531.275V30.512ZM543.148 29.6241L545.068 12.6001L543.081 12.3759L541.161 29.3999L543.148 29.6241ZM544.075 13.488H558.539V11.488H544.075V13.488ZM557.539 12.488V29.512H559.539V12.488H557.539ZM558.539 30.512H575.691V28.512H558.539V30.512ZM574.691 29.512V43.208H576.691V29.512H574.691ZM575.691 42.208H558.539V44.208H575.691V42.208ZM557.539 43.208V70.984H559.539V43.208H557.539ZM557.539 70.984C557.539 74.1379 558.185 76.63 559.776 78.1151L561.141 76.6529C560.172 75.7486 559.539 73.9741 559.539 70.984H557.539ZM559.828 78.1601C561.469 79.4939 564.068 80.048 567.371 80.048V78.048C564.187 78.048 562.178 77.4928 561.089 76.6079L559.828 78.1601ZM567.371 80.048H575.307V78.048H567.371V80.048ZM574.307 79.048V93H576.307V79.048H574.307ZM575.307 92H564.171V94H575.307V92ZM598.974 65.096L597.974 65.1202L597.997 66.096H598.974V65.096ZM598.462 43.976V42.976H597.437L597.462 44.0002L598.462 43.976ZM616.254 42.824L616.463 43.8018L616.463 43.8018L616.254 42.824ZM624.318 19.016L623.623 19.7354L623.629 19.7417L623.636 19.7479L624.318 19.016ZM604.478 19.016L605.172 19.7358L605.178 19.7295L605.185 19.7231L604.478 19.016ZM600.894 28.488V29.488H601.894V28.488H600.894ZM585.406 28.488L584.406 28.5047L584.422 29.488H585.406V28.488ZM588.734 14.792L589.601 15.2901L589.601 15.2901L588.734 14.792ZM598.718 5.31999L598.257 4.43247L598.25 4.4362L598.718 5.31999ZM629.694 5.064L629.253 5.96194L629.26 5.96525L629.694 5.064ZM640.062 14.28L639.21 14.8051L639.217 14.8158L639.224 14.8263L640.062 14.28ZM639.934 43.336L639.11 42.7687L639.106 42.775L639.101 42.7813L639.934 43.336ZM629.31 51.912L628.926 50.9884L628.92 50.991L629.31 51.912ZM613.822 54.856L613.807 53.8561L612.858 53.8699L612.822 54.8185L613.822 54.856ZM613.438 65.096V66.096H614.401L614.437 65.1335L613.438 65.096ZM598.846 91.08L598.138 91.7871L598.146 91.795L598.154 91.8026L598.846 91.08ZM598.846 77.384L598.154 76.6614L598.146 76.669L598.138 76.6769L598.846 77.384ZM613.566 77.384L614.273 76.6769L614.273 76.6769L613.566 77.384ZM613.566 91.08L614.273 91.7871L614.273 91.7871L613.566 91.08ZM599.973 65.0718L599.461 43.9518L597.462 44.0002L597.974 65.1202L599.973 65.0718ZM598.462 44.976H604.35V42.976H598.462V44.976ZM604.35 44.976C608.759 44.976 612.799 44.587 616.463 43.8018L616.044 41.8462C612.54 42.597 608.644 42.976 604.35 42.976V44.976ZM616.463 43.8018C620.204 43.0001 623.254 41.4252 625.55 39.0371L624.109 37.6509C622.138 39.7002 619.471 41.1119 616.044 41.8462L616.463 43.8018ZM625.55 39.0371C627.922 36.5702 629.03 33.04 629.03 28.616H627.03C627.03 32.7253 626.003 35.6805 624.109 37.6509L625.55 39.0371ZM629.03 28.616C629.03 24.3057 627.719 20.8165 624.999 18.2841L623.636 19.7479C625.865 21.8235 627.03 24.7343 627.03 28.616H629.03ZM625.012 18.2966C622.316 15.6937 618.764 14.432 614.462 14.432V16.432C618.351 16.432 621.369 17.5596 623.623 19.7354L625.012 18.2966ZM614.462 14.432C610.003 14.432 606.393 15.6858 603.77 18.3089L605.185 19.7231C607.34 17.5675 610.387 16.432 614.462 16.432V14.432ZM603.783 18.2962C601.159 20.827 599.894 24.2666 599.894 28.488H601.894C601.894 24.6881 603.018 21.813 605.172 19.7358L603.783 18.2962ZM600.894 27.488H585.406V29.488H600.894V27.488ZM586.405 28.4713C586.323 23.5119 587.396 19.1279 589.601 15.2901L587.866 14.2939C585.463 18.4774 584.318 23.2241 584.406 28.5047L586.405 28.4713ZM589.601 15.2901C591.804 11.4538 594.989 8.42544 599.185 6.20378L598.25 4.4362C593.742 6.82255 590.271 10.1088 587.866 14.2939L589.601 15.2901ZM599.178 6.20749C603.444 3.99244 608.57 2.864 614.59 2.864V0.863998C608.321 0.863998 602.865 2.03955 598.257 4.4325L599.178 6.20749ZM614.59 2.864C620.181 2.864 625.061 3.90678 629.253 5.96192L630.134 4.16607C625.622 1.95454 620.432 0.863998 614.59 0.863998V2.864ZM629.26 5.96525C633.533 8.01962 636.841 10.9647 639.21 14.8051L640.913 13.7549C638.333 9.57398 634.728 6.37503 630.127 4.16274L629.26 5.96525ZM639.224 14.8263C641.657 18.5565 642.902 23.1777 642.902 28.744H644.902C644.902 22.8757 643.586 17.8542 640.899 13.7337L639.224 14.8263ZM642.902 28.744C642.902 34.4827 641.613 39.1346 639.11 42.7687L640.757 43.9033C643.544 39.8573 644.902 34.7813 644.902 28.744H642.902ZM639.101 42.7813C636.658 46.4464 633.278 49.1821 628.926 50.9884L629.693 52.8356C634.387 50.8873 638.089 47.9056 640.766 43.8907L639.101 42.7813ZM628.92 50.991C624.625 52.8083 619.594 53.7722 613.807 53.8561L613.836 55.8559C619.825 55.7691 625.12 54.7704 629.699 52.833L628.92 50.991ZM612.822 54.8185L612.438 65.0585L614.437 65.1335L614.821 54.8935L612.822 54.8185ZM613.438 64.096H598.974V66.096H613.438V64.096ZM606.27 92.896C603.512 92.896 601.294 92.0382 599.537 90.3574L598.154 91.8026C600.322 93.8764 603.053 94.896 606.27 94.896V92.896ZM599.553 90.3729C597.862 88.6823 597.03 86.675 597.03 84.296H595.03C595.03 87.2076 596.074 89.723 598.138 91.7871L599.553 90.3729ZM597.03 84.296C597.03 81.8221 597.869 79.775 599.553 78.0911L598.138 76.6769C596.068 78.7477 595.03 81.3086 595.03 84.296H597.03ZM599.537 78.1066C601.294 76.4258 603.512 75.568 606.27 75.568V73.568C603.053 73.568 600.322 74.5876 598.154 76.6614L599.537 78.1066ZM606.27 75.568C609.027 75.568 611.193 76.4254 612.858 78.0911L614.273 76.6769C612.184 74.5879 609.485 73.568 606.27 73.568V75.568ZM612.858 78.0911C614.542 79.775 615.382 81.8221 615.382 84.296H617.382C617.382 81.3086 616.343 78.7477 614.273 76.6769L612.858 78.0911ZM615.382 84.296C615.382 86.675 614.549 88.6823 612.858 90.3729L614.273 91.7871C616.337 89.723 617.382 87.2076 617.382 84.296H615.382ZM612.858 90.3729C611.193 92.0386 609.027 92.896 606.27 92.896V94.896C609.485 94.896 612.184 93.8761 614.273 91.7871L612.858 90.3729Z" fill="black"/>
</svg>
