<svg width="410" height="345" viewBox="0 0 410 345" fill="none" xmlns="http://www.w3.org/2000/svg">
<path d="M404.576 174.333H153C161.419 136.902 171.536 128.723 198.826 136.072C214.725 52.9532 281.126 50.3146 304.507 99.1305C325.082 74.0628 353.139 93.8531 358.75 121.559C386.807 112.324 408.317 136.072 404.576 174.333Z" fill="white"/>
<path d="M149.212 112.051C153.072 118.016 145.704 125.383 140.09 121.173C129.619 110.532 123.882 104.399 111.671 95.9118C104.655 92.4033 110.268 81.176 119.741 84.6845C133.138 94.4042 138.955 100.722 149.212 112.051Z" fill="#FFC107"/>
<path d="M188.859 92.0524C191.666 99.4203 181.491 104.332 176.579 97.6661C171.42 82.3416 168.046 73.6622 161.142 58.0197C159.739 50.301 170.264 47.1433 174.123 53.1078C181.345 68.3692 184.528 76.8949 188.859 92.0524Z" fill="#FFC107"/>
<path d="M239.733 92.0524C234.821 98.3678 225.699 94.1576 227.453 86.4388C231.471 75.5039 233.547 69.3479 239.733 58.7214C243.943 52.0552 253.767 56.9672 251.662 64.3351L239.733 92.0524Z" fill="#FFC107"/>
<path d="M280.783 119.068C275.72 124.483 265.345 120.121 269.906 111.7C276.817 102.379 288.852 100.122 297.974 90.2982C307.096 80.4743 317.271 92.7541 307.096 100.122C297.94 106.163 285.845 113.653 280.783 119.068Z" fill="#FFC107"/>
<path d="M303.939 155.908C297.273 157.311 292.01 148.189 299.027 143.628C308.254 139.344 313.778 137.542 323.937 134.856C332.709 133.804 336.568 143.277 328.849 147.487C318.685 150.022 313.265 151.925 303.939 155.908Z" fill="#FFC107"/>
<path d="M304.991 190.993C297.974 188.537 300.781 176.608 309.202 178.362C317.622 180.117 316.569 179.064 324.639 181.871C332.709 184.678 329.902 196.607 321.131 194.852C312.359 193.098 312.008 193.449 304.991 190.993Z" fill="#FFC107"/>
<path d="M292.712 238.358C285.344 234.148 291.308 223.271 297.974 225.727C304.64 228.183 317.622 230.288 324.639 234.499C331.656 238.709 325.692 249.585 319.025 246.779C312.359 243.972 300.079 242.568 292.712 238.358Z" fill="#FFC107"/>
<path d="M268.152 275.548C265.345 270.637 274.116 262.567 278.677 267.479C283.238 272.391 290.606 276.601 295.167 284.32C299.729 292.039 290.606 299.406 285.344 293.091C280.081 286.776 270.959 280.46 268.152 275.548Z" fill="#FFC107"/>
<path d="M227.804 273.794C227.804 266.777 214.121 264.672 214.121 273.794V299.757C214.121 308.529 227.804 308.178 227.804 299.757V273.794Z" fill="#FFC107"/>
<path d="M169.211 276.601C173.422 268.882 163.949 262.567 158.686 268.882C153.423 275.198 152.721 276.601 147.459 285.021C142.196 293.442 153.774 300.459 158.335 293.091C162.896 285.723 165.001 284.32 169.211 276.601Z" fill="#FFC107"/>
<path d="M127.811 245.024C134.126 241.165 128.162 229.938 120.443 234.499C112.724 239.06 97.988 251.34 90.2697 259.76C82.5514 268.181 92.0243 278.355 101.146 268.181C110.268 258.006 121.496 248.884 127.811 245.024Z" fill="#FFC107"/>
<path d="M117.987 200.115C123.601 199.063 124.303 187.134 115.882 187.134C107.462 187.134 88.516 192.046 81.4987 195.203C74.4815 198.361 78.6919 210.992 88.1649 207.132C97.6379 203.273 112.374 201.168 117.987 200.115Z" fill="#FFC107"/>
<path d="M121.145 156.259C128.864 156.96 129.916 143.628 121.145 142.926C112.374 142.224 100.094 141.172 93.0769 141.172C86.0598 141.172 83.6039 154.855 93.0769 154.855C102.55 154.855 113.426 155.557 121.145 156.259Z" fill="#FFC107"/>
<circle cx="212.014" cy="182.222" r="59.2941" fill="#FFC107"/>
<path d="M5.4236 305.727H257C248.581 259.789 238.464 249.75 211.174 258.77C195.275 156.761 128.874 153.522 105.493 213.433C84.918 182.668 56.8612 206.956 51.2498 240.959C23.1929 229.625 1.68269 258.77 5.4236 305.727Z" fill="white"/>
</svg>
