<svg width="719" height="95" viewBox="0 0 719 95" fill="none" xmlns="http://www.w3.org/2000/svg">
<path d="M0.0160003 93V80.456L41.232 17.096H0.4V3.39999H60.176V15.944L18.704 79.304H60.432V93H0.0160003ZM105.284 94.536C99.14 94.536 93.5933 93.128 88.644 90.312C83.78 87.496 79.8973 83.6133 76.996 78.664C74.18 73.6293 72.772 67.8267 72.772 61.256C72.772 54.6853 74.2227 48.9253 77.124 43.976C80.0253 38.9413 83.908 35.016 88.772 32.2C93.7213 29.384 99.268 27.976 105.412 27.976C111.471 27.976 116.932 29.384 121.796 32.2C126.745 35.016 130.628 38.9413 133.444 43.976C136.345 48.9253 137.796 54.6853 137.796 61.256C137.796 67.8267 136.345 73.6293 133.444 78.664C130.628 83.6133 126.745 87.496 121.796 90.312C116.847 93.128 111.343 94.536 105.284 94.536ZM105.284 80.328C109.551 80.328 113.263 78.7493 116.42 75.592C119.577 72.3493 121.156 67.5707 121.156 61.256C121.156 54.9413 119.577 50.2053 116.42 47.048C113.263 43.8053 109.593 42.184 105.412 42.184C101.06 42.184 97.3053 43.8053 94.148 47.048C91.076 50.2053 89.54 54.9413 89.54 61.256C89.54 67.5707 91.076 72.3493 94.148 75.592C97.3053 78.7493 101.017 80.328 105.284 80.328ZM152.445 93V29.512H166.909L168.189 40.264C170.152 36.5093 172.968 33.5227 176.637 31.304C180.392 29.0853 184.786 27.976 189.821 27.976C197.672 27.976 203.773 30.4507 208.125 35.4C212.477 40.3493 214.653 47.6027 214.653 57.16V93H198.269V58.696C198.269 53.2347 197.16 49.0533 194.941 46.152C192.722 43.2507 189.266 41.8 184.573 41.8C179.965 41.8 176.168 43.4213 173.181 46.664C170.28 49.9067 168.829 54.4293 168.829 60.232V93H152.445ZM252.208 94.536C246.747 94.536 242.267 93.6827 238.768 91.976C235.269 90.184 232.667 87.8373 230.96 84.936C229.253 82.0347 228.4 78.8347 228.4 75.336C228.4 69.448 230.704 64.6693 235.312 61C239.92 57.3307 246.832 55.496 256.048 55.496H272.176V53.96C272.176 49.608 270.939 46.408 268.464 44.36C265.989 42.312 262.917 41.288 259.248 41.288C255.92 41.288 253.019 42.0987 250.544 43.72C248.069 45.256 246.533 47.56 245.936 50.632H229.936C230.363 46.024 231.899 42.0133 234.544 38.6C237.275 35.1867 240.773 32.584 245.04 30.792C249.307 28.9147 254.085 27.976 259.376 27.976C268.421 27.976 275.547 30.2373 280.752 34.76C285.957 39.2827 288.56 45.6827 288.56 53.96V93H274.608L273.072 82.76C271.195 86.1733 268.549 88.9893 265.136 91.208C261.808 93.4267 257.499 94.536 252.208 94.536ZM255.92 81.736C260.613 81.736 264.24 80.2 266.8 77.128C269.445 74.056 271.109 70.2587 271.792 65.736H257.84C253.488 65.736 250.373 66.5467 248.496 68.168C246.619 69.704 245.68 71.624 245.68 73.928C245.68 76.4027 246.619 78.3227 248.496 79.688C250.373 81.0533 252.848 81.736 255.92 81.736ZM353.255 93L329.575 3.39999H347.111L363.239 74.696L382.183 3.39999H400.231L418.663 74.696L434.791 3.39999H452.455L428.135 93H408.679L390.887 26.568L372.583 93H353.255ZM478.583 94.536C473.122 94.536 468.642 93.6827 465.143 91.976C461.644 90.184 459.042 87.8373 457.335 84.936C455.628 82.0347 454.775 78.8347 454.775 75.336C454.775 69.448 457.079 64.6693 461.687 61C466.295 57.3307 473.207 55.496 482.423 55.496H498.551V53.96C498.551 49.608 497.314 46.408 494.839 44.36C492.364 42.312 489.292 41.288 485.623 41.288C482.295 41.288 479.394 42.0987 476.919 43.72C474.444 45.256 472.908 47.56 472.311 50.632H456.311C456.738 46.024 458.274 42.0133 460.919 38.6C463.65 35.1867 467.148 32.584 471.415 30.792C475.682 28.9147 480.46 27.976 485.751 27.976C494.796 27.976 501.922 30.2373 507.127 34.76C512.332 39.2827 514.935 45.6827 514.935 53.96V93H500.983L499.447 82.76C497.57 86.1733 494.924 88.9893 491.511 91.208C488.183 93.4267 483.874 94.536 478.583 94.536ZM482.295 81.736C486.988 81.736 490.615 80.2 493.175 77.128C495.82 74.056 497.484 70.2587 498.167 65.736H484.215C479.863 65.736 476.748 66.5467 474.871 68.168C472.994 69.704 472.055 71.624 472.055 73.928C472.055 76.4027 472.994 78.3227 474.871 79.688C476.748 81.0533 479.223 81.736 482.295 81.736ZM530.57 93V0.839996H546.954V55.24L569.482 29.512H588.938L562.954 58.44L593.162 93H572.682L546.954 61.128V93H530.57ZM631.608 93C624.952 93 619.619 91.3787 615.608 88.136C611.597 84.8933 609.592 79.1333 609.592 70.856V43.208H598.712V29.512H609.592L611.512 12.488H625.976V29.512H643.128V43.208H625.976V70.984C625.976 74.056 626.616 76.1893 627.896 77.384C629.261 78.4933 631.565 79.048 634.808 79.048H642.744V93H631.608ZM681.003 94.536C673.067 94.536 666.923 92.0613 662.571 87.112C658.304 82.1627 656.171 74.9093 656.171 65.352V29.512H672.427V63.816C672.427 69.2773 673.536 73.4587 675.755 76.36C677.974 79.2613 681.472 80.712 686.251 80.712C690.774 80.712 694.486 79.0907 697.387 75.848C700.374 72.6053 701.867 68.0827 701.867 62.28V29.512H718.251V93H703.787L702.507 82.248C700.544 86.0027 697.686 88.9893 693.931 91.208C690.262 93.4267 685.952 94.536 681.003 94.536Z" fill="white"/>
</svg>
