<svg width="300" height="250" viewBox="0 0 300 250" fill="none" xmlns="http://www.w3.org/2000/svg">
<g id="animation2">
<path id="lines" d="M31 177.5C29.6901 159.566 33.0194 151.805 47 142.5M24.5001 184.5C19.7942 169.317 21.2341 161.373 29.5001 148M251.5 186.5C260.099 202.835 260.116 211.158 251.5 224.5M254.5 177.5C264.573 187.676 266.569 195.516 265 212.5M13 232.5H286.5" stroke="black"/>
<path id="Vector 28" d="M105 177.5C103.908 199.804 101.71 211.817 97 233H196C190.357 211.437 188.648 199.295 189.5 177.5L208.5 182.5L222 175C204 153.5 186.372 144.158 156 145.5C153.5 151.5 140.5 152 137 145.5C104 144.5 87.1582 154.579 70.5 175.5L85 182.5L105 177.5Z" fill="#FCBD21" stroke="black"/>
<g id="hair">
<g id="topi">
<g id="Vector 30">
<path d="M118.499 104C105 105 105 107.5 118.499 108L150.999 108.387C147.64 104.873 144.143 103.215 118.499 104Z" fill="#CA3703"/>
<path d="M160.499 108.5L150.999 108.387M150.999 108.387L118.499 108C105 107.5 105 105 118.499 104C144.143 103.215 147.64 104.873 150.999 108.387Z" stroke="black"/>
</g>
<path id="Vector 31" d="M160 107.5C158.5 90 138 86.5 135 104C139.5 103 150 105 150.5 108L160 107.5Z" fill="#213CC4" stroke="black"/>
</g>
<path id="Vector 29" d="M160 108C164.5 115.5 164 127 154 129.5L153.5 123C158 122.5 157.751 117.192 153 117.5L152.5 108H160Z" fill="#4B2500" stroke="black"/>
</g>
<g id="Vector 37">
<path d="M136.601 146.5C138.731 141.649 139.237 138.681 139.101 133C128.601 128.966 127.54 116.524 134.101 108H152.101L153.101 118C156.601 117 158.101 122.5 153.601 123V130.5C153.676 136.838 154.114 140.322 155.101 146.5C147.815 152.564 143.701 152.56 136.601 146.5Z" fill="#FBEFE3"/>
<path d="M139.101 133C139.237 138.681 138.731 141.649 136.601 146.5C143.701 152.56 147.815 152.564 155.101 146.5C154.114 140.322 153.676 136.838 153.601 130.5M139.101 133C144.855 135.21 148.016 134.19 153.601 130.5M139.101 133C128.601 128.966 127.54 116.524 134.101 108H152.101L153.101 118C156.601 117 158.101 122.5 153.601 123V130.5" stroke="black"/>
</g>
<g id="face1">
<circle id="Ellipse 10" cx="137.5" cy="118.009" r="1" fill="black"/>
<circle id="Ellipse 12" cx="142" cy="127.509" r="2.5" fill="black"/>
<circle id="Ellipse 11" cx="145.5" cy="118.009" r="1" fill="black"/>
<path id="Vector 27" d="M135.5 114.509C136.06 113.151 136.816 112.949 138.5 113.009M145 113.009C146.771 112.98 147.386 113.477 148 115.009M141 119.509C140.191 120.127 139.867 120.797 139.5 122.509H142.5" stroke="black"/>
</g>
<g id="face2">
<path id="Vector 33" d="M136 115.018C136.49 113.586 137.141 113.139 139 113.018M144.5 113.018C146.121 112.906 146.811 113.277 147.5 115.018M141.5 119.518C140.649 120.69 140.296 121.399 140.5 123.018H142.5M140.5 126.018C142.043 126.837 143.069 126.531 145 125.518C144.661 129.257 143.637 130.083 140.5 129.518" stroke="black"/>
<circle id="Ellipse 13" cx="138.5" cy="118.018" r="1" fill="black"/>
<circle id="Ellipse 14" cx="145.5" cy="118.018" r="1" fill="black"/>
</g>
<g id="mcd">
<g id="Vector 21">
<path d="M95 75.5C107.073 50.1552 107.407 35.3286 104 8.5L107 10L113 7L119 10L124.5 7L130 10L136 7L141.5 10L147.5 7L153 10L159 7L164 10L170.5 7L175.5 10L182 7L188.5 8.5C185.208 41.4979 187.24 56.207 198 75.5L187.5 84H104L95 75.5Z" fill="#EFF2F7"/>
<path d="M188.5 8.5C185.208 41.4979 187.24 56.207 198 75.5L187.5 84M188.5 8.5L178.5 13.5M188.5 8.5L182 7L175.5 10L170.5 7L164 10L159 7L153 10L147.5 7L141.5 10L136 7L130 10L124.5 7L119 10L113 7L107 10M104 84L95 75.5C107.073 50.1552 107.407 35.3286 104 8.5L107 10M104 84H187.5M104 84C113.838 58.6159 116.12 43.1851 113 13M187.5 84C178.675 56.2545 177.034 40.8317 178.5 13.5M113 13L117 15L123 12.5L128.5 15L135 12.5L140.5 15L146 12.5L152 15L158 12.5L164 15L169 12.5L175.5 15L178.5 13.5M113 13L107 10" stroke="black"/>
</g>
<g id="burger">
<path id="Vector 25" d="M157 45.9384H136C135.281 46.3616 135.349 46.7055 136 47.4384H157C157.82 46.8525 157.835 46.5242 157 45.9384Z" fill="#FF4200" stroke="black"/>
<g id="Vector 22">
<path d="M135.5 42.9384C137.5 29.4384 156 29.9384 157.5 42.9384H135.5Z" fill="#FFBA00"/>
<path d="M135.5 52.4384C133 60.9384 159 63.4384 157.5 52.4384H135.5Z" fill="#FFBA00"/>
<path d="M135.5 42.9384C137.5 29.4384 156 29.9384 157.5 42.9384H135.5Z" stroke="black"/>
<path d="M135.5 52.4384C133 60.9384 159 63.4384 157.5 52.4384H135.5Z" stroke="black"/>
</g>
<path id="Vector 23" d="M157.5 47.4384H135.5C133.367 49.4695 133.441 50.5615 135.5 52.4384H157.5C159.993 50.5635 159.951 49.4673 157.5 47.4384Z" fill="#E96600" stroke="black"/>
<path id="Vector 24" d="M140.5 42.4384C137.001 44.7515 135.415 44.5216 133 42.4384V44.9384L136.5 46.4384C139.625 44.4035 141.376 44.1536 144.5 46.4384C147.192 44.476 148.845 44.5677 152 46.4384C155.122 44.4782 156.619 44.2329 158.5 46.4384V44.9384H161C159.289 43.0072 158.183 42.5005 156 42.4384C152.641 44.6118 150.895 44.6376 148 42.4384C145.301 44.5197 143.662 44.577 140.5 42.4384Z" fill="#009E80" stroke="black"/>
</g>
</g>
<g id="mcd_2">
<g id="Vector 21_2">
<path d="M95 217.5C107.073 192.155 107.407 177.329 104 150.5L107 152L113 149L119 152L124.5 149L130 152L136 149L141.5 152L147.5 149L153 152L159 149L164 152L170.5 149L175.5 152L182 149L188.5 150.5C185.208 183.498 187.24 198.207 198 217.5L187.5 226H104L95 217.5Z" fill="#EFF2F7"/>
<path d="M188.5 150.5C185.208 183.498 187.24 198.207 198 217.5L187.5 226M188.5 150.5L178.5 155.5M188.5 150.5L182 149L175.5 152L170.5 149L164 152L159 149L153 152L147.5 149L141.5 152L136 149L130 152L124.5 149L119 152L113 149L107 152M104 226L95 217.5C107.073 192.155 107.407 177.329 104 150.5L107 152M104 226H187.5M104 226C113.838 200.616 116.12 185.185 113 155M187.5 226C178.675 198.254 177.034 182.832 178.5 155.5M113 155L117 157L123 154.5L128.5 157L135 154.5L140.5 157L146 154.5L152 157L158 154.5L164 157L169 154.5L175.5 157L178.5 155.5M113 155L107 152" stroke="black"/>
</g>
<g id="burger_2">
<path id="Vector 25_2" d="M157 187.938H136C135.281 188.362 135.349 188.705 136 189.438H157C157.82 188.853 157.835 188.524 157 187.938Z" fill="#FF4200" stroke="black"/>
<g id="Vector 22_2">
<path d="M135.5 184.938C137.5 171.438 156 171.938 157.5 184.938H135.5Z" fill="#FFBA00"/>
<path d="M135.5 194.438C133 202.938 159 205.438 157.5 194.438H135.5Z" fill="#FFBA00"/>
<path d="M135.5 184.938C137.5 171.438 156 171.938 157.5 184.938H135.5Z" stroke="black"/>
<path d="M135.5 194.438C133 202.938 159 205.438 157.5 194.438H135.5Z" stroke="black"/>
</g>
<path id="Vector 23_2" d="M157.5 189.438H135.5C133.367 191.47 133.441 192.561 135.5 194.438H157.5C159.993 192.564 159.951 191.467 157.5 189.438Z" fill="#E96600" stroke="black"/>
<path id="Vector 24_2" d="M140.5 184.438C137.001 186.751 135.415 186.522 133 184.438V186.938L136.5 188.438C139.625 186.403 141.376 186.154 144.5 188.438C147.192 186.476 148.845 186.568 152 188.438C155.122 186.478 156.619 186.233 158.5 188.438V186.938H161C159.289 185.007 158.183 184.501 156 184.438C152.641 186.612 150.895 186.638 148 184.438C145.301 186.52 143.662 186.577 140.5 184.438Z" fill="#009E80" stroke="black"/>
</g>
</g>
<g id="tubuh">
<path d="M101.699 208.565C73.4713 267.694 23.8118 241.412 72.5062 176.452L84.9135 182.778L85.6945 181.318C85.5195 170.509 90.1391 159.658 101.213 155.044C106.377 154.62 107.539 158.937 105.106 162.342L99.2673 169.154L115.81 169.641C120.408 170.948 120.676 175.966 115.81 176.939L102.673 177.912L118.729 178.885C124.234 180.681 123.595 185.21 118.729 187.156L102.673 188.616L115.81 190.076C120.513 190.964 120.189 196.401 115.81 197.374L102.673 196.887C101.537 199.948 105.499 200.171 111.918 200.78C116.273 201.843 117.27 206.618 111.918 207.592L101.699 208.565Z" fill="#FBEFE3"/>
<path d="M220.418 176.939C272.943 247.294 216.212 261.118 191.225 208.078C191.225 208.078 188.306 210.024 181.981 208.078C175.656 206.132 175.656 201.753 181.981 200.78C188.306 199.807 190.252 196.401 190.252 196.401C190.252 196.401 185.873 197.374 179.062 197.374C172.25 197.374 171.277 190.562 179.062 189.589C186.846 188.616 190.252 188.616 190.252 188.616C190.252 188.616 185.435 187.87 177.115 186.67C168.796 185.47 167.274 180.133 177.115 178.885C180.096 178.507 182.565 178.269 184.559 178.12C182.142 178.025 179.436 177.713 177.115 176.939C171.277 174.993 172.25 171.1 177.115 169.641C181.981 168.181 194.145 169.154 194.145 169.154L191.225 164.775C184.567 159.69 183.927 156.017 191.225 155.044C198.524 154.071 206.706 169.401 206.739 180.831L208.081 183.264L220.418 176.939Z" fill="#FBEFE3"/>
<path d="M101.699 208.565C73.4713 267.694 23.8118 241.412 72.5062 176.452L84.9135 182.778M101.699 208.565L111.918 207.592C117.27 206.618 116.273 201.843 111.918 200.78C105.499 200.171 101.537 199.948 102.673 196.887L115.81 197.374C120.189 196.401 120.513 190.964 115.81 190.076L102.673 188.616L118.729 187.156C123.595 185.21 124.234 180.681 118.729 178.885L102.673 177.912L115.81 176.939C120.676 175.966 120.408 170.948 115.81 169.641L99.2673 169.154L105.106 162.342C107.539 158.937 106.377 154.62 101.213 155.044C90.1391 159.658 85.5195 170.509 85.6945 181.318M101.699 208.565C91.9779 205.239 85.8885 193.304 85.6945 181.318M70.0742 210.511C77.2025 201.074 80.3074 194.851 84.9135 182.778M85.6945 181.318L84.9135 182.778M191.225 208.078C216.212 261.118 272.943 247.294 220.418 176.939L208.082 183.264M191.225 208.078C191.225 208.078 188.306 210.024 181.981 208.078C175.656 206.132 175.656 201.753 181.981 200.78C188.306 199.807 190.252 196.401 190.252 196.401C190.252 196.401 185.873 197.374 179.062 197.374C172.25 197.374 171.277 190.562 179.062 189.589C186.846 188.616 190.252 188.616 190.252 188.616C190.252 188.616 185.435 187.87 177.115 186.67C168.796 185.47 167.274 180.133 177.115 178.885C186.957 177.637 191.225 177.912 191.225 177.912C191.225 177.912 182.954 178.885 177.115 176.939C171.277 174.993 172.25 171.1 177.115 169.641C181.981 168.181 194.145 169.154 194.145 169.154L191.225 164.775C184.567 159.69 183.927 156.017 191.225 155.044C198.524 154.071 206.706 169.401 206.739 180.831M191.225 208.078C201.407 204.85 206.773 192.748 206.739 180.831M222.851 210.024L208.082 183.264M206.739 180.831L208.082 183.264" stroke="black"/>
</g>
</g>
</svg>
