<svg width="300" height="250" viewBox="0 0 300 250" fill="none" xmlns="http://www.w3.org/2000/svg">
<g id="animation2">
<path id="lines" d="M31 177.5C29.6901 159.566 33.0194 151.805 47 142.5M24.5001 184.5C19.7942 169.317 21.2341 161.373 29.5001 148M251.5 186.5C260.099 202.835 260.116 211.158 251.5 224.5M254.5 177.5C264.573 187.676 266.569 195.516 265 212.5M13 232.5H286.5" stroke="black"/>
<path id="Vector 28" d="M105 177.5C103.908 199.804 101.71 211.817 97 233H196C190.357 211.437 188.648 199.295 189.5 177.5L208.5 182.5L222 175C204 153.5 186.372 144.158 156 145.5C153.5 151.5 140.5 152 137 145.5C104 144.5 87.1582 154.579 70.5 175.5L85 182.5L105 177.5Z" fill="#FCBD21" stroke="black"/>
<g id="hair">
<g id="topi">
<g id="Vector 30">
<path d="M118.499 104C105 105 105 107.5 118.499 108L150.999 108.387C147.64 104.873 144.143 103.215 118.499 104Z" fill="#CA3703"/>
<path d="M160.499 108.5L150.999 108.387M150.999 108.387L118.499 108C105 107.5 105 105 118.499 104C144.143 103.215 147.64 104.873 150.999 108.387Z" stroke="black"/>
</g>
<path id="Vector 31" d="M160 107.5C158.5 90 138 86.5 135 104C139.5 103 150 105 150.5 108L160 107.5Z" fill="#213CC4" stroke="black"/>
</g>
<path id="Vector 29" d="M160 108C164.5 115.5 164 127 154 129.5L153.5 123C158 122.5 157.751 117.192 153 117.5L152.5 108H160Z" fill="#4B2500" stroke="black"/>
</g>
<g id="mcd">
<g id="Vector 21">
<path d="M95.5 76.5C107.573 51.1552 107.907 36.3286 104.5 9.5L107.5 11L113.5 8L119.5 11L125 8L130.5 11L136.5 8L142 11L148 8L153.5 11L159.5 8L164.5 11L171 8L176 11L182.5 8L189 9.5C185.708 42.4979 187.74 57.207 198.5 76.5L188 85H104.5L95.5 76.5Z" fill="#EFF2F7"/>
<path d="M189 9.5C185.708 42.4979 187.74 57.207 198.5 76.5L188 85M189 9.5L179 14.5M189 9.5L182.5 8L176 11L171 8L164.5 11L159.5 8L153.5 11L148 8L142 11L136.5 8L130.5 11L125 8L119.5 11L113.5 8L107.5 11M104.5 85L95.5 76.5C107.573 51.1552 107.907 36.3286 104.5 9.5L107.5 11M104.5 85H188M104.5 85C114.338 59.6159 116.62 44.1851 113.5 14M188 85C179.175 57.2545 177.534 41.8317 179 14.5M113.5 14L117.5 16L123.5 13.5L129 16L135.5 13.5L141 16L146.5 13.5L152.5 16L158.5 13.5L164.5 16L169.5 13.5L176 16L179 14.5M113.5 14L107.5 11" stroke="black"/>
</g>
<g id="burger">
<path id="Vector 25" d="M157.5 46.9384H136.5C135.781 47.3616 135.849 47.7055 136.5 48.4384H157.5C158.32 47.8525 158.335 47.5242 157.5 46.9384Z" fill="#FF4200" stroke="black"/>
<g id="Vector 22">
<path d="M136 43.9384C138 30.4384 156.5 30.9384 158 43.9384H136Z" fill="#FFBA00"/>
<path d="M136 53.4384C133.5 61.9384 159.5 64.4384 158 53.4384H136Z" fill="#FFBA00"/>
<path d="M136 43.9384C138 30.4384 156.5 30.9384 158 43.9384H136Z" stroke="black"/>
<path d="M136 53.4384C133.5 61.9384 159.5 64.4384 158 53.4384H136Z" stroke="black"/>
</g>
<path id="Vector 23" d="M158 48.4384H136C133.867 50.4695 133.941 51.5615 136 53.4384H158C160.493 51.5635 160.451 50.4673 158 48.4384Z" fill="#E96600" stroke="black"/>
<path id="Vector 24" d="M141 43.4384C137.501 45.7515 135.915 45.5216 133.5 43.4384V45.9384L137 47.4384C140.125 45.4035 141.876 45.1536 145 47.4384C147.692 45.476 149.345 45.5677 152.5 47.4384C155.622 45.4782 157.119 45.2329 159 47.4384V45.9384H161.5C159.789 44.0072 158.683 43.5005 156.5 43.4384C153.141 45.6118 151.395 45.6376 148.5 43.4384C145.801 45.5197 144.162 45.577 141 43.4384Z" fill="#009E80" stroke="black"/>
</g>
</g>
<g id="mcd_2">
<g id="Vector 21_2">
<path d="M95.5 217.5C107.573 192.155 107.907 177.329 104.5 150.5L107.5 152L113.5 149L119.5 152L125 149L130.5 152L136.5 149L142 152L148 149L153.5 152L159.5 149L164.5 152L171 149L176 152L182.5 149L189 150.5C185.708 183.498 187.74 198.207 198.5 217.5L188 226H104.5L95.5 217.5Z" fill="#EFF2F7"/>
<path d="M189 150.5C185.708 183.498 187.74 198.207 198.5 217.5L188 226M189 150.5L179 155.5M189 150.5L182.5 149L176 152L171 149L164.5 152L159.5 149L153.5 152L148 149L142 152L136.5 149L130.5 152L125 149L119.5 152L113.5 149L107.5 152M104.5 226L95.5 217.5C107.573 192.155 107.907 177.329 104.5 150.5L107.5 152M104.5 226H188M104.5 226C114.338 200.616 116.62 185.185 113.5 155M188 226C179.175 198.254 177.534 182.832 179 155.5M113.5 155L117.5 157L123.5 154.5L129 157L135.5 154.5L141 157L146.5 154.5L152.5 157L158.5 154.5L164.5 157L169.5 154.5L176 157L179 155.5M113.5 155L107.5 152" stroke="black"/>
</g>
<g id="burger_2">
<path id="Vector 25_2" d="M157.5 187.938H136.5C135.781 188.362 135.849 188.705 136.5 189.438H157.5C158.32 188.853 158.335 188.524 157.5 187.938Z" fill="#FF4200" stroke="black"/>
<g id="Vector 22_2">
<path d="M136 184.938C138 171.438 156.5 171.938 158 184.938H136Z" fill="#FFBA00"/>
<path d="M136 194.438C133.5 202.938 159.5 205.438 158 194.438H136Z" fill="#FFBA00"/>
<path d="M136 184.938C138 171.438 156.5 171.938 158 184.938H136Z" stroke="black"/>
<path d="M136 194.438C133.5 202.938 159.5 205.438 158 194.438H136Z" stroke="black"/>
</g>
<path id="Vector 23_2" d="M158 189.438H136C133.867 191.47 133.941 192.561 136 194.438H158C160.493 192.564 160.451 191.467 158 189.438Z" fill="#E96600" stroke="black"/>
<path id="Vector 24_2" d="M141 184.438C137.501 186.751 135.915 186.522 133.5 184.438V186.938L137 188.438C140.125 186.403 141.876 186.154 145 188.438C147.692 186.476 149.345 186.568 152.5 188.438C155.622 186.478 157.119 186.233 159 188.438V186.938H161.5C159.789 185.007 158.683 184.501 156.5 184.438C153.141 186.612 151.395 186.638 148.5 184.438C145.801 186.52 144.162 186.577 141 184.438Z" fill="#009E80" stroke="black"/>
</g>
</g>
<g id="tubuh">
<path d="M98.9999 169H116C120 170.5 120 176 116 177L102 178L118.5 179C123.5 179.5 124 185.5 118.5 186.5L103 188.5L116 189.5C120.5 191 120 196 116 197L102 196C101.895 200.41 106.123 200.489 113 201C116 202 115.5 206 113 207.5L102 208C101.663 207.916 101.329 207.82 101 207.712C90.3757 226.867 83.6564 234.894 69.5 241.5C53.5 244.5 46.0152 229.368 55.5 204C60.7276 191.968 64.3993 185.9 72.5 176.5L84.7565 183C85.039 182.194 85.3227 181.362 85.6092 180.5C85.6022 170.042 90.1095 159.491 101 154.5C106 153.5 108 160 105 161.5L98.9999 168.5V169Z" fill="#FBEFE3"/>
<path d="M177 169H194L187 160.5C185.5 155.5 189 153.5 194.5 156C203.735 163.206 208.235 172.723 208.291 182L221 176.5C255.679 222.45 242.5 250.5 216.5 238.5C207.882 231.19 202.409 224.833 191 207.721C187.72 208.32 184.822 208.064 180.5 207C177.5 206.262 176 202.5 180.5 201L191 197L178 197.5C172.5 197 172 190.5 178 189.5L191 188.5L174 186.5C170.5 186.5 169 180 174 179L191 178L177 177C173 176 172.5 171 177 169Z" fill="#FBEFE3"/>
<path d="M137 145.5L139.5 133C131 127.5 127.5 117.5 134.5 108.5H152L153 117.5C157 116.5 159 123 153.5 123V130.5L155 145.5C150.5 151.5 143 151.5 137 145.5Z" fill="#FBEFE3"/>
<path d="M85.6092 180.5C85.6022 170.042 90.1095 159.491 101 154.5C106 153.5 108 160 105 161.5L98.9999 168.5V169H116C120 170.5 120 176 116 177L102 178L118.5 179C123.5 179.5 124 185.5 118.5 186.5L103 188.5L116 189.5C120.5 191 120 196 116 197L102 196C101.895 200.41 106.123 200.489 113 201C116 202 115.5 206 113 207.5L102 208C101.663 207.916 101.329 207.82 101 207.712M85.6092 180.5C85.6174 192.657 91.7262 204.688 101 207.712M85.6092 180.5C85.3227 181.362 85.039 182.194 84.7565 183M69.5 210C76.9739 200.601 80.7259 194.501 84.7565 183M101 207.712C90.3757 226.867 83.6564 234.894 69.5 241.5C53.5 244.5 46.0152 229.368 55.5 204C60.7276 191.968 64.3993 185.9 72.5 176.5L84.7565 183M191 207.721C187.72 208.32 184.822 208.064 180.5 207C177.5 206.262 176 202.5 180.5 201L191 197L178 197.5C172.5 197 172 190.5 178 189.5L191 188.5L174 186.5C170.5 186.5 169 180 174 179L191 178L177 177C173 176 172.5 171 177 169H194L187 160.5C185.5 155.5 189 153.5 194.5 156C203.735 163.206 208.235 172.723 208.291 182M191 207.721C192.386 207.468 193.841 207.062 195.5 206.5C203.987 200.259 208.348 191.249 208.291 182M191 207.721C202.409 224.833 207.882 231.19 216.5 238.5C242.5 250.5 255.679 222.45 221 176.5L208.291 182M208.291 182L223 210M139.5 133L137 145.5C143 151.5 150.5 151.5 155 145.5L153.5 130.5M139.5 133C146.725 134.727 149.508 133.745 153.5 130.5M139.5 133C131 127.5 127.5 117.5 134.5 108.5H152L153 117.5C157 116.5 159 123 153.5 123V130.5" stroke="black"/>
</g>
<g id="face2">
<path id="Vector 33" d="M135.5 115.018C135.99 113.586 136.641 113.139 138.5 113.018M144 113.018C145.621 112.906 146.311 113.277 147 115.018M141 119.518C140.149 120.69 139.796 121.399 140 123.018H142M140 126.018C141.543 126.837 142.569 126.531 144.5 125.518C144.161 129.257 143.137 130.083 140 129.518" stroke="black"/>
<circle id="Ellipse 13" cx="138" cy="118.018" r="1" fill="black"/>
<circle id="Ellipse 14" cx="145" cy="118.018" r="1" fill="black"/>
</g>
<g id="face1">
<circle id="Ellipse 10" cx="137.5" cy="118.009" r="1" fill="black"/>
<circle id="Ellipse 12" cx="142" cy="127.509" r="2.5" fill="black"/>
<circle id="Ellipse 11" cx="145.5" cy="118.009" r="1" fill="black"/>
<path id="Vector 27" d="M135.5 114.509C136.06 113.151 136.816 112.949 138.5 113.009M145 113.009C146.771 112.98 147.386 113.477 148 115.009M141 119.509C140.191 120.127 139.867 120.797 139.5 122.509H142.5" stroke="black"/>
</g>
</g>
</svg>
