<svg width="50" height="50" viewBox="0 0 50 50" fill="none" xmlns="http://www.w3.org/2000/svg">
<g id="Frame 3">
<path id="segitiga" d="M16.4378 19L22.5 8.5L28.5622 19H16.4378Z" fill="#FF00C7" stroke="black" stroke-width="0.5"/>
<rect id="kotak" x="29.25" y="23.2499" width="14.5" height="14.5" fill="#FF4200" stroke="black" stroke-width="0.5"/>
<circle id="lingkaran" cx="15" cy="32" r="9.5" fill="#409B81" stroke="black"/>
<path id="lines1" d="M13.5 17.003C11.8542 13.3205 11.9512 11.5112 15 9.00302M11 10.003C11.707 6.79508 12.5991 5.95438 15 6.00302M27 5.003C30.7635 4.93429 32.0833 6.02819 33 10.003" stroke="black" stroke-width="0.5"/>
<path id="Star 2" d="M41.4888 13.1759L41.5059 13.277L41.575 13.2012L43.5418 11.0449L42.3974 13.7297L42.3572 13.824L42.4562 13.7976L45.2766 13.047L42.8623 14.6868L42.7775 14.7444L42.8751 14.7758L45.6536 15.6691L42.736 15.7434L42.6335 15.746L42.6986 15.8251L44.5531 18.0788L42.0585 16.5639L41.9709 16.5107L41.9829 16.6125L42.3245 19.511L41.0449 16.8879L41 16.7958L40.9551 16.8879L39.6755 19.511L40.0171 16.6125L40.0291 16.5107L39.9415 16.5639L37.4469 18.0788L39.3014 15.8251L39.3665 15.746L39.264 15.7434L36.3464 15.6691L39.1249 14.7758L39.2225 14.7444L39.1377 14.6868L36.7234 13.047L39.5438 13.7976L39.6428 13.824L39.6026 13.7297L38.4582 11.0449L40.425 13.2012L40.4941 13.277L40.5112 13.1759L41 10.2986L41.4888 13.1759Z" fill="#FFB600" stroke="black" stroke-width="0.1"/>
<path id="Star 1" d="M27.5 39.1618L28.0137 40.7429L28.025 40.7775H28.0613H29.7238L28.3788 41.7546L28.3494 41.776L28.3606 41.8105L28.8744 43.3916L27.5294 42.4145L27.5 42.3931L27.4706 42.4145L26.1256 43.3916L26.6394 41.8105L26.6506 41.776L26.6212 41.7546L25.2762 40.7775H26.9387H26.975L26.9863 40.7429L27.5 39.1618Z" fill="#FFB600" stroke="black" stroke-width="0.1"/>
</g>
</svg>
