<svg width="400" height="400" viewBox="0 0 400 400" fill="none" xmlns="http://www.w3.org/2000/svg">
<g id="Frame 1">
<g id="Icon">
<g id="Bucket">
<rect id="Rectangle 18" x="180.5" y="219.5" width="41" height="2" fill="white" stroke="white"/>
<rect id="Rectangle 19" x="164.5" y="191.5" width="72" height="3" fill="white" stroke="white"/>
<rect id="Rectangle 25" x="164.5" y="185.5" width="72" height="2" fill="white" stroke="white"/>
<rect id="Rectangle 20" x="199.5" y="193.5" width="2" height="26" fill="white" stroke="white"/>
<rect id="Rectangle 21" x="214.448" y="194.6" width="2" height="26" transform="rotate(13 214.448 194.6)" fill="white" stroke="white"/>
<rect id="Rectangle 23" x="184.375" y="195.075" width="2" height="26" transform="rotate(-13 184.375 195.075)" fill="white" stroke="white"/>
<rect id="Rectangle 22" x="230.06" y="193.409" width="2" height="28.4074" transform="rotate(21.5 230.06 193.409)" fill="white" stroke="white"/>
<rect id="Rectangle 24" x="169.648" y="194.381" width="2" height="28.4074" transform="rotate(-21.5 169.648 194.381)" fill="white" stroke="white"/>
<rect id="Rectangle 26" x="191.032" y="174.701" width="2" height="13.6852" transform="rotate(37.5 191.032 174.701)" fill="white" stroke="white"/>
<circle id="Ellipse 1" cx="194" cy="171" r="4.5" fill="white" stroke="white"/>
<rect id="Rectangle 27" x="207.701" y="175.919" width="2" height="13.6852" transform="rotate(-37.5 207.701 175.919)" fill="white" stroke="white"/>
<circle id="Ellipse 2" cx="207" cy="171" r="4.5" fill="white" stroke="white"/>
</g>
<g id="Arr1">
<path id="Arrow 1" d="M201.061 131.939C200.475 131.354 199.525 131.354 198.939 131.939L189.393 141.485C188.808 142.071 188.808 143.021 189.393 143.607C189.979 144.192 190.929 144.192 191.515 143.607L200 135.121L208.485 143.607C209.071 144.192 210.021 144.192 210.607 143.607C211.192 143.021 211.192 142.071 210.607 141.485L201.061 131.939ZM201.5 148V133H198.5V148H201.5Z" fill="white"/>
<rect id="Rectangle 28" x="199.5" y="152.5" width="2" height="2" fill="white" stroke="white"/>
<rect id="Rectangle 29" x="199.5" y="158.5" width="2" height="2" fill="white" stroke="white"/>
</g>
<g id="Arr2">
<path id="Arrow 1_2" d="M249.336 152.746C249.35 151.917 248.691 151.234 247.862 151.22L234.364 150.984C233.536 150.97 232.853 151.629 232.838 152.458C232.824 153.286 233.484 153.969 234.312 153.984L246.31 154.193L246.101 166.191C246.086 167.019 246.746 167.703 247.574 167.717C248.403 167.732 249.086 167.072 249.1 166.243L249.336 152.746ZM238.088 164.218L248.878 153.798L246.794 151.64L236.004 162.06L238.088 164.218Z" fill="white"/>
<rect id="Rectangle 28_2" x="233.462" y="165.906" width="2" height="2" transform="rotate(46 233.462 165.906)" fill="white" stroke="white"/>
<rect id="Rectangle 29_2" x="229.146" y="170.073" width="2" height="2" transform="rotate(46 229.146 170.073)" fill="white" stroke="white"/>
</g>
<g id="Arr3">
<path id="Arrow 1_3" d="M268.061 200.061C268.646 199.475 268.646 198.525 268.061 197.939L258.515 188.393C257.929 187.808 256.979 187.808 256.393 188.393C255.808 188.979 255.808 189.929 256.393 190.515L264.879 199L256.393 207.485C255.808 208.071 255.808 209.021 256.393 209.607C256.979 210.192 257.929 210.192 258.515 209.607L268.061 200.061ZM252 200.5H267V197.5H252V200.5Z" fill="white"/>
<rect id="Rectangle 28_3" x="247.5" y="198.5" width="2" height="2" transform="rotate(90 247.5 198.5)" fill="white" stroke="white"/>
<rect id="Rectangle 29_3" x="241.5" y="198.5" width="2" height="2" transform="rotate(90 241.5 198.5)" fill="white" stroke="white"/>
</g>
<g id="Arr4">
<path id="Arrow 1_4" d="M247.588 249.436C248.414 249.501 249.136 248.884 249.201 248.058L250.26 234.6C250.325 233.774 249.708 233.052 248.882 232.987C248.056 232.922 247.334 233.539 247.269 234.365L246.328 246.328L234.365 245.386C233.539 245.321 232.817 245.938 232.752 246.764C232.687 247.59 233.303 248.312 234.129 248.377L247.588 249.436ZM236.823 237.509L246.565 248.915L248.846 246.967L239.104 235.561L236.823 237.509Z" fill="white"/>
<rect id="Rectangle 28_4" x="235.421" y="232.788" width="2" height="2" transform="rotate(139.5 235.421 232.788)" fill="white" stroke="white"/>
<rect id="Rectangle 29_4" x="231.525" y="228.226" width="2" height="2" transform="rotate(139.5 231.525 228.226)" fill="white" stroke="white"/>
</g>
<g id="Arr5">
<path id="Arrow 1_5" d="M199.939 267.061C200.525 267.646 201.475 267.646 202.061 267.061L211.607 257.515C212.192 256.929 212.192 255.979 211.607 255.393C211.021 254.808 210.071 254.808 209.485 255.393L201 263.879L192.515 255.393C191.929 254.808 190.979 254.808 190.393 255.393C189.808 255.979 189.808 256.929 190.393 257.515L199.939 267.061ZM199.5 251V266H202.5V251H199.5Z" fill="white"/>
<rect id="Rectangle 28_5" x="201.5" y="246.5" width="2" height="2" transform="rotate(-180 201.5 246.5)" fill="white" stroke="white"/>
<rect id="Rectangle 29_5" x="201.5" y="240.5" width="2" height="2" transform="rotate(-180 201.5 240.5)" fill="white" stroke="white"/>
</g>
<g id="Arr6">
<path id="Arrow 1_6" d="M151.098 246.776C151.091 247.605 151.756 248.282 152.585 248.289L166.084 248.407C166.913 248.414 167.59 247.749 167.597 246.92C167.604 246.092 166.939 245.414 166.11 245.407L154.111 245.302L154.216 233.303C154.223 232.474 153.557 231.797 152.729 231.79C151.9 231.783 151.223 232.448 151.216 233.277L151.098 246.776ZM162.245 235.206L151.546 245.719L153.649 247.859L164.348 237.345L162.245 235.206Z" fill="white"/>
<rect id="Rectangle 28_6" x="166.857" y="233.478" width="2" height="2" transform="rotate(-134.5 166.857 233.478)" fill="white" stroke="white"/>
<rect id="Rectangle 29_6" x="171.136" y="229.273" width="2" height="2" transform="rotate(-134.5 171.136 229.273)" fill="white" stroke="white"/>
</g>
<g id="Arr7">
<path id="Arrow 1_7" d="M132.939 198.939C132.354 199.525 132.354 200.475 132.939 201.061L142.485 210.607C143.071 211.192 144.021 211.192 144.607 210.607C145.192 210.021 145.192 209.071 144.607 208.485L136.121 200L144.607 191.515C145.192 190.929 145.192 189.979 144.607 189.393C144.021 188.808 143.071 188.808 142.485 189.393L132.939 198.939ZM149 198.5H134V201.5H149V198.5Z" fill="white"/>
<rect id="Rectangle 28_7" x="153.5" y="200.5" width="2" height="2" transform="rotate(-90 153.5 200.5)" fill="white" stroke="white"/>
<rect id="Rectangle 29_7" x="159.5" y="200.5" width="2" height="2" transform="rotate(-90 159.5 200.5)" fill="white" stroke="white"/>
</g>
<g id="Arr8">
<path id="Arrow 1_8" d="M152.668 150.939C151.84 150.953 151.18 151.637 151.195 152.465L151.43 165.963C151.445 166.791 152.128 167.451 152.956 167.436C153.785 167.422 154.444 166.739 154.43 165.91L154.221 153.912L166.219 153.703C167.047 153.688 167.707 153.005 167.692 152.177C167.678 151.349 166.995 150.689 166.166 150.703L152.668 150.939ZM164.527 161.78L153.737 151.36L151.653 153.518L162.443 163.938L164.527 161.78Z" fill="white"/>
<rect id="Rectangle 28_8" x="166.374" y="166.344" width="2" height="2" transform="rotate(-46 166.374 166.344)" fill="white" stroke="white"/>
<rect id="Rectangle 29_8" x="170.69" y="170.512" width="2" height="2" transform="rotate(-46 170.69 170.512)" fill="white" stroke="white"/>
</g>
</g>
</g>
</svg>
