<svg width="137" height="137" viewBox="0 0 137 137" fill="none" xmlns="http://www.w3.org/2000/svg">
<rect x="48.5" y="88.5" width="41" height="2" fill="white" stroke="white"/>
<rect x="32.5" y="60.5" width="72" height="3" fill="white" stroke="white"/>
<rect x="32.5" y="54.5" width="72" height="2" fill="white" stroke="white"/>
<rect x="67.5" y="62.5" width="2" height="26" fill="white" stroke="white"/>
<rect x="82.4484" y="63.5997" width="2" height="26" transform="rotate(13 82.4484 63.5997)" fill="white" stroke="white"/>
<rect x="52.3753" y="64.075" width="2" height="26" transform="rotate(-13 52.3753 64.075)" fill="white" stroke="white"/>
<rect x="98.0598" y="62.4086" width="2" height="28.4074" transform="rotate(21.5 98.0598 62.4086)" fill="white" stroke="white"/>
<rect x="37.6485" y="63.3815" width="2" height="28.4074" transform="rotate(-21.5 37.6485 63.3815)" fill="white" stroke="white"/>
<rect x="59.0321" y="43.7011" width="2" height="13.6852" transform="rotate(37.5 59.0321 43.7011)" fill="white" stroke="white"/>
<circle cx="62" cy="40" r="4.5" fill="white" stroke="white"/>
<rect x="75.7011" y="44.9186" width="2" height="13.6852" transform="rotate(-37.5 75.7011 44.9186)" fill="white" stroke="white"/>
<circle cx="75" cy="40" r="4.5" fill="white" stroke="white"/>
<path d="M69.0607 0.939339C68.4749 0.353552 67.5251 0.353552 66.9393 0.939339L57.3934 10.4853C56.8076 11.0711 56.8076 12.0208 57.3934 12.6066C57.9792 13.1924 58.9289 13.1924 59.5147 12.6066L68 4.12132L76.4853 12.6066C77.0711 13.1924 78.0208 13.1924 78.6066 12.6066C79.1924 12.0208 79.1924 11.0711 78.6066 10.4853L69.0607 0.939339ZM69.5 17V2H66.5V17H69.5Z" fill="white"/>
<rect x="67.5" y="21.5" width="2" height="2" fill="white" stroke="white"/>
<rect x="67.5" y="27.5" width="2" height="2" fill="white" stroke="white"/>
<path d="M67.9393 136.061C68.5251 136.646 69.4749 136.646 70.0607 136.061L79.6066 126.515C80.1924 125.929 80.1924 124.979 79.6066 124.393C79.0208 123.808 78.0711 123.808 77.4853 124.393L69 132.879L60.5147 124.393C59.9289 123.808 58.9792 123.808 58.3934 124.393C57.8076 124.979 57.8076 125.929 58.3934 126.515L67.9393 136.061ZM67.5 120V135H70.5V120H67.5Z" fill="white"/>
<rect x="69.5" y="115.5" width="2" height="2" transform="rotate(-180 69.5 115.5)" fill="white" stroke="white"/>
<rect x="69.5" y="109.5" width="2" height="2" transform="rotate(-180 69.5 109.5)" fill="white" stroke="white"/>
<path d="M117.336 21.7455C117.35 20.9172 116.691 20.234 115.862 20.2196L102.364 19.984C101.536 19.9695 100.853 20.6292 100.838 21.4575C100.824 22.2858 101.484 22.969 102.312 22.9835L114.31 23.1929L114.101 35.1911C114.086 36.0194 114.746 36.7026 115.574 36.717C116.403 36.7315 117.086 36.0718 117.1 35.2435L117.336 21.7455ZM106.088 33.2182L116.878 22.7983L114.794 20.6403L104.004 31.0602L106.088 33.2182Z" fill="white"/>
<rect x="101.462" y="34.9055" width="2" height="2" transform="rotate(46 101.462 34.9055)" fill="white" stroke="white"/>
<rect x="97.1457" y="39.0735" width="2" height="2" transform="rotate(46 97.1457 39.0735)" fill="white" stroke="white"/>
<path d="M19.0978 115.776C19.0906 116.605 19.7563 117.282 20.5847 117.289L34.0841 117.407C34.9125 117.414 35.59 116.749 35.5972 115.92C35.6044 115.092 34.9387 114.414 34.1103 114.407L22.1108 114.302L22.2155 102.303C22.2227 101.474 21.557 100.797 20.7287 100.79C19.9003 100.783 19.2228 101.448 19.2156 102.277L19.0978 115.776ZM30.2451 104.206L19.5464 114.719L21.6491 116.859L32.3479 106.345L30.2451 104.206Z" fill="white"/>
<rect x="34.8566" y="102.478" width="2" height="2" transform="rotate(-134.5 34.8566 102.478)" fill="white" stroke="white"/>
<rect x="39.1361" y="98.2726" width="2" height="2" transform="rotate(-134.5 39.1361 98.2726)" fill="white" stroke="white"/>
<path d="M20.6685 19.9389C19.8402 19.9534 19.1804 20.6366 19.1949 21.4649L19.4305 34.9628C19.4449 35.7911 20.1281 36.4508 20.9564 36.4364C21.7847 36.4219 22.4445 35.7387 22.43 34.9104L22.2206 22.9123L34.2188 22.7028C35.0471 22.6884 35.7068 22.0052 35.6924 21.1769C35.6779 20.3486 34.9947 19.6888 34.1664 19.7033L20.6685 19.9389ZM32.5267 30.7795L21.7366 20.3597L19.6527 22.5177L30.4428 32.9376L32.5267 30.7795Z" fill="white"/>
<rect x="34.3744" y="35.3442" width="2" height="2" transform="rotate(-46 34.3744 35.3442)" fill="white" stroke="white"/>
<rect x="38.6905" y="39.5121" width="2" height="2" transform="rotate(-46 38.6905 39.5121)" fill="white" stroke="white"/>
<path d="M0.939343 67.9393C0.353556 68.5251 0.353556 69.4749 0.939343 70.0607L10.4853 79.6066C11.0711 80.1924 12.0208 80.1924 12.6066 79.6066C13.1924 79.0208 13.1924 78.0711 12.6066 77.4853L4.12132 69L12.6066 60.5147C13.1924 59.9289 13.1924 58.9792 12.6066 58.3934C12.0208 57.8076 11.0711 57.8076 10.4853 58.3934L0.939343 67.9393ZM17 67.5H2V70.5H17V67.5Z" fill="white"/>
<rect x="21.5" y="69.5" width="2" height="2" transform="rotate(-90 21.5 69.5)" fill="white" stroke="white"/>
<rect x="27.5" y="69.5" width="2" height="2" transform="rotate(-90 27.5 69.5)" fill="white" stroke="white"/>
<path d="M115.588 118.436C116.414 118.501 117.136 117.884 117.201 117.059L118.26 103.6C118.325 102.774 117.708 102.052 116.882 101.987C116.056 101.922 115.334 102.539 115.269 103.365L114.328 115.328L102.365 114.386C101.539 114.321 100.817 114.938 100.752 115.764C100.687 116.59 101.303 117.312 102.129 117.377L115.588 118.436ZM104.823 106.509L114.565 117.915L116.846 115.967L107.104 104.561L104.823 106.509Z" fill="white"/>
<rect x="103.421" y="101.788" width="2" height="2" transform="rotate(139.5 103.421 101.788)" fill="white" stroke="white"/>
<rect x="99.5246" y="97.2257" width="2" height="2" transform="rotate(139.5 99.5246 97.2257)" fill="white" stroke="white"/>
<path d="M136.061 69.0607C136.646 68.4749 136.646 67.5251 136.061 66.9393L126.515 57.3934C125.929 56.8076 124.979 56.8076 124.393 57.3934C123.808 57.9792 123.808 58.9289 124.393 59.5147L132.879 68L124.393 76.4853C123.808 77.0711 123.808 78.0208 124.393 78.6066C124.979 79.1924 125.929 79.1924 126.515 78.6066L136.061 69.0607ZM120 69.5H135V66.5H120V69.5Z" fill="white"/>
<rect x="115.5" y="67.5" width="2" height="2" transform="rotate(90 115.5 67.5)" fill="white" stroke="white"/>
<rect x="109.5" y="67.5" width="2" height="2" transform="rotate(90 109.5 67.5)" fill="white" stroke="white"/>
</svg>
