<svg id="ex2iQRuNnYL1" xmlns="http://www.w3.org/2000/svg" xmlns:xlink="http://www.w3.org/1999/xlink" viewBox="0 0 360 80" shape-rendering="geometricPrecision" text-rendering="geometricPrecision">
<style><![CDATA[
#ex2iQRuNnYL8_tr {animation: ex2iQRuNnYL8_tr__tr 5000ms linear infinite normal forwards}@keyframes ex2iQRuNnYL8_tr__tr { 0% {transform: translate(26.777671px,45.62389px) rotate(0deg)} 100% {transform: translate(26.777671px,45.62389px) rotate(360deg)}} #ex2iQRuNnYL11_tr {animation: ex2iQRuNnYL11_tr__tr 5000ms linear infinite normal forwards}@keyframes ex2iQRuNnYL11_tr__tr { 0% {transform: translate(39.500024px,62.499821px) rotate(360deg)} 100% {transform: translate(39.500024px,62.499821px) rotate(0deg)}} #ex2iQRuNnYL24_tr {animation: ex2iQRuNnYL24_tr__tr 5000ms linear infinite normal forwards}@keyframes ex2iQRuNnYL24_tr__tr { 0% {transform: translate(30.5px,73.2767px) rotate(0deg)} 100% {transform: translate(30.5px,73.2767px) rotate(360deg)}} #ex2iQRuNnYL28_to {animation: ex2iQRuNnYL28_to__to 5000ms linear infinite normal forwards}@keyframes ex2iQRuNnYL28_to__to { 0% {transform: translate(-13.319074px,72.200025px);animation-timing-function: cubic-bezier(0.42,0,0.58,1)} 100% {transform: translate(374.274015px,72.200016px)}}
]]></style>
<defs><filter id="ex2iQRuNnYL5-filter" x="-150%" width="400%" y="-150%" height="400%"><feComponentTransfer id="ex2iQRuNnYL5-filter-brightness-0" result="result"><feFuncR id="ex2iQRuNnYL5-filter-brightness-0-R" type="linear" slope="1.25"/><feFuncG id="ex2iQRuNnYL5-filter-brightness-0-G" type="linear" slope="1.25"/><feFuncB id="ex2iQRuNnYL5-filter-brightness-0-B" type="linear" slope="1.25"/></feComponentTransfer><feGaussianBlur id="ex2iQRuNnYL5-filter-drop-shadow-0-blur" in="result" stdDeviation="5,5"/><feOffset id="ex2iQRuNnYL5-filter-drop-shadow-0-offset" dx="0" dy="0" result="tmp"/><feFlood id="ex2iQRuNnYL5-filter-drop-shadow-0-flood" flood-color="#ffb600"/><feComposite id="ex2iQRuNnYL5-filter-drop-shadow-0-composite" operator="in" in2="tmp"/><feMerge id="ex2iQRuNnYL5-filter-drop-shadow-0-merge" result="result"><feMergeNode id="ex2iQRuNnYL5-filter-drop-shadow-0-merge-node-1"/><feMergeNode id="ex2iQRuNnYL5-filter-drop-shadow-0-merge-node-2" in="result"/></feMerge></filter><filter id="ex2iQRuNnYL21-filter" x="-150%" width="400%" y="-150%" height="400%"><feGaussianBlur id="ex2iQRuNnYL21-filter-drop-shadow-0-blur" in="SourceAlpha" stdDeviation="3,2"/><feOffset id="ex2iQRuNnYL21-filter-drop-shadow-0-offset" dx="0" dy="0" result="tmp"/><feFlood id="ex2iQRuNnYL21-filter-drop-shadow-0-flood" flood-color="#ffb600"/><feComposite id="ex2iQRuNnYL21-filter-drop-shadow-0-composite" operator="in" in2="tmp"/><feMerge id="ex2iQRuNnYL21-filter-drop-shadow-0-merge"><feMergeNode id="ex2iQRuNnYL21-filter-drop-shadow-0-merge-node-1"/><feMergeNode id="ex2iQRuNnYL21-filter-drop-shadow-0-merge-node-2" in="SourceGraphic"/></feMerge></filter><filter id="ex2iQRuNnYL25-filter" x="-150%" width="400%" y="-150%" height="400%"><feGaussianBlur id="ex2iQRuNnYL25-filter-drop-shadow-0-blur" in="SourceAlpha" stdDeviation="2,2"/><feOffset id="ex2iQRuNnYL25-filter-drop-shadow-0-offset" dx="0" dy="0" result="tmp"/><feFlood id="ex2iQRuNnYL25-filter-drop-shadow-0-flood" flood-color="#ffc800"/><feComposite id="ex2iQRuNnYL25-filter-drop-shadow-0-composite" operator="in" in2="tmp"/><feMerge id="ex2iQRuNnYL25-filter-drop-shadow-0-merge"><feMergeNode id="ex2iQRuNnYL25-filter-drop-shadow-0-merge-node-1"/><feMergeNode id="ex2iQRuNnYL25-filter-drop-shadow-0-merge-node-2" in="SourceGraphic"/></feMerge></filter></defs><g><rect width="360" height="80" rx="0" ry="0" fill="#fff"/><path d="M310,86.3126c2.915-11.7619,6.429-15.3385,17.5-14c4.5-13.0001,19-20.0001,33-8.5c3.878-4.2823,5.95-3.8257,9.5.9999c8.989,1.3405,10.514,5.7552,10,17" transform="translate(-20.080139-6.205126)" fill="none" stroke="#000" stroke-width="0.5"/><g filter="url(#ex2iQRuNnYL5-filter)"><path d="M327.718,64.2446c11.316,4.8183,21.155-6.3032,18.548-16.1624c23.995,15.5641-10.503,41.218-18.548,16.1624Z" fill="#ffb600"/><path d="M327.718,64.2446c11.316,4.8183,21.155-6.3032,18.548-16.1624c23.995,15.5641-10.503,41.218-18.548,16.1624Z" fill="none" stroke="#000" stroke-width="0.5"/></g><g id="ex2iQRuNnYL8_tr" transform="translate(26.777671,45.62389) rotate(0)"><g transform="translate(-25.462179,-46.464492)"><path d="M30.9099,41.3033L27.5477,53.8511l-9.1855-9.1856l12.5477-3.3622Z" fill="#ff00c7"/><path d="M18.8451,44.7949l11.7113-3.138-3.1381,11.7112-8.5732-8.5732Z" fill="none" stroke="#000" stroke-width="0.5"/></g></g><g id="ex2iQRuNnYL11_tr" transform="translate(39.500024,62.499821) rotate(360)"><g transform="translate(-39.500024,-62.499821)"><rect width="15" height="15" rx="0" ry="0" transform="matrix(.48481 0.87462-.87462 0.48481 42.423585 52.304152)" fill="#ff4200"/><rect width="14.5" height="14.5" rx="0" ry="0" transform="matrix(.48481 0.87462-.87462 0.48481 42.326133 52.644004)" fill="none" stroke="#000" stroke-width="0.5"/></g></g><g><circle r="10" transform="translate(18 65)" fill="#409b81"/><circle r="9.5" transform="translate(18 65)" fill="none" stroke="#000"/></g><path d="M16.5,49.003c-1.6458-3.6825-1.5488-5.4918,1.5-8m-4,1c.707-3.2079,1.5991-4.0486,4-4m12-1c3.7635-.0687,5.0833,1.0252,6,5" fill="none" stroke="#000" stroke-width="0.5"/><g><path d="M44,42l1.1226,3.4549h3.6327l-2.9389,2.1353l1.1225,3.4549L44,48.9098l-2.9389,2.1353l1.1225-3.4549-2.9389-2.1353h3.6327L44,42Z" fill="#ffb600"/><path d="M44,42.1618l1.075,3.3086.0112.0345h.0364h3.4788L45.787,47.5497l-.0294.0214.0112.0345l1.075,3.3086-2.8144-2.0448L44,48.848l-.0294.0214-2.8144,2.0448l1.075-3.3086.0112-.0345-.0294-.0214-2.8144-2.0448h3.4788.0364l.0112-.0345L44,42.1618Z" fill="none" stroke="#000" stroke-width="0.1"/></g><g transform="translate(19.345924-.022687)" filter="url(#ex2iQRuNnYL21-filter)"><path d="M315.5,58l.561,1.7275h1.817l-1.47,1.0676.561,1.7274-1.469-1.0676-1.469,1.0676.561-1.7274-1.47-1.0676h1.817L315.5,58Z" fill="#ffb600"/><path d="M315.5,58.1618l.514,1.5811.011.0346h.036h1.663l-1.345.9771-.03.0214.012.0345.513,1.5811-1.345-.9771-.029-.0214-.029.0214-1.345.9771.513-1.5811.012-.0345-.03-.0214-1.345-.9771h1.663.036l.011-.0346.514-1.5811Z" fill="none" stroke="#000" stroke-width="0.1"/></g><g id="ex2iQRuNnYL24_tr" transform="translate(30.5,73.2767) rotate(0)"><path d="M30.5,71.1618l.5137,1.5811.0113.0346h.0363h1.6625l-1.345.9771-.0294.0214.0112.0345.5138,1.5811-1.345-.9771-.0294-.0214-.0294.0214-1.345.9771.5138-1.5811.0112-.0345-.0294-.0214-1.345-.9771h1.6625.0363l.0113-.0346.5137-1.5811Z" transform="translate(-30.5,-73.2767)" fill="#ffb600" stroke="#000" stroke-width="0.1"/></g><g transform="translate(2.967933-.522531)" filter="url(#ex2iQRuNnYL25-filter)"><path d="M318,61l1.123,3.4549h3.632l-2.939,2.1353l1.123,3.4549L318,67.9098l-2.939,2.1353l1.123-3.4549-2.939-2.1353h3.632L318,61Z" fill="#ffb600"/><path d="M318,61.1618l1.075,3.3086.011.0345h.037h3.478l-2.814,2.0448-.029.0214.011.0345l1.075,3.3086-2.815-2.0448L318,67.848l-.029.0214-2.815,2.0448l1.075-3.3086.011-.0345-.029-.0214-2.814-2.0448h3.478.037l.011-.0345L318,61.1618Z" fill="none" stroke="#000" stroke-width="0.1"/></g><g id="ex2iQRuNnYL28_to" transform="translate(-13.319074,72.200025)"><g transform="translate(-77.549984,-72.299999)"><circle r="1.5" transform="translate(68 78)" fill="#ffba00" stroke="#000"/><circle r="1.5" transform="translate(76 78)" fill="#ffba00" stroke="#000"/><circle r="1.5" transform="translate(86 78)" fill="#ffba00" stroke="#000"/><rect width="15.8" height="10.8" rx="0.9" ry="0.9" transform="translate(64.1 65.1)" fill="#ffba00" stroke="#000" stroke-width="0.2"/><rect width="15.8" height="0.8" rx="0" ry="0" transform="translate(64.1 76.1)" fill="#009e80" stroke="#000" stroke-width="0.2"/><rect width="9.8" height="0.8" rx="0" ry="0" transform="translate(81.1 76.1)" fill="#009e80" stroke="#000" stroke-width="0.2"/><g><path d="M81,75.9371L81,67h3.68c1.1947.3921,1.6579,2.4002,2.6285,4.7314h2.1029c.2271.0799.4244.1636.595.2545.861.4587,1.0458,1.1019.9821,2.3741v1.5771h-9.9885Z" fill="#fff"/><path d="M90.9885,74.36v1.5771h-9.9885L81,67h3.68c1.1947.3921,1.6579,2.4002,2.6285,4.7314h2.1029c.2271.0799.4244.1636.595.2545m.9821,2.3741c.0637-1.2722-.1211-1.9154-.9821-2.3741m.9821,2.3741c0,0-.9127,0-.9821-.5257-.0693-.5258,0-1.8484,0-1.8484m-3.2236.2712v3.1543m-4.7314-3.1543v3.1543m0-3.68v-3.68h2.6286l1.5771,3.68h-4.2057Z" fill="none" stroke="#000" stroke-width="0.2"/></g><rect width="7" height="7" rx="0" ry="0" transform="translate(68 67)" fill="none"/></g></g></g></svg>
